<svg width="25" height="24" viewBox="0 0 25 24" fill="none" xmlns="http://www.w3.org/2000/svg">
<path d="M4.5665 15.6V14.7C9.8225 16.455 15.5105 16.455 20.7665 14.7V15.6M9.06648 3.9H9.96648C8.21148 9.156 8.21148 14.844 9.96648 20.1H9.06648M15.3665 3.9C17.1215 9.156 17.1215 14.844 15.3665 20.1M4.5665 9.30009C9.8225 7.54509 15.5105 7.54509 20.7665 9.30009M21.6665 12C21.6665 16.9706 17.6371 21 12.6665 21C7.69594 21 3.6665 16.9706 3.6665 12C3.6665 7.02944 7.69594 3 12.6665 3C17.6371 3 21.6665 7.02944 21.6665 12Z" stroke="#29102D" stroke-linecap="round" stroke-linejoin="round"/>
</svg>
