<svg width="100" height="100" viewBox="0 0 100 100" fill="none" xmlns="http://www.w3.org/2000/svg">
<rect width="100" height="100" rx="12" fill="white"/>
<g clip-path="url(#clip0_1282_8772)">
<path d="M76.4844 57.7423H73.6719V52.1094C73.6704 50.8045 73.1514 49.5534 72.2286 48.6307C71.3059 47.708 70.0549 47.189 68.75 47.1875H52.1094V43.4375H65.7031C66.6352 43.4365 67.5289 43.0658 68.188 42.4067C68.847 41.7476 69.2178 40.854 69.2188 39.9219V23.5156C69.2178 22.5835 68.847 21.6899 68.188 21.0308C67.5289 20.3717 66.6352 20.001 65.7031 20H34.2969C33.3648 20.001 32.4711 20.3717 31.812 21.0308C31.153 21.6899 30.7822 22.5835 30.7812 23.5156V39.9219C30.7822 40.854 31.153 41.7476 31.812 42.4067C32.4711 43.0658 33.3648 43.4365 34.2969 43.4375H47.8906V47.1875H31.25C29.9451 47.189 28.6941 47.708 27.7714 48.6307C26.8486 49.5534 26.3296 50.8045 26.3281 52.1094V57.7423H23.5156C22.5835 57.7433 21.6899 58.1141 21.0308 58.7731C20.3717 59.4322 20.001 60.3259 20 61.258V76.4844C20.001 77.4165 20.3717 78.3101 21.0308 78.9692C21.6899 79.6283 22.5835 79.999 23.5156 80H33.3594C34.2915 79.999 35.1851 79.6283 35.8442 78.9692C36.5033 78.3101 36.874 77.4165 36.875 76.4844V61.258C36.874 60.3259 36.5033 59.4322 35.8442 58.7731C35.1851 58.1141 34.2915 57.7433 33.3594 57.7423H30.5469V52.1094C30.5469 51.9229 30.621 51.7441 30.7528 51.6122C30.8847 51.4803 31.0635 51.4062 31.25 51.4062H47.8906V57.7423H45.0781C44.146 57.7433 43.2524 58.1141 42.5933 58.7731C41.9342 59.4322 41.5635 60.3259 41.5625 61.258V76.4844C41.5635 77.4165 41.9342 78.3101 42.5933 78.9692C43.2524 79.6283 44.146 79.999 45.0781 80H54.9219C55.854 79.999 56.7476 79.6283 57.4067 78.9692C58.0658 78.3101 58.4365 77.4165 58.4375 76.4844V61.258C58.4365 60.3259 58.0658 59.4322 57.4067 58.7731C56.7476 58.1141 55.854 57.7433 54.9219 57.7423H52.1094V51.4062H68.75C68.9365 51.4062 69.1153 51.4803 69.2472 51.6122C69.379 51.7441 69.4531 51.9229 69.4531 52.1094V57.7423H66.6406C65.7085 57.7433 64.8149 58.1141 64.1558 58.7731C63.4967 59.4322 63.126 60.3259 63.125 61.258V76.4844C63.126 77.4165 63.4967 78.3101 64.1558 78.9692C64.8149 79.6283 65.7085 79.999 66.6406 80H76.4844C77.4165 79.999 78.3101 79.6283 78.9692 78.9692C79.6283 78.3101 79.999 77.4165 80 76.4844V61.258C79.999 60.3259 79.6283 59.4322 78.9692 58.7731C78.3101 58.1141 77.4165 57.7433 76.4844 57.7423ZM34.2969 42.0312C33.7376 42.0306 33.2015 41.8082 32.806 41.4127C32.4106 41.0173 32.1881 40.4811 32.1875 39.9219V23.5156C32.1881 22.9564 32.4106 22.4202 32.806 22.0248C33.2015 21.6293 33.7376 21.4069 34.2969 21.4062H65.7031C66.2624 21.4069 66.7985 21.6293 67.194 22.0248C67.5894 22.4202 67.8119 22.9564 67.8125 23.5156V39.9219C67.8119 40.4811 67.5894 41.0173 67.194 41.4127C66.7985 41.8082 66.2624 42.0306 65.7031 42.0312H34.2969ZM33.3594 59.1486C33.9186 59.1492 34.4548 59.3717 34.8502 59.7671C35.2457 60.1625 35.4681 60.6987 35.4688 61.258V76.4844C35.4681 77.0436 35.2457 77.5798 34.8502 77.9752C34.4548 78.3707 33.9186 78.5931 33.3594 78.5938H23.5156C22.9564 78.5931 22.4202 78.3707 22.0248 77.9752C21.6293 77.5798 21.4069 77.0436 21.4062 76.4844V61.258C21.4069 60.6987 21.6293 60.1625 22.0248 59.7671C22.4202 59.3717 22.9564 59.1492 23.5156 59.1486H33.3594ZM54.9219 59.1486C55.4811 59.1492 56.0173 59.3717 56.4127 59.7671C56.8082 60.1625 57.0306 60.6987 57.0312 61.258V76.4844C57.0306 77.0436 56.8082 77.5798 56.4127 77.9752C56.0173 78.3707 55.4811 78.5931 54.9219 78.5938H45.0781C44.5189 78.5931 43.9827 78.3707 43.5873 77.9752C43.1918 77.5798 42.9694 77.0436 42.9688 76.4844V61.258C42.9694 60.6987 43.1918 60.1625 43.5873 59.7671C43.9827 59.3717 44.5189 59.1492 45.0781 59.1486H54.9219ZM68.75 50H51.4062C51.2198 50 51.0409 50.0741 50.9091 50.2059C50.7772 50.3378 50.7031 50.5166 50.7031 50.7031V57.7423H49.2969V50.7031C49.2969 50.5166 49.2228 50.3378 49.0909 50.2059C48.9591 50.0741 48.7802 50 48.5938 50H31.25C30.6907 50.0006 30.1546 50.2231 29.7591 50.6185C29.3637 51.014 29.1412 51.5501 29.1406 52.1094V57.7423H27.7344V52.1094C27.7354 51.1773 28.1061 50.2836 28.7652 49.6245C29.4243 48.9655 30.3179 48.5947 31.25 48.5938H48.5938C48.7802 48.5938 48.9591 48.5197 49.0909 48.3878C49.2228 48.2559 49.2969 48.0771 49.2969 47.8906V43.4375H50.7031V47.8906C50.7031 48.0771 50.7772 48.2559 50.9091 48.3878C51.0409 48.5197 51.2198 48.5938 51.4062 48.5938H68.75C69.6821 48.5947 70.5757 48.9655 71.2348 49.6245C71.8939 50.2836 72.2646 51.1773 72.2656 52.1094V57.7423H70.8594V52.1094C70.8588 51.5501 70.6363 51.014 70.2409 50.6185C69.8454 50.2231 69.3092 50.0006 68.75 50ZM78.5938 76.4844C78.5931 77.0436 78.3707 77.5798 77.9752 77.9752C77.5798 78.3707 77.0436 78.5931 76.4844 78.5938H66.6406C66.0814 78.5931 65.5452 78.3707 65.1498 77.9752C64.7543 77.5798 64.5319 77.0436 64.5312 76.4844V61.258C64.5319 60.6987 64.7543 60.1625 65.1498 59.7671C65.5452 59.3717 66.0814 59.1492 66.6406 59.1486H76.4844C77.0436 59.1492 77.5798 59.3717 77.9752 59.7671C78.3707 60.1625 78.5931 60.6987 78.5938 61.258V76.4844Z" fill="#29102D"/>
<path d="M42.7128 31.7188L44.9628 28.8997C45.3144 28.4515 45.4766 27.8834 45.4145 27.3171C45.3523 26.7509 45.0709 26.2314 44.6304 25.8702C44.1786 25.5194 43.6081 25.358 43.0394 25.4203C42.4708 25.4826 41.9487 25.7636 41.5836 26.2039L38.2592 30.372C37.9524 30.7541 37.7852 31.2294 37.7852 31.7195C37.7852 32.2095 37.9524 32.6848 38.2592 33.0669L41.5742 37.2223C41.7491 37.4489 41.9672 37.6385 42.2159 37.7801C42.4647 37.9217 42.739 38.0125 43.0231 38.0473C43.3072 38.082 43.5954 38.06 43.8709 37.9825C44.1464 37.905 44.4038 37.7736 44.6282 37.5958C44.8525 37.4181 45.0393 37.1975 45.1777 36.947C45.3162 36.6965 45.4035 36.421 45.4346 36.1365C45.4657 35.852 45.4401 35.5641 45.3591 35.2896C45.2781 35.0151 45.1434 34.7594 44.9628 34.5373L42.7128 31.7188ZM43.7328 36.4822C43.5743 36.5988 43.3773 36.6506 43.1819 36.627C42.9865 36.6034 42.8075 36.5062 42.6814 36.3552L39.3593 32.1875C39.2523 32.0539 39.1939 31.8878 39.1939 31.7166C39.1939 31.5454 39.2523 31.3794 39.3593 31.2458L42.6926 27.0669C42.8216 26.9186 43.0021 26.8249 43.1976 26.8048C43.3931 26.7847 43.589 26.8397 43.7454 26.9586C43.9004 27.0847 43.9997 27.2666 44.0219 27.4651C44.0442 27.6637 43.9877 27.863 43.8645 28.0203L41.2662 31.2777C41.1668 31.4022 41.1127 31.5568 41.1127 31.7162C41.1127 31.8755 41.1668 32.0301 41.2662 32.1547L43.8645 35.4116C43.9884 35.5712 44.0441 35.7734 44.0195 35.974C43.9948 36.1746 43.8917 36.3573 43.7328 36.4822Z" fill="#29102D"/>
<path d="M58.4155 26.2118C58.059 25.7629 57.5387 25.474 56.9692 25.4086C56.3997 25.3433 55.8276 25.5068 55.3787 25.8633C54.9297 26.2198 54.6408 26.74 54.5755 27.3095C54.5101 27.879 54.6737 28.4512 55.0301 28.9001L57.2839 31.7187L55.0301 34.5312C54.6736 34.9772 54.508 35.5462 54.5695 36.1139C54.6309 36.6816 54.9145 37.2019 55.3583 37.5612C55.8076 37.9173 56.3789 38.0825 56.9489 38.0211C57.5189 37.9597 58.0419 37.6767 58.4051 37.2331L61.7394 33.0659C62.0479 32.6836 62.2161 32.2072 62.2161 31.7159C62.2161 31.2246 62.0479 30.7482 61.7394 30.3659L58.4155 26.2118ZM60.6406 32.1875L57.2984 36.3673C57.17 36.5163 56.9894 36.6104 56.7937 36.6302C56.598 36.65 56.4022 36.594 56.2465 36.4737C56.0903 36.3483 55.9902 36.1661 55.968 35.967C55.9459 35.7679 56.0036 35.5682 56.1284 35.4115L58.7333 32.1561C58.833 32.0314 58.8873 31.8765 58.8873 31.7168C58.8873 31.5572 58.833 31.4023 58.7333 31.2776L56.119 28.01C55.9955 27.8523 55.9396 27.652 55.9637 27.4532C55.9878 27.2544 56.0898 27.0732 56.2475 26.9496C56.4051 26.8261 56.6054 26.7702 56.8042 26.7943C57.0031 26.8184 57.1842 26.9204 57.3078 27.0781L60.6406 31.2453C60.7483 31.3787 60.807 31.5449 60.807 31.7164C60.807 31.8878 60.7483 32.0541 60.6406 32.1875Z" fill="#29102D"/>
<path d="M51.4358 25.4586C51.1617 25.3893 50.8765 25.3757 50.597 25.4188C50.3176 25.4618 50.0496 25.5606 49.8091 25.7093C49.5686 25.858 49.3605 26.0535 49.197 26.2842C49.0336 26.515 48.9182 26.7762 48.8577 27.0524L48.854 27.0683C48.854 27.0683 47.3976 33.298 46.9485 35.383C46.3438 38.1876 50.4688 39.1569 51.1565 36.3665C51.6688 34.2871 53.0699 28.0157 53.0699 28.0157C53.1356 27.7402 53.1452 27.4544 53.098 27.1751C53.0509 26.8959 52.948 26.629 52.7955 26.3904C52.643 26.1518 52.4441 25.9463 52.2105 25.7862C51.9769 25.6261 51.7134 25.5147 51.4358 25.4586ZM51.696 27.719L49.7858 36.0524C49.7471 36.2222 49.651 36.3735 49.5137 36.4807C49.3764 36.5879 49.2063 36.6444 49.0321 36.6407C48.9207 36.6356 48.8118 36.6064 48.7128 36.5552C48.6139 36.5039 48.5272 36.4318 48.4588 36.3438C48.3904 36.2557 48.3419 36.1539 48.3166 36.0454C48.2914 35.9368 48.29 35.8241 48.3126 35.7149L50.2204 27.3908C50.2647 27.1962 50.3843 27.027 50.553 26.9203C50.7218 26.8136 50.9259 26.7781 51.1207 26.8215C51.3156 26.8648 51.4853 26.9836 51.5929 27.1518C51.7004 27.32 51.737 27.5239 51.6946 27.719H51.696Z" fill="#29102D"/>
</g>
<defs>
<clipPath id="clip0_1282_8772">
<rect width="60" height="60" fill="white" transform="translate(20 20)"/>
</clipPath>
</defs>
</svg>
