<svg width="101" height="100" viewBox="0 0 101 100" fill="none" xmlns="http://www.w3.org/2000/svg">
<rect x="0.666504" width="100" height="100" rx="12" fill="#29102D"/>
<g clip-path="url(#clip0_175_90158)">
<path d="M61.0838 50.4785C61.5693 50.4785 61.9627 50.085 61.9627 49.5996V43.2523C61.9627 42.886 61.7355 42.558 61.3925 42.4295L50.9751 38.523C50.776 38.4484 50.557 38.4484 50.3577 38.523L39.9404 42.4295C39.5973 42.5581 39.3701 42.886 39.3701 43.2523V46.0742C39.3701 46.5596 39.7635 46.9531 40.249 46.9531C40.7345 46.9531 41.1279 46.5596 41.1279 46.0742V44.5207L49.7875 47.7679V59.3858L41.1279 56.1385V50.1856C41.1279 49.7002 40.7345 49.3067 40.249 49.3067C39.7635 49.3067 39.3701 49.7002 39.3701 50.1856V56.7477C39.3701 57.114 39.5973 57.442 39.9404 57.5706L50.3577 61.477C50.3579 61.4763 50.3581 61.4754 50.3582 61.4745C50.4572 61.5117 50.5613 61.5329 50.6665 61.5329C50.7705 61.5329 50.875 61.5145 50.9751 61.4769L61.3925 57.5704C61.7355 57.4418 61.9627 57.1139 61.9627 56.7475V53.6962C61.9627 53.2108 61.5693 52.8173 61.0838 52.8173C60.5983 52.8173 60.2049 53.2108 60.2049 53.6962V56.1384L51.5453 59.3858V47.7679L60.2049 44.5207V49.5996C60.2049 50.0851 60.5983 50.4785 61.0838 50.4785ZM50.6664 46.2202L42.7523 43.2525L50.6664 40.2846L58.5805 43.2525L50.6664 46.2202Z" fill="white"/>
<path d="M49.7877 28.7727V35.0844C49.7877 35.5698 50.1811 35.9633 50.6666 35.9633C51.1521 35.9633 51.5455 35.5698 51.5455 35.0844V28.7727C53.5687 28.3638 55.0969 26.5722 55.0969 24.4303C55.0969 21.9874 53.1095 20 50.6666 20C48.2237 20 46.2363 21.9874 46.2363 24.4303C46.2363 26.5722 47.7645 28.3638 49.7877 28.7727ZM50.6666 21.7578C52.1401 21.7578 53.3391 22.9566 53.3391 24.4303C53.3391 25.9039 52.1401 27.1027 50.6666 27.1027C49.1931 27.1027 47.9941 25.9039 47.9941 24.4303C47.9941 22.9566 49.1931 21.7578 50.6666 21.7578Z" fill="white"/>
<path d="M67.575 60.8211C66.2129 60.8211 64.9541 61.2707 63.9388 62.0294L61.8349 59.9256C61.4916 59.5823 60.9351 59.5823 60.5919 59.9256C60.2487 60.2688 60.2487 60.8253 60.5919 61.1684L62.6959 63.2723C61.9372 64.2876 61.4876 65.5466 61.4876 66.9085C61.4876 70.2652 64.2185 72.9961 67.5751 72.9961C70.9317 72.9961 73.6626 70.2652 73.6626 66.9085C73.6626 63.5518 70.9317 60.8211 67.575 60.8211ZM67.575 71.2384C65.1875 71.2384 63.2453 69.296 63.2453 66.9086C63.2453 64.5213 65.1875 62.5789 67.575 62.5789C69.9625 62.5789 71.9047 64.5213 71.9047 66.9086C71.9047 69.296 69.9625 71.2384 67.575 71.2384Z" fill="white"/>
<path d="M33.7578 39.1789C35.1199 39.1789 36.3787 38.7293 37.394 37.9706L39.4979 40.0745C39.6696 40.246 39.8946 40.3319 40.1195 40.3319C40.3444 40.3319 40.5694 40.2461 40.741 40.0745C41.0843 39.7312 41.0843 39.1747 40.741 38.8316L38.6372 36.7277C39.3958 35.7124 39.8455 34.4534 39.8455 33.0915C39.8455 29.7348 37.1146 27.004 33.7579 27.004C30.4013 27.004 27.6704 29.7348 27.6704 33.0915C27.6704 36.4482 30.4011 39.1789 33.7578 39.1789ZM33.7578 28.7616C36.1453 28.7616 38.0876 30.704 38.0876 33.0914C38.0876 35.4787 36.1453 37.4211 33.7578 37.4211C31.3704 37.4211 29.4281 35.4787 29.4281 33.0914C29.4281 30.704 31.3704 28.7616 33.7578 28.7616Z" fill="white"/>
<path d="M51.5455 71.2273V64.9156C51.5455 64.4302 51.1521 64.0367 50.6666 64.0367C50.1811 64.0367 49.7877 64.4302 49.7877 64.9156V71.2273C47.7645 71.6362 46.2363 73.4278 46.2363 75.5697C46.2363 78.0126 48.2237 80 50.6666 80C53.1095 80 55.0969 78.0126 55.0969 75.5697C55.0969 73.4278 53.5687 71.6362 51.5455 71.2273ZM50.6666 78.2422C49.1931 78.2422 47.9941 77.0434 47.9941 75.5697C47.9941 74.0961 49.1931 72.8973 50.6666 72.8973C52.1401 72.8973 53.3391 74.0961 53.3391 75.5697C53.3391 77.0434 52.1401 78.2422 50.6666 78.2422Z" fill="white"/>
<path d="M76.2361 45.5697C74.0942 45.5697 72.3026 47.0979 71.8938 49.1211H65.582C65.0965 49.1211 64.7031 49.5146 64.7031 50C64.7031 50.4854 65.0965 50.8789 65.582 50.8789H71.8938C72.3026 52.9022 74.0942 54.4303 76.2361 54.4303C78.679 54.4303 80.6664 52.4429 80.6664 50C80.6664 47.5571 78.679 45.5697 76.2361 45.5697ZM76.2361 52.6725C74.7626 52.6725 73.5637 51.4736 73.5637 50C73.5637 48.5264 74.7625 47.3275 76.2361 47.3275C77.7098 47.3275 78.9086 48.5264 78.9086 50C78.9086 51.4736 77.7098 52.6725 76.2361 52.6725Z" fill="white"/>
<path d="M29.4392 50.8789H35.7509C36.2364 50.8789 36.6298 50.4854 36.6298 50C36.6298 49.5146 36.2364 49.1211 35.7509 49.1211H29.4392C29.0303 47.0979 27.2387 45.5697 25.0968 45.5697C22.6539 45.5697 20.6665 47.5571 20.6665 50C20.6665 52.4429 22.6539 54.4303 25.0968 54.4303C27.2387 54.4303 29.0303 52.9022 29.4392 50.8789ZM25.0968 52.6725C23.6231 52.6725 22.4243 51.4736 22.4243 50C22.4243 48.5264 23.6231 47.3275 25.0968 47.3275C26.5704 47.3275 27.7691 48.5264 27.7691 50C27.7691 51.4736 26.5703 52.6725 25.0968 52.6725Z" fill="white"/>
<path d="M61.2135 40.3319C61.4384 40.3319 61.6633 40.2461 61.835 40.0745L63.9389 37.9706C64.9542 38.7293 66.2132 39.1789 67.5751 39.1789C70.9318 39.1789 73.6626 36.4481 73.6626 33.0914C73.6626 29.7347 70.9317 27.0038 67.5751 27.0038C64.2185 27.0038 61.4876 29.7347 61.4876 33.0914C61.4876 34.4534 61.9372 35.7123 62.6959 36.7276L60.5919 38.8314C60.2487 39.1747 60.2487 39.7312 60.5919 40.0743C60.7636 40.2461 60.9886 40.3319 61.2135 40.3319ZM67.5751 28.7616C69.9626 28.7616 71.9048 30.704 71.9048 33.0914C71.9048 35.4787 69.9626 37.4211 67.5751 37.4211C65.1876 37.4211 63.2454 35.4787 63.2454 33.0914C63.2454 30.704 65.1876 28.7616 67.5751 28.7616Z" fill="white"/>
<path d="M39.498 59.9256L37.3942 62.0294C36.3788 61.2707 35.1199 60.8211 33.7579 60.8211C30.4012 60.8211 27.6704 63.5519 27.6704 66.9086C27.6704 70.2654 30.4013 72.9962 33.7579 72.9962C37.1146 72.9962 39.8455 70.2654 39.8455 66.9086C39.8455 65.5466 39.3958 64.2877 38.6372 63.2724L40.741 61.1686C41.0843 60.8253 41.0843 60.2688 40.741 59.9257C40.3978 59.5823 39.8414 59.5823 39.498 59.9256ZM33.7579 71.2384C31.3705 71.2384 29.4282 69.296 29.4282 66.9086C29.4282 64.5213 31.3705 62.5789 33.7579 62.5789C36.1454 62.5789 38.0877 64.5213 38.0877 66.9086C38.0877 69.296 36.1454 71.2384 33.7579 71.2384Z" fill="white"/>
</g>
<defs>
<clipPath id="clip0_175_90158">
<rect width="60" height="60" fill="white" transform="translate(20.6665 20)"/>
</clipPath>
</defs>
</svg>
