<svg width="101" height="100" viewBox="0 0 101 100" fill="none" xmlns="http://www.w3.org/2000/svg">
<rect x="0.666504" width="100" height="100" rx="12" fill="white"/>
<g clip-path="url(#clip0_175_90156)">
<path d="M80.2796 59.4805C80.2679 59.4453 80.2562 59.4102 80.2328 59.3633C79.3187 56.9258 76.9515 56.7734 74.7367 57.1953C68.4085 58.3789 62.0804 59.5742 55.764 60.7578C56.0335 59.2695 55.3421 57.6406 54.0648 56.8086C52.9867 56.1055 51.639 55.9414 50.4085 55.6953C47.5609 55.1328 44.5492 54.2305 41.6312 54.3008C37.1429 54.4063 33.2171 57.2891 28.8343 58.2266C28.8929 57.3242 28.014 56.5742 27.1117 56.4453C26.3031 56.3281 25.5296 56.5625 24.7679 56.8203C24.0296 57.0664 23.3031 57.3594 22.5882 57.6875C22.0492 57.9336 21.3695 58.1914 21.0296 58.707C20.5375 59.4336 20.9359 60.5469 21.1937 61.2734C23.0101 66.3477 24.8148 71.4453 26.6195 76.5313C27.1585 78.0547 27.9789 78.8164 29.6546 78.2656C30.4398 78.0078 31.2132 77.75 31.9984 77.5039C33.1585 77.1289 35.8187 75.8164 34.471 74.1406C36.7679 72.7813 39.6273 72.8399 42.264 73.2617C44.9007 73.6836 47.514 74.4453 50.1859 74.375C53.1742 74.293 56.0218 73.168 58.7992 72.0664C64.5882 69.7578 70.3773 67.4492 76.1664 65.1406C78.557 64.1797 81.3343 62.4922 80.2796 59.4805ZM32.6664 75.2539L28.8695 76.6016C28.7406 76.6484 28.6468 76.6133 28.6351 76.6016L22.6585 59.7383C22.6585 59.7148 22.7054 59.6211 22.846 59.5742L26.6429 58.2266C26.6898 58.2148 26.7367 58.2031 26.7718 58.2031C26.8421 58.2031 26.8773 58.2266 26.889 58.2266L27.4281 59.75L32.4203 73.8242C32.4203 73.8242 32.4203 73.8359 32.432 73.8359L32.8773 75.0899C32.8421 75.125 32.7953 75.207 32.6664 75.2539ZM77.4203 62.5977L54.2875 71.7734C52.471 72.4883 50.4906 72.7109 48.557 72.4063C45.8265 71.9727 43.1546 71.2344 40.389 71.082C38.0335 70.9531 36.0296 71.5391 33.85 72.3125C32.3968 68.2109 30.9437 64.0977 29.4906 59.9961L40.3304 56.1523C40.8578 55.9648 41.4203 55.9297 41.971 56.0234L42.0648 56.0469H42.0765L52.1078 57.8984C52.975 58.0625 53.7015 58.7539 53.9007 59.6211C54.2406 61.168 52.8578 62.5977 51.2992 62.3047L43.2601 60.8164C42.7562 60.7227 42.264 61.0625 42.1703 61.5664C42.0765 62.0703 42.4164 62.5625 42.9203 62.6563L50.9593 64.1445C52.3421 64.4024 53.8421 63.9102 54.8031 62.8203L76.3187 58.7773C77.2211 58.6133 78.1351 59.082 78.4984 59.9258C78.9671 60.9688 78.4632 62.1875 77.4203 62.5977ZM36.6859 40.7539H40.1781C40.389 41.4453 40.6703 42.125 41.0101 42.7695L38.5492 45.2305C37.9281 45.8516 37.9281 46.8594 38.5492 47.4805C38.5492 47.4805 40.9867 49.918 40.9984 49.9297C41.596 50.5273 42.6507 50.5391 43.2484 49.9297L45.721 47.457C46.3656 47.7969 47.0335 48.0781 47.725 48.2891V51.793C47.725 52.6602 48.4632 53.375 49.3187 53.375H52.7875C53.6429 53.375 54.3812 52.6367 54.3695 51.7813C54.3695 51.7813 54.3695 42.3125 54.3695 42.2656C54.3695 41.0117 53.0218 41.457 52.3421 41.6914C51.9437 41.832 51.4984 41.8906 51.0765 41.8906C48.6625 41.8906 46.5882 39.8633 46.5882 37.4492C46.6 35.9492 47.4085 34.4609 48.6742 33.6641C49.7992 32.9609 51.2054 32.7969 52.4593 33.2188C53.1273 33.4414 54.3578 33.8047 54.3578 32.6094C54.3578 32.6094 54.3578 23.1172 54.3578 23.1055C54.3578 22.25 53.6312 21.5 52.7757 21.5117C52.7757 21.5117 49.3187 21.5117 49.307 21.5117C48.4398 21.5117 47.7132 22.2383 47.725 23.1055V26.5977C47.0335 26.8086 46.3656 27.0898 45.721 27.4297L43.2484 24.957C42.6507 24.3594 41.6078 24.3359 40.9984 24.957L38.5609 27.3945C37.9515 28.0039 37.9398 29.0117 38.5609 29.6562L41.0218 32.1172C40.682 32.75 40.4007 33.4297 40.1898 34.1211L36.6859 34.1094C35.807 34.1211 35.1039 34.8359 35.1039 35.7031V39.1602C35.1156 40.0625 35.8539 40.7773 36.6859 40.7539ZM36.9671 35.9844C36.9671 35.9844 40.8929 35.9961 40.9046 35.9961C41.3382 35.9961 41.7132 35.6914 41.8187 35.2695C42.0531 34.2617 42.4398 33.3242 42.9789 32.4688C43.2132 32.1055 43.1546 31.625 42.85 31.3086L40.2015 28.6484L40.0726 28.5195L42.1117 26.4687L44.889 29.2578C45.1937 29.5625 45.6742 29.6211 46.0492 29.3867C46.9281 28.8477 47.8656 28.4492 48.8617 28.2148C49.2835 28.1211 49.5765 27.7344 49.5765 27.3008V23.3633H52.471V31.2734C52.471 30.957 50.0101 31.1797 49.7875 31.2266C46.9046 31.8008 44.7132 34.4961 44.6898 37.4258C44.6664 40.8125 47.6195 43.7422 51.0062 43.7422C51.4984 43.7422 51.9789 43.6953 52.4593 43.5781V51.5H49.5531V47.5742C49.5531 47.1406 49.2484 46.7656 48.8265 46.6602C47.8421 46.4258 46.8929 46.0391 46.014 45.5C45.6507 45.2656 45.1703 45.3242 44.8656 45.6289L42.1117 48.418L40.0609 46.3672L42.8382 43.5898C43.1429 43.2852 43.2015 42.8047 42.9671 42.4414C42.4164 41.5625 42.0296 40.6133 41.807 39.6172C41.7132 39.1953 41.3265 38.8906 40.8929 38.8906H36.9671V35.9844ZM60.3461 52.918C62.4203 52.918 64.1664 51.3594 64.6703 49.25C65.139 49.3672 65.6195 49.4258 66.1117 49.4258C69.8031 49.4258 72.8148 46.0977 72.8148 42.0078C72.8148 39.6992 71.8539 37.5547 70.2484 36.1719C71.2093 35.0117 71.7484 33.5 71.7484 31.8828C71.7484 28.3555 69.1586 25.4961 65.9711 25.4961C65.5609 25.4961 65.1625 25.543 64.7757 25.6367C64.4242 23.3047 62.5843 21.5234 60.3578 21.5234C57.8968 21.5234 55.8929 23.7266 55.8929 26.4336V48.0078C55.8812 50.7148 57.8851 52.918 60.3461 52.918ZM57.7796 26.4219C57.8265 25.6602 57.9906 24.9102 58.5296 24.3359C59.2328 23.5859 60.3109 23.2344 61.2836 23.6328C62.3734 24.0898 63.0062 25.3203 62.9593 26.4922C62.9007 27.6641 62.2562 28.7539 61.3773 29.5508C60.9085 29.9844 59.9828 30.7344 60.5336 31.4609C60.9203 31.9766 61.7523 31.7187 62.2796 31.332C63.2875 30.582 64.0609 29.5039 64.4476 28.3086C64.6351 27.7109 64.9515 27.4062 65.6078 27.3711C67.389 27.2539 69.0765 28.6016 69.639 30.2891C70.1781 31.918 69.7679 33.793 68.6546 35.0938C67.5414 36.3945 65.7836 37.0977 64.0843 36.9805C63.4164 36.9336 62.1976 36.7578 62.0336 37.6953C61.8929 38.5391 62.8304 38.8086 63.475 38.8672C65.3617 39.0312 67.3187 38.5039 68.8656 37.4023C70.5531 38.9023 71.3031 41.3633 70.764 43.5547C70.1312 46.0977 67.5179 48.2539 64.8226 47.3047C64.6468 45.9805 64.0023 44.7266 63.0296 43.8125C62.5375 43.3555 61.2718 42.7461 60.932 43.7422C60.7445 44.3164 61.307 44.832 61.7406 45.2539C62.4437 45.957 62.9359 46.8945 62.9828 47.8906C63.0882 50.0938 60.475 52.1328 58.6468 50.2695C57.7679 49.3672 57.7562 47.9492 57.7562 46.7656C57.7562 41.2578 57.7562 35.75 57.7562 30.2422C57.7328 28.9883 57.6976 27.6875 57.7796 26.4219Z" fill="#29102D"/>
</g>
<defs>
<clipPath id="clip0_175_90156">
<rect width="60" height="60" fill="white" transform="translate(20.6665 20)"/>
</clipPath>
</defs>
</svg>
