<svg width="101" height="100" viewBox="0 0 101 100" fill="none" xmlns="http://www.w3.org/2000/svg">
<rect x="0.666016" width="100" height="100" rx="12" fill="#29102D"/>
<path d="M59.1035 49.0625C58.3618 49.0625 57.6368 49.2824 57.0201 49.6945C56.4034 50.1065 55.9228 50.6922 55.639 51.3774C55.3551 52.0627 55.2809 52.8167 55.4256 53.5441C55.5703 54.2715 55.9274 54.9397 56.4519 55.4641C56.9763 55.9886 57.6445 56.3458 58.3719 56.4904C59.0994 56.6351 59.8534 56.5609 60.5386 56.277C61.2238 55.9932 61.8095 55.5126 62.2215 54.8959C62.6336 54.2792 62.8535 53.5542 62.8535 52.8125C62.8535 51.8179 62.4584 50.8641 61.7552 50.1609C61.0519 49.4576 60.0981 49.0625 59.1035 49.0625ZM59.1035 54.6875C58.7327 54.6875 58.3702 54.5775 58.0618 54.3715C57.7535 54.1655 57.5132 53.8726 57.3712 53.53C57.2293 53.1874 57.1922 52.8104 57.2645 52.4467C57.3369 52.083 57.5155 51.7489 57.7777 51.4867C58.0399 51.2244 58.374 51.0459 58.7377 50.9735C59.1014 50.9012 59.4784 50.9383 59.821 51.0802C60.1637 51.2221 60.4565 51.4625 60.6625 51.7708C60.8686 52.0791 60.9785 52.4417 60.9785 52.8125C60.9785 53.3098 60.781 53.7867 60.4293 54.1383C60.0777 54.49 59.6008 54.6875 59.1035 54.6875Z" fill="white"/>
<path d="M73.166 38.75H72.1535C72.2064 38.4404 72.2315 38.1266 72.2285 37.8125C72.2265 36.0726 71.5345 34.4046 70.3042 33.1743C69.0739 31.944 67.4059 31.252 65.666 31.25C64.2802 31.2452 62.9295 31.6856 61.8129 32.5063C60.5441 31.2025 58.9526 30.2579 57.2004 29.7688C57.062 28.1298 56.314 26.6024 55.1042 25.488C53.8944 24.3737 52.3108 23.7536 50.666 23.75C49.2802 23.7452 47.9295 24.1856 46.8129 25.0063C45.439 23.59 43.6877 22.5976 41.7668 22.1469C39.8458 21.6961 37.8359 21.8059 35.9754 22.4632C34.115 23.1205 32.4822 24.2978 31.2708 25.8552C30.0594 27.4127 29.3202 29.285 29.141 31.25H28.166C26.6742 31.25 25.2434 31.8426 24.1885 32.8975C23.1336 33.9524 22.541 35.3832 22.541 36.875C22.541 38.3668 23.1336 39.7976 24.1885 40.8525C25.2434 41.9074 26.6742 42.5 28.166 42.5H37.8691C37.5657 43.3479 37.4709 44.2564 37.5927 45.1486C37.7145 46.0409 38.0493 46.8908 38.5688 47.6263C39.0883 48.3619 39.7772 48.9616 40.5774 49.3748C41.3776 49.7879 42.2655 50.0024 43.166 50H51.491L51.3785 50.0281C51.1753 50.0784 50.9947 50.1952 50.8656 50.36C50.7364 50.5248 50.6662 50.7281 50.666 50.9375V51.875H27.2285C26.7098 51.874 26.2009 52.0172 25.7589 52.2888C25.3169 52.5603 24.959 52.9493 24.7254 53.4125C24.5253 53.808 24.4194 54.2443 24.416 54.6875V72.5H23.591C23.4548 72.5007 23.3205 72.5311 23.1972 72.5891C23.074 72.647 22.9649 72.7311 22.8774 72.8355C22.79 72.9399 22.7263 73.0621 22.6909 73.1936C22.6555 73.3251 22.6491 73.4627 22.6723 73.5969L23.1035 75.9969C23.1043 76.032 23.1107 76.0668 23.1223 76.1C23.2955 76.6826 23.6515 77.1939 24.1377 77.5586C24.6239 77.9233 25.2145 78.1218 25.8223 78.125H58.6348C59.2425 78.1218 59.8331 77.9233 60.3193 77.5586C60.8055 77.1939 61.1616 76.6826 61.3348 76.1C61.3464 76.0668 61.3527 76.032 61.3535 75.9969L61.7848 73.5969C61.8079 73.4627 61.8016 73.3251 61.7661 73.1936C61.7307 73.0621 61.667 72.9399 61.5796 72.8355C61.4922 72.7311 61.383 72.647 61.2598 72.5891C61.1366 72.5311 61.0022 72.5007 60.866 72.5H60.041V61.25H60.9785C61.1879 61.2498 61.3912 61.1796 61.556 61.0505C61.7208 60.9213 61.8376 60.7408 61.8879 60.5375L62.0473 59.9094L62.6004 60.2469C62.7795 60.3541 62.9892 60.3985 63.1964 60.373C63.4036 60.3476 63.5964 60.2537 63.7441 60.1063L66.3973 57.4531C66.5447 57.3054 66.6386 57.1126 66.6641 56.9054C66.6895 56.6982 66.6451 56.4885 66.5379 56.3094L66.2004 55.7563L66.8285 55.5969C67.0318 55.5466 67.2124 55.4298 67.3415 55.265C67.4706 55.1002 67.5409 54.8969 67.541 54.6875V50.9375C67.5409 50.7281 67.4706 50.5248 67.3415 50.36C67.2124 50.1952 67.0318 50.0784 66.8285 50.0281L66.716 50H73.166C74.6579 50 76.0886 49.4074 77.1435 48.3525C78.1984 47.2976 78.791 45.8668 78.791 44.375C78.791 42.8832 78.1984 41.4524 77.1435 40.3975C76.0886 39.3426 74.6579 38.75 73.166 38.75ZM38.9848 40.625H28.166C27.1715 40.625 26.2176 40.2299 25.5144 39.5267C24.8111 38.8234 24.416 37.8696 24.416 36.875C24.416 35.8804 24.8111 34.9266 25.5144 34.2234C26.2176 33.5201 27.1715 33.125 28.166 33.125H30.041C30.2897 33.125 30.5281 33.0262 30.7039 32.8504C30.8797 32.6746 30.9785 32.4361 30.9785 32.1875C30.9794 30.4418 31.5217 28.7393 32.5308 27.3147C33.5399 25.8901 34.966 24.8136 36.6125 24.2335C38.2591 23.6535 40.045 23.5985 41.7242 24.076C43.4033 24.5536 44.893 25.5403 45.9879 26.9C46.0719 27.0019 46.176 27.0853 46.2938 27.145C46.4116 27.2047 46.5404 27.2394 46.6723 27.2469C46.8019 27.2527 46.9313 27.2315 47.0524 27.1847C47.1734 27.1379 47.2834 27.0665 47.3754 26.975C47.9785 26.3794 48.732 25.9588 49.5555 25.7581C50.3789 25.5574 51.2415 25.584 52.051 25.8352C52.8605 26.0865 53.5866 26.5528 54.1517 27.1845C54.7169 27.8162 55.0998 28.5895 55.2598 29.4219C54.9785 29.3938 54.6973 29.375 54.416 29.375C51.8436 29.378 49.3648 30.3405 47.4645 32.0744C45.5642 33.8082 44.3791 36.1886 44.141 38.75H43.166C42.3765 38.7516 41.5962 38.9194 40.8758 39.2424C40.1554 39.5655 39.5111 40.0365 38.9848 40.625ZM26.291 54.6875C26.294 54.541 26.3292 54.397 26.3941 54.2656C26.471 54.1102 26.59 53.9795 26.7375 53.8883C26.885 53.7972 27.0551 53.7492 27.2285 53.75H50.666V54.6875C50.6662 54.8969 50.7364 55.1002 50.8656 55.265C50.9947 55.4298 51.1753 55.5466 51.3785 55.5969L52.0066 55.7563L51.6691 56.3094C51.5619 56.4885 51.5175 56.6982 51.543 56.9054C51.5684 57.1126 51.6623 57.3054 51.8098 57.4531L54.4629 60.1063C54.6107 60.2537 54.8034 60.3476 55.0106 60.373C55.2178 60.3985 55.4276 60.3541 55.6066 60.2469L56.1598 59.9094L56.3191 60.5375C56.3694 60.7408 56.4862 60.9213 56.651 61.0505C56.8158 61.1796 57.0191 61.2498 57.2285 61.25H58.166V72.5H45.041C44.7924 72.5 44.5539 72.5988 44.3781 72.7746C44.2023 72.9504 44.1035 73.1889 44.1035 73.4375H40.3535C40.3535 73.1889 40.2547 72.9504 40.0789 72.7746C39.9031 72.5988 39.6647 72.5 39.416 72.5H26.291V54.6875ZM59.5254 75.6125C59.4608 75.7976 59.3406 75.9583 59.1811 76.0724C59.0217 76.1865 58.8308 76.2486 58.6348 76.25H25.8223C25.6262 76.2486 25.4354 76.1865 25.2759 76.0724C25.1165 75.9583 24.9962 75.7976 24.9316 75.6125L24.716 74.375H38.4785C38.4785 74.6236 38.5773 74.8621 38.7531 75.0379C38.9289 75.2137 39.1674 75.3125 39.416 75.3125H45.041C45.2897 75.3125 45.5281 75.2137 45.7039 75.0379C45.8797 74.8621 45.9785 74.6236 45.9785 74.375H59.741L59.5254 75.6125ZM65.666 53.9563L64.5223 54.2375C64.3804 54.2739 64.2489 54.3429 64.1383 54.4389C64.0276 54.5349 63.9408 54.6553 63.8848 54.7906C63.8288 54.9262 63.8047 55.0728 63.8144 55.2191C63.8242 55.3654 63.8675 55.5075 63.941 55.6344L64.5504 56.6469L62.9379 58.2594L61.9254 57.65C61.7985 57.5765 61.6564 57.5332 61.5101 57.5234C61.3638 57.5137 61.2172 57.5377 61.0816 57.5938C60.9463 57.6498 60.8259 57.7366 60.7299 57.8472C60.6339 57.9579 60.5649 58.0894 60.5285 58.2313L60.2473 59.375H57.9598L57.6785 58.2313C57.6421 58.0894 57.5732 57.9579 57.4772 57.8472C57.3812 57.7366 57.2607 57.6498 57.1254 57.5938C56.9899 57.5377 56.8433 57.5137 56.697 57.5234C56.5506 57.5332 56.4085 57.5765 56.2816 57.65L55.2691 58.2594L53.6566 56.6469L54.266 55.6344C54.3395 55.5075 54.3828 55.3654 54.3926 55.2191C54.4023 55.0728 54.3783 54.9262 54.3223 54.7906C54.2662 54.6553 54.1794 54.5349 54.0688 54.4389C53.9581 54.3429 53.8267 54.2739 53.6848 54.2375L52.541 53.9563V51.6688L53.6848 51.3875C53.8267 51.3511 53.9581 51.2821 54.0688 51.1861C54.1794 51.0901 54.2662 50.9697 54.3223 50.8344C54.3783 50.6989 54.4023 50.5523 54.3926 50.4059C54.3828 50.2596 54.3395 50.1175 54.266 49.9906L53.6566 48.9781L55.2691 47.3656L56.2816 47.9656C56.407 48.0427 56.5489 48.0889 56.6956 48.1003C56.8423 48.1117 56.9896 48.0881 57.1254 48.0313C57.2607 47.9752 57.3812 47.8884 57.4772 47.7778C57.5732 47.6671 57.6421 47.5356 57.6785 47.3938L57.9598 46.25H60.2473L60.5285 47.3938C60.5649 47.5356 60.6339 47.6671 60.7299 47.7778C60.8259 47.8884 60.9463 47.9752 61.0816 48.0313C61.2174 48.0881 61.3647 48.1117 61.5114 48.1003C61.6582 48.0889 61.8 48.0427 61.9254 47.9656L62.9379 47.3656L64.5504 48.9781L63.941 49.9906C63.8675 50.1175 63.8242 50.2596 63.8144 50.4059C63.8047 50.5523 63.8288 50.6989 63.8848 50.8344C63.9408 50.9697 64.0276 51.0901 64.1383 51.1861C64.2489 51.2821 64.3804 51.3511 64.5223 51.3875L65.666 51.6688V53.9563ZM73.166 48.125H66.3504L63.7441 45.5188C63.5964 45.3713 63.4036 45.2774 63.1964 45.252C62.9892 45.2265 62.7795 45.2709 62.6004 45.3781L62.0473 45.7156L61.8879 45.0875C61.8376 44.8842 61.7208 44.7037 61.556 44.5745C61.3912 44.4454 61.1879 44.3752 60.9785 44.375H57.2285C57.0191 44.3752 56.8158 44.4454 56.651 44.5745C56.4862 44.7037 56.3694 44.8842 56.3191 45.0875L56.1598 45.7156L55.6066 45.3781C55.4276 45.2709 55.2178 45.2265 55.0106 45.252C54.8034 45.2774 54.6107 45.3713 54.4629 45.5188L51.8566 48.125H43.166C42.1715 48.125 41.2176 47.7299 40.5144 47.0267C39.8111 46.3234 39.416 45.3696 39.416 44.375C39.416 43.3804 39.8111 42.4266 40.5144 41.7234C41.2176 41.0201 42.1715 40.625 43.166 40.625H45.041C45.2897 40.625 45.5281 40.5262 45.7039 40.3504C45.8797 40.1746 45.9785 39.9361 45.9785 39.6875C45.9794 37.9418 46.5217 36.2393 47.5308 34.8147C48.5399 33.3901 49.966 32.3136 51.6125 31.7335C53.2591 31.1535 55.045 31.0985 56.7242 31.576C58.4033 32.0536 59.893 33.0403 60.9879 34.4C61.0719 34.5019 61.176 34.5853 61.2938 34.645C61.4116 34.7047 61.5404 34.7394 61.6723 34.7469C61.8019 34.7527 61.9313 34.7315 62.0524 34.6847C62.1734 34.6379 62.2834 34.5665 62.3754 34.475C63.0336 33.8262 63.8688 33.3865 64.7762 33.2111C65.6835 33.0356 66.6225 33.1323 67.475 33.489C68.3276 33.8456 69.0557 34.4463 69.5679 35.2156C70.08 35.9849 70.3534 36.8883 70.3535 37.8125C70.3491 38.3457 70.2573 38.8746 70.0816 39.3781C70.032 39.5192 70.0163 39.6699 70.0358 39.8181C70.0554 39.9664 70.1096 40.1079 70.1941 40.2313C70.2828 40.3522 70.3985 40.4507 70.5319 40.5191C70.6654 40.5874 70.813 40.6237 70.9629 40.625H73.166C74.1606 40.625 75.1144 41.0201 75.8177 41.7234C76.5209 42.4266 76.916 43.3804 76.916 44.375C76.916 45.3696 76.5209 46.3234 75.8177 47.0267C75.1144 47.7299 74.1606 48.125 73.166 48.125Z" fill="white"/>
<path d="M72.2285 63.125C72.2285 63.8709 71.9322 64.5863 71.4048 65.1137C70.8773 65.6412 70.1619 65.9375 69.416 65.9375H61.916V67.8125H69.416C70.6588 67.811 71.8502 67.3167 72.7289 66.4379C73.6077 65.5592 74.102 64.3677 74.1035 63.125V51.875H72.2285V63.125Z" fill="white"/>
<path d="M43.166 62.1875H41.291V64.0625H43.166V62.1875Z" fill="white"/>
<path d="M46.916 62.1875H45.041V64.0625H46.916V62.1875Z" fill="white"/>
<path d="M39.416 62.1875H37.541V64.0625H39.416V62.1875Z" fill="white"/>
</svg>
