<svg width="100" height="100" viewBox="0 0 100 100" fill="none" xmlns="http://www.w3.org/2000/svg">
<rect width="100" height="100" rx="12" fill="white"/>
<g clip-path="url(#clip0_1282_8761)">
<path d="M60.4174 50.4785C60.9029 50.4785 61.2963 50.085 61.2963 49.5996V43.2524C61.2963 42.886 61.0691 42.558 60.7261 42.4295L50.3087 38.523C50.1096 38.4484 49.8906 38.4484 49.6914 38.523L39.274 42.4295C38.931 42.5581 38.7037 42.886 38.7037 43.2524V46.0742C38.7037 46.5596 39.0971 46.9531 39.5826 46.9531C40.0681 46.9531 40.4615 46.5596 40.4615 46.0742V44.5207L49.1211 47.768V59.3858L40.4615 56.1385V50.1856C40.4615 49.7003 40.0681 49.3067 39.5826 49.3067C39.0971 49.3067 38.7037 49.7003 38.7037 50.1856V56.7477C38.7037 57.114 38.931 57.442 39.274 57.5706L49.6914 61.477C49.6915 61.4763 49.6917 61.4754 49.6918 61.4746C49.7908 61.5117 49.8949 61.5329 50.0001 61.5329C50.1041 61.5329 50.2086 61.5145 50.3087 61.4769L60.7261 57.5705C61.0691 57.4418 61.2963 57.1139 61.2963 56.7476V53.6962C61.2963 53.2108 60.9029 52.8173 60.4174 52.8173C59.9319 52.8173 59.5385 53.2108 59.5385 53.6962V56.1384L50.8789 59.3858V47.768L59.5385 44.5207V49.5996C59.5385 50.0851 59.9319 50.4785 60.4174 50.4785ZM50 46.2203L42.0859 43.2525L50 40.2846L57.9142 43.2525L50 46.2203Z" fill="#29102D"/>
<path d="M49.1211 28.7727V35.0844C49.1211 35.5698 49.5145 35.9633 50 35.9633C50.4855 35.9633 50.8789 35.5698 50.8789 35.0844V28.7727C52.9021 28.3638 54.4302 26.5722 54.4302 24.4303C54.4302 21.9874 52.4429 20 50 20C47.5571 20 45.5697 21.9874 45.5697 24.4303C45.5697 26.5722 47.0978 28.3638 49.1211 28.7727ZM50 21.7578C51.4735 21.7578 52.6724 22.9566 52.6724 24.4303C52.6724 25.9039 51.4735 27.1027 50 27.1027C48.5265 27.1027 47.3275 25.9039 47.3275 24.4303C47.3275 22.9566 48.5265 21.7578 50 21.7578Z" fill="#29102D"/>
<path d="M66.9086 60.8211C65.5465 60.8211 64.2877 61.2707 63.2724 62.0294L61.1685 59.9255C60.8252 59.5823 60.2688 59.5823 59.9255 59.9255C59.5823 60.2688 59.5823 60.8253 59.9255 61.1684L62.0295 63.2723C61.2708 64.2876 60.8212 65.5465 60.8212 66.9085C60.8212 70.2652 63.5521 72.996 66.9087 72.996C70.2653 72.996 72.9963 70.2652 72.9963 66.9085C72.9963 63.5518 70.2653 60.8211 66.9086 60.8211ZM66.9086 71.2383C64.5211 71.2383 62.5789 69.296 62.5789 66.9086C62.5789 64.5213 64.5211 62.5789 66.9086 62.5789C69.2961 62.5789 71.2383 64.5213 71.2383 66.9086C71.2383 69.296 69.2961 71.2383 66.9086 71.2383Z" fill="#29102D"/>
<path d="M33.0914 39.1789C34.4535 39.1789 35.7123 38.7292 36.7276 37.9705L38.8315 40.0744C39.0031 40.246 39.2281 40.3319 39.453 40.3319C39.6779 40.3319 39.9029 40.2461 40.0746 40.0744C40.4178 39.7312 40.4178 39.1746 40.0746 38.8315L37.9707 36.7277C38.7294 35.7123 39.179 34.4534 39.179 33.0914C39.179 29.7347 36.4481 27.0039 33.0915 27.0039C29.7349 27.0039 27.004 29.7347 27.004 33.0914C27.004 36.4482 29.7347 39.1789 33.0914 39.1789ZM33.0914 28.7616C35.4789 28.7616 37.4211 30.704 37.4211 33.0913C37.4211 35.4787 35.4789 37.4211 33.0914 37.4211C30.7039 37.4211 28.7617 35.4787 28.7617 33.0913C28.7617 30.704 30.7039 28.7616 33.0914 28.7616Z" fill="#29102D"/>
<path d="M50.8789 71.2274V64.9156C50.8789 64.4303 50.4855 64.0367 50 64.0367C49.5145 64.0367 49.1211 64.4303 49.1211 64.9156V71.2274C47.0978 71.6362 45.5697 73.4278 45.5697 75.5698C45.5697 78.0126 47.5571 80 50 80C52.4429 80 54.4302 78.0126 54.4302 75.5698C54.4302 73.4278 52.9021 71.6362 50.8789 71.2274ZM50 78.2422C48.5265 78.2422 47.3275 77.0434 47.3275 75.5698C47.3275 74.0961 48.5265 72.8973 50 72.8973C51.4735 72.8973 52.6724 74.0961 52.6724 75.5698C52.6724 77.0434 51.4735 78.2422 50 78.2422Z" fill="#29102D"/>
<path d="M75.5698 45.5697C73.4278 45.5697 71.6362 47.0978 71.2274 49.1211H64.9156C64.4301 49.1211 64.0367 49.5146 64.0367 50C64.0367 50.4854 64.4301 50.8789 64.9156 50.8789H71.2274C71.6362 52.9021 73.4278 54.4302 75.5698 54.4302C78.0126 54.4302 80 52.4429 80 50C80 47.5571 78.0126 45.5697 75.5698 45.5697ZM75.5698 52.6724C74.0962 52.6724 72.8973 51.4736 72.8973 50C72.8973 48.5263 74.0961 47.3275 75.5698 47.3275C77.0434 47.3275 78.2422 48.5263 78.2422 50C78.2422 51.4736 77.0434 52.6724 75.5698 52.6724Z" fill="#29102D"/>
<path d="M28.7727 50.8789H35.0844C35.5699 50.8789 35.9633 50.4854 35.9633 50C35.9633 49.5146 35.5699 49.1211 35.0844 49.1211H28.7727C28.3638 47.0978 26.5722 45.5697 24.4303 45.5697C21.9874 45.5697 20 47.5571 20 50C20 52.4429 21.9874 54.4302 24.4303 54.4302C26.5722 54.4302 28.3638 52.9021 28.7727 50.8789ZM24.4303 52.6724C22.9566 52.6724 21.7578 51.4736 21.7578 50C21.7578 48.5263 22.9566 47.3275 24.4303 47.3275C25.9039 47.3275 27.1026 48.5263 27.1026 50C27.1026 51.4736 25.9038 52.6724 24.4303 52.6724Z" fill="#29102D"/>
<path d="M60.547 40.3319C60.7718 40.3319 60.9968 40.2461 61.1685 40.0744L63.2724 37.9705C64.2877 38.7292 65.5466 39.1789 66.9086 39.1789C70.2653 39.1789 72.9961 36.448 72.9961 33.0913C72.9961 29.7346 70.2652 27.0038 66.9086 27.0038C63.552 27.0038 60.8211 29.7346 60.8211 33.0913C60.8211 34.4534 61.2707 35.7122 62.0294 36.7275L59.9254 38.8314C59.5822 39.1746 59.5822 39.7312 59.9254 40.0743C60.0971 40.2461 60.3221 40.3319 60.547 40.3319ZM66.9086 28.7616C69.2961 28.7616 71.2383 30.704 71.2383 33.0913C71.2383 35.4787 69.2961 37.4211 66.9086 37.4211C64.5211 37.4211 62.5789 35.4787 62.5789 33.0913C62.5789 30.704 64.5211 28.7616 66.9086 28.7616Z" fill="#29102D"/>
<path d="M38.8315 59.9255L36.7276 62.0294C35.7123 61.2707 34.4533 60.8211 33.0914 60.8211C29.7347 60.8211 27.0038 63.5519 27.0038 66.9086C27.0038 70.2653 29.7348 72.9961 33.0914 72.9961C36.448 72.9961 39.1789 70.2653 39.1789 66.9086C39.1789 65.5465 38.7293 64.2877 37.9706 63.2724L40.0745 61.1685C40.4177 60.8253 40.4177 60.2688 40.0745 59.9256C39.7312 59.5823 39.1748 59.5823 38.8315 59.9255ZM33.0914 71.2383C30.7039 71.2383 28.7617 69.2959 28.7617 66.9086C28.7617 64.5212 30.7039 62.5789 33.0914 62.5789C35.4788 62.5789 37.4211 64.5212 37.4211 66.9086C37.4211 69.2959 35.4788 71.2383 33.0914 71.2383Z" fill="#29102D"/>
</g>
<defs>
<clipPath id="clip0_1282_8761">
<rect width="60" height="60" fill="white" transform="translate(20 20)"/>
</clipPath>
</defs>
</svg>
