<svg width="101" height="100" viewBox="0 0 101 100" fill="none" xmlns="http://www.w3.org/2000/svg">
<rect x="0.666504" width="100" height="100" rx="12" fill="#29102D"/>
<g clip-path="url(#clip0_202_20039)">
<path d="M77.1509 57.7423H74.3384V52.1094C74.3369 50.8045 73.8179 49.5534 72.8951 48.6307C71.9724 47.708 70.7214 47.189 69.4165 47.1875H52.7759V43.4375H66.3696C67.3017 43.4365 68.1954 43.0658 68.8545 42.4067C69.5135 41.7476 69.8843 40.854 69.8853 39.9219V23.5156C69.8843 22.5835 69.5135 21.6899 68.8545 21.0308C68.1954 20.3717 67.3017 20.001 66.3696 20H34.9634C34.0313 20.001 33.1376 20.3717 32.4786 21.0308C31.8195 21.6899 31.4487 22.5835 31.4478 23.5156V39.9219C31.4487 40.854 31.8195 41.7476 32.4786 42.4067C33.1376 43.0658 34.0313 43.4365 34.9634 43.4375H48.5571V47.1875H31.9165C30.6116 47.189 29.3606 47.708 28.4379 48.6307C27.5151 49.5534 26.9961 50.8045 26.9946 52.1094V57.7423H24.1821C23.25 57.7433 22.3564 58.1141 21.6973 58.7731C21.0382 59.4322 20.6675 60.3259 20.6665 61.258V76.4844C20.6675 77.4165 21.0382 78.3101 21.6973 78.9692C22.3564 79.6283 23.25 79.999 24.1821 80H34.0259C34.958 79.999 35.8516 79.6283 36.5107 78.9692C37.1698 78.3101 37.5405 77.4165 37.5415 76.4844V61.258C37.5405 60.3259 37.1698 59.4322 36.5107 58.7731C35.8516 58.1141 34.958 57.7433 34.0259 57.7423H31.2134V52.1094C31.2134 51.9229 31.2875 51.7441 31.4193 51.6122C31.5512 51.4803 31.73 51.4062 31.9165 51.4062H48.5571V57.7423H45.7446C44.8125 57.7433 43.9189 58.1141 43.2598 58.7731C42.6007 59.4322 42.23 60.3259 42.229 61.258V76.4844C42.23 77.4165 42.6007 78.3101 43.2598 78.9692C43.9189 79.6283 44.8125 79.999 45.7446 80H55.5884C56.5205 79.999 57.4141 79.6283 58.0732 78.9692C58.7323 78.3101 59.103 77.4165 59.104 76.4844V61.258C59.103 60.3259 58.7323 59.4322 58.0732 58.7731C57.4141 58.1141 56.5205 57.7433 55.5884 57.7423H52.7759V51.4062H69.4165C69.603 51.4062 69.7818 51.4803 69.9137 51.6122C70.0456 51.7441 70.1196 51.9229 70.1196 52.1094V57.7423H67.3071C66.375 57.7433 65.4814 58.1141 64.8223 58.7731C64.1632 59.4322 63.7925 60.3259 63.7915 61.258V76.4844C63.7925 77.4165 64.1632 78.3101 64.8223 78.9692C65.4814 79.6283 66.375 79.999 67.3071 80H77.1509C78.083 79.999 78.9766 79.6283 79.6357 78.9692C80.2948 78.3101 80.6655 77.4165 80.6665 76.4844V61.258C80.6655 60.3259 80.2948 59.4322 79.6357 58.7731C78.9766 58.1141 78.083 57.7433 77.1509 57.7423ZM34.9634 42.0312C34.4041 42.0306 33.868 41.8082 33.4725 41.4127C33.0771 41.0173 32.8546 40.4811 32.854 39.9219V23.5156C32.8546 22.9564 33.0771 22.4202 33.4725 22.0248C33.868 21.6293 34.4041 21.4069 34.9634 21.4062H66.3696C66.9289 21.4069 67.465 21.6293 67.8605 22.0248C68.2559 22.4202 68.4784 22.9564 68.479 23.5156V39.9219C68.4784 40.4811 68.2559 41.0173 67.8605 41.4127C67.465 41.8082 66.9289 42.0306 66.3696 42.0312H34.9634ZM34.0259 59.1486C34.5851 59.1492 35.1213 59.3717 35.5167 59.7671C35.9122 60.1625 36.1346 60.6987 36.1353 61.258V76.4844C36.1346 77.0436 35.9122 77.5798 35.5167 77.9752C35.1213 78.3707 34.5851 78.5931 34.0259 78.5938H24.1821C23.6229 78.5931 23.0867 78.3707 22.6913 77.9752C22.2958 77.5798 22.0734 77.0436 22.0728 76.4844V61.258C22.0734 60.6987 22.2958 60.1625 22.6913 59.7671C23.0867 59.3717 23.6229 59.1492 24.1821 59.1486H34.0259ZM55.5884 59.1486C56.1476 59.1492 56.6838 59.3717 57.0792 59.7671C57.4747 60.1625 57.6971 60.6987 57.6978 61.258V76.4844C57.6971 77.0436 57.4747 77.5798 57.0792 77.9752C56.6838 78.3707 56.1476 78.5931 55.5884 78.5938H45.7446C45.1854 78.5931 44.6492 78.3707 44.2538 77.9752C43.8583 77.5798 43.6359 77.0436 43.6353 76.4844V61.258C43.6359 60.6987 43.8583 60.1625 44.2538 59.7671C44.6492 59.3717 45.1854 59.1492 45.7446 59.1486H55.5884ZM69.4165 50H52.0728C51.8863 50 51.7074 50.0741 51.5756 50.2059C51.4437 50.3378 51.3696 50.5166 51.3696 50.7031V57.7423H49.9634V50.7031C49.9634 50.5166 49.8893 50.3378 49.7574 50.2059C49.6256 50.0741 49.4467 50 49.2603 50H31.9165C31.3573 50.0006 30.8211 50.2231 30.4256 50.6185C30.0302 51.014 29.8077 51.5501 29.8071 52.1094V57.7423H28.4009V52.1094C28.4019 51.1773 28.7726 50.2836 29.4317 49.6245C30.0908 48.9655 30.9844 48.5947 31.9165 48.5938H49.2603C49.4467 48.5938 49.6256 48.5197 49.7574 48.3878C49.8893 48.2559 49.9634 48.0771 49.9634 47.8906V43.4375H51.3696V47.8906C51.3696 48.0771 51.4437 48.2559 51.5756 48.3878C51.7074 48.5197 51.8863 48.5938 52.0728 48.5938H69.4165C70.3486 48.5947 71.2422 48.9655 71.9013 49.6245C72.5604 50.2836 72.9311 51.1773 72.9321 52.1094V57.7423H71.5259V52.1094C71.5253 51.5501 71.3028 51.014 70.9074 50.6185C70.5119 50.2231 69.9758 50.0006 69.4165 50ZM79.2603 76.4844C79.2596 77.0436 79.0372 77.5798 78.6417 77.9752C78.2463 78.3707 77.7101 78.5931 77.1509 78.5938H67.3071C66.7479 78.5931 66.2117 78.3707 65.8163 77.9752C65.4208 77.5798 65.1984 77.0436 65.1978 76.4844V61.258C65.1984 60.6987 65.4208 60.1625 65.8163 59.7671C66.2117 59.3717 66.7479 59.1492 67.3071 59.1486H77.1509C77.7101 59.1492 78.2463 59.3717 78.6417 59.7671C79.0372 60.1625 79.2596 60.6987 79.2603 61.258V76.4844Z" fill="white"/>
<path d="M43.3798 31.7188L45.6298 28.8997C45.9814 28.4515 46.1436 27.8834 46.0815 27.3171C46.0193 26.7509 45.7379 26.2314 45.2974 25.8702C44.8456 25.5194 44.2751 25.358 43.7064 25.4203C43.1378 25.4826 42.6157 25.7636 42.2506 26.2039L38.9262 30.372C38.6194 30.7541 38.4521 31.2294 38.4521 31.7195C38.4521 32.2095 38.6194 32.6848 38.9262 33.0669L42.2412 37.2223C42.4161 37.4489 42.6342 37.6385 42.8829 37.7801C43.1316 37.9217 43.406 38.0125 43.6901 38.0473C43.9742 38.082 44.2624 38.06 44.5379 37.9825C44.8134 37.905 45.0708 37.7736 45.2952 37.5958C45.5195 37.4181 45.7063 37.1975 45.8447 36.947C45.9832 36.6965 46.0705 36.421 46.1016 36.1365C46.1327 35.852 46.107 35.5641 46.0261 35.2896C45.9451 35.0151 45.8104 34.7594 45.6298 34.5373L43.3798 31.7188ZM44.3998 36.4822C44.2413 36.5988 44.0443 36.6506 43.8489 36.627C43.6535 36.6034 43.4745 36.5062 43.3484 36.3552L40.0263 32.1875C39.9193 32.0539 39.8609 31.8878 39.8609 31.7166C39.8609 31.5454 39.9193 31.3794 40.0263 31.2458L43.3596 27.0669C43.4886 26.9186 43.6691 26.8249 43.8646 26.8048C44.0601 26.7847 44.256 26.8397 44.4124 26.9586C44.5674 27.0847 44.6667 27.2666 44.6889 27.4651C44.7112 27.6637 44.6547 27.863 44.5315 28.0203L41.9332 31.2777C41.8338 31.4022 41.7797 31.5568 41.7797 31.7162C41.7797 31.8755 41.8338 32.0301 41.9332 32.1547L44.5315 35.4116C44.6554 35.5712 44.7111 35.7734 44.6864 35.974C44.6618 36.1746 44.5587 36.3573 44.3998 36.4822Z" fill="white"/>
<path d="M59.0822 26.2119C58.7257 25.763 58.2055 25.474 57.636 25.4087C57.0665 25.3433 56.4943 25.5069 56.0454 25.8634C55.5965 26.2199 55.3076 26.7401 55.2422 27.3096C55.1768 27.8791 55.3404 28.4512 55.6969 28.9002L57.9506 31.7188L55.6969 34.5313C55.3403 34.9773 55.1747 35.5462 55.2362 36.1139C55.2977 36.6816 55.5813 37.2019 56.025 37.5613C56.4743 37.9173 57.0456 38.0825 57.6156 38.0211C58.1857 37.9597 58.7087 37.6767 59.0719 37.2331L62.4061 33.0659C62.7146 32.6836 62.8829 32.2072 62.8829 31.7159C62.8829 31.2247 62.7146 30.7482 62.4061 30.3659L59.0822 26.2119ZM61.3074 32.1875L57.9652 36.3673C57.8368 36.5164 57.6561 36.6105 57.4604 36.6303C57.2648 36.65 57.0689 36.594 56.9133 36.4738C56.7571 36.3484 56.6569 36.1662 56.6348 35.9671C56.6126 35.768 56.6703 35.5682 56.7952 35.4116L59.4 32.1561C59.4997 32.0314 59.5541 31.8765 59.5541 31.7169C59.5541 31.5572 59.4997 31.4023 59.4 31.2777L56.7858 28.01C56.6622 27.8524 56.6063 27.6521 56.6304 27.4532C56.6545 27.2544 56.7566 27.0733 56.9142 26.9497C57.0719 26.8261 57.2721 26.7702 57.471 26.7943C57.6698 26.8184 57.851 26.9205 57.9745 27.0781L61.3074 31.2453C61.415 31.3787 61.4738 31.545 61.4738 31.7164C61.4738 31.8878 61.415 32.0541 61.3074 32.1875Z" fill="white"/>
<path d="M52.1023 25.4586C51.8282 25.3892 51.543 25.3757 51.2635 25.4187C50.9841 25.4618 50.7161 25.5606 50.4756 25.7093C50.2351 25.8579 50.027 26.0535 49.8635 26.2842C49.7001 26.5149 49.5847 26.7761 49.5242 27.0523L49.5205 27.0683C49.5205 27.0683 48.0641 33.298 47.615 35.383C47.0103 38.1875 51.1353 39.1569 51.823 36.3664C52.3353 34.287 53.7364 28.0156 53.7364 28.0156C53.8021 27.7402 53.8117 27.4543 53.7645 27.1751C53.7174 26.8958 53.6145 26.629 53.462 26.3903C53.3095 26.1517 53.1106 25.9462 52.877 25.7862C52.6434 25.6261 52.3799 25.5147 52.1023 25.4586ZM52.3625 27.7189L50.4523 36.0523C50.4136 36.2222 50.3175 36.3735 50.1802 36.4807C50.0429 36.5878 49.8728 36.6443 49.6986 36.6406C49.5872 36.6355 49.4783 36.6064 49.3793 36.5551C49.2804 36.5038 49.1937 36.4317 49.1253 36.3437C49.0569 36.2557 49.0084 36.1539 48.9831 36.0453C48.9579 35.9368 48.9565 35.824 48.9791 35.7149L50.8869 27.3908C50.9312 27.1961 51.0508 27.027 51.2195 26.9203C51.3883 26.8136 51.5924 26.778 51.7872 26.8214C51.9821 26.8648 52.1518 26.9835 52.2594 27.1517C52.3669 27.3199 52.4035 27.5238 52.3611 27.7189H52.3625Z" fill="white"/>
</g>
<defs>
<clipPath id="clip0_202_20039">
<rect width="60" height="60" fill="white" transform="translate(20.6665 20)"/>
</clipPath>
</defs>
</svg>
