<svg width="100" height="100" viewBox="0 0 100 100" fill="none" xmlns="http://www.w3.org/2000/svg">
<rect width="100" height="100" rx="12" fill="white"/>
<path d="M45.7273 33.0909C43.9091 31.4545 41.4546 30.7273 39 31C34.9091 31.5454 31.7273 34.8182 31.7273 38.7273V38.9091C31.8182 40.4545 32.6364 45.4545 38.5455 46.4545C39.0909 46.5454 39.5455 46.6363 40.0909 46.6363C42.0909 46.6363 44 45.9091 45.5455 44.6364C47.3637 43.1818 48.3637 41 48.3637 38.8182C48.3637 36.5454 47.4546 34.5454 45.7273 33.0909ZM44.3637 43.1818C42.8182 44.4545 40.8182 45 38.8182 44.6364C34.3637 43.9091 33.6364 40.2727 33.5455 38.7273C33.5455 38.7273 33.5455 38.7273 33.5455 38.6364C33.5455 35.6364 36 33.0909 39.1818 32.7273C41.0909 32.4545 43.0909 33.0909 44.5455 34.3636C45.8182 35.5454 46.5455 37.0909 46.5455 38.7273C46.5455 40.4545 45.7273 42.0909 44.3637 43.1818Z" fill="#29102D"/>
<path d="M51.7273 53L55.2728 49.6363C55.6364 49.3636 55.6364 48.8181 55.3637 48.4545L52.8182 44.9091C53.1819 44.1818 53.5455 43.4545 53.7273 42.7272L58.2728 41.9091C58.7273 41.8181 59 41.4545 59 41V36.2727C59 35.8181 58.6364 35.4545 58.2728 35.3636L53.6364 34.5454C53.3637 33.8181 53.0909 33.0909 52.6364 32.3636L55.1819 28.8181C55.4546 28.4545 55.3637 27.9091 55.0909 27.6363C55 27.5454 51.7273 24.5454 51.4546 24.3636C51.1819 24.1818 50.9091 24.0909 50.5455 24.1818C50.4546 24.1818 50.2728 24.2727 50.1819 24.3636L46.7273 26.5454C46.6364 26.6363 46.5455 26.6363 46.4546 26.7272C45.7273 26.3636 45 26.0909 44.2728 25.9091L43.3637 21.6363C43.2728 21.1818 42.9091 20.9091 42.4546 20.9091H37.4546C37 20.9091 36.6364 21.2727 36.5455 21.7272L35.6364 25.9091C34.8182 26.1818 34 26.4545 33.2728 26.8181C31.2728 25.5454 30.1819 24.9091 29.5455 24.5454C29.4546 24.4545 29.4546 24.4545 29.3637 24.3636V24.4545C28.8182 24.1818 28.7273 24.2727 28.4546 24.3636C28.4546 24.4545 28.2728 24.5454 28.2728 24.6363L24.8182 27.8181C24.4546 28.1818 24.4546 28.7272 24.8182 29.0909C25.0909 29.4545 25.9091 30.5454 26.5455 31.4545L27.2728 32.6363C26.9091 33.3636 26.5455 34.0909 26.3637 34.8181L21.8182 35.6363C21.3637 35.7272 21.0909 36.0909 21.0909 36.5454V41.2727C21.0909 41.6363 21.2728 41.9091 21.5455 42.0909C21.7273 42.1818 21.8182 42.2727 22 42.1818L26.4546 42.9091C26.6364 43.4545 26.9091 44.1818 27.4546 45.0909C26.1819 46.9091 25.4546 47.9091 25.0909 48.5454C25 48.6363 25 48.6363 24.9091 48.7272C24.6364 49.2727 24.6364 49.3636 24.8182 49.6363C24.9091 49.8181 25 49.9091 25.1819 50C25.8182 50.5454 28.4546 53 28.6364 53.1818C28.9091 53.3636 29.1819 53.4545 29.5455 53.3636C29.6364 53.3636 29.8182 53.2727 29.9091 53.1818L33.6364 50.7272C34.3637 51.0909 35.0909 51.3636 35.8182 51.5454L36.7273 55.8181C36.8182 56.2727 37.1819 56.5454 37.6364 56.5454H42.6364C43.0909 56.5454 43.4546 56.2727 43.5455 55.8181L44.4546 51.5454C45.2728 51.2727 46.0909 51 46.8182 50.6363L50.7273 53.0909C50.9091 53.3636 51.3637 53.2727 51.7273 53ZM46.3637 48.8181C45.4546 49.3636 44.4546 49.7272 43.3637 50C43 50.0909 42.7273 50.3636 42.7273 50.7272L41.8182 54.7272H38.2728L37.4546 50.6363C37.3637 50.2727 37.0909 50 36.8182 49.9091C35.8182 49.6363 34.8182 49.2727 34 48.8181C33.7273 48.6363 33.3637 48.6363 33.0909 48.8181L29.3637 51.1818C28.8182 50.9091 28 50.1818 26.8182 49.0909C27.6364 47.9091 29.1819 45.7272 29.1819 45.6363C29.3637 45.3636 29.3637 44.9091 29.1819 44.6363C28.5455 43.5454 28.2728 42.9091 28 42.1818L27.9091 41.8181C27.8182 41.5454 27.5455 41.2727 27.1819 41.2727L22.8182 40.5454C22.8182 39.9091 22.8182 38.8181 22.8182 37.3636L27.1819 36.5454C27.5455 36.4545 27.8182 36.1818 27.9091 35.9091C28.0909 35.2727 28.4546 34.2727 29 33.3636C29.3637 33.0909 29.4546 32.8181 29 32.1818C29 32.0909 28.9091 32.0909 28.9091 32C28.7273 31.6363 28.3637 31.2727 28 30.6363L26.6364 28.6363C27.0909 28.1818 27.8182 27.5454 28.8182 26.5454L29.0909 26.3636C30.2728 27.0909 32.7273 28.6363 32.8182 28.7272C33.0909 28.9091 33.4546 28.9091 33.7273 28.7272C34.6364 28.2727 35.6364 27.8181 36.7273 27.5454C37.0909 27.4545 37.3637 27.1818 37.3637 26.8181L38.2728 22.7272H41.8182L42.6364 26.8181C42.7273 27.1818 43 27.4545 43.2728 27.5454C44.2728 27.8181 45.0909 28.0909 46 28.5454C46.2728 28.7272 46.7273 28.8181 47 28.5454L50.7273 26.1818C51.1819 26.6363 52 27.3636 53.1819 28.4545L50.7273 31.9091C50.5455 32.1818 50.5455 32.6363 50.7273 32.9091C51.2728 33.8181 51.7273 34.7272 52 35.6363C52.0909 36 52.3637 36.1818 52.7273 36.2727L57.0909 37V40.1818L52.7273 41C52.3637 41.0909 52.0909 41.2727 52 41.6363C51.9091 42.7272 51.4546 43.6363 50.9091 44.4545C50.7273 44.7272 50.7273 45.1818 50.9091 45.4545L53.3637 48.8181L50.9091 51.0909L47.2728 48.8181C47 48.7272 46.6364 48.6363 46.3637 48.8181Z" fill="#29102D"/>
<path d="M71.1819 63.0909C70.5455 59.909 67.6364 57.5454 64.4546 57.5454C60.6364 57.5454 57.5455 60.6363 57.5455 64.4545V64.5454C57.5455 66.6363 58.4546 68.4545 60.091 69.8181C61.3637 70.8181 62.9092 71.3636 64.4546 71.3636C65.7274 71.3636 66.9092 71 68.091 70.3636C70.5455 68.909 71.7274 66 71.1819 63.0909ZM67.091 68.8181C65.6364 69.7272 63.2728 70.0909 61.2728 68.4545C60.091 67.4545 59.4546 66.0909 59.4546 64.5454C59.4546 64.5454 59.4546 64.5454 59.4546 64.4545C59.4546 61.6363 61.7274 59.3636 64.5455 59.3636C66.9092 59.3636 69.0001 61.0909 69.5455 63.3636C69.9092 66.0909 68.5455 67.909 67.091 68.8181Z" fill="#29102D"/>
<path d="M78.9092 62.4545C78.9092 61.9999 78.6365 61.6363 78.1819 61.5454L74.8183 60.909C74.6365 60.3636 74.4546 59.8181 74.1819 59.3636L76.0001 56.5454C76.2728 56.1818 76.1819 55.7272 75.9092 55.3636C74.5455 54.0908 73.8183 53.2727 73.3637 52.909C73.3637 52.8181 73.2728 52.7272 73.1819 52.7272C72.7274 52.3636 72.6365 52.3636 72.3637 52.4545C72.1819 52.4545 72.091 52.5454 72.0001 52.6363C71.5455 52.909 70.2728 53.8181 69.4546 54.3636L69.3637 54.4545C68.9092 54.1818 68.4546 53.9999 67.9092 53.909L67.2728 50.5454C67.1819 50.0908 66.8183 49.8181 66.3637 49.8181H62.5455C62.091 49.8181 61.7274 50.1818 61.6365 50.6363L61.0001 53.909C60.4546 54.0908 59.9092 54.2727 59.4546 54.5454C58.6365 53.9999 56.8183 52.8181 56.6365 52.6363C56.1819 52.3636 55.6365 52.4545 55.3637 52.8181L53.8183 54.5454C53.7274 54.6363 53.7274 54.6363 53.6365 54.7272L53.4546 54.909L53.3637 54.9999L53.2728 55.0908L52.7274 55.6363C52.4546 55.909 52.3637 56.4545 52.6365 56.8181C52.6365 56.909 53.9092 58.7272 54.5455 59.6363C54.2728 60.1818 54.091 60.7272 53.9092 61.2727L50.6365 61.8181C50.1819 61.909 49.9092 62.2727 49.9092 62.7272V66.3636V66.5454C50.0001 67.0908 50.091 67.1818 50.3637 67.3636C50.4546 67.4545 50.6365 67.4545 50.8183 67.4545L54.0001 67.9999C54.1819 68.4545 54.3637 68.909 54.6365 69.5454C54.1819 70.1818 53.4546 71.2727 53.091 71.909L52.8183 72.3636C52.5455 72.8181 52.6365 73.3636 53.091 73.6363L55.7274 76.1818C56.0001 76.3636 56.2728 76.4545 56.6365 76.4545C56.7274 76.4545 56.9092 76.3636 57.0001 76.2727L59.7274 74.3636C60.1819 74.5454 60.6365 74.8181 61.1819 74.909L61.8183 78.2727C61.9092 78.7272 62.2728 78.9999 62.7274 78.9999H66.3637C66.8183 78.9999 67.1819 78.7272 67.2728 78.2727L67.9092 74.909C68.4546 74.7272 69.0001 74.5454 69.4546 74.2727L72.2728 76.1818C72.6365 76.4545 73.091 76.3636 73.4546 76.0908L76.091 73.3636C76.3637 73.0908 76.4546 72.5454 76.1819 72.1818L74.2728 69.3636C74.5455 68.8181 74.7274 68.3636 74.9092 67.7272L78.1819 67.0908C78.6365 66.9999 78.9092 66.6363 78.9092 66.1818V62.4545ZM74.0001 66.1818C73.6365 66.2727 73.3637 66.5454 73.2728 66.8181C73.091 67.6363 72.7274 68.3636 72.3637 68.9999C72.1819 69.2727 72.1819 69.6363 72.3637 69.9999L74.1819 72.6363L72.5455 74.2727L69.9092 72.4545C69.6365 72.2727 69.2728 72.2727 68.9092 72.4545C68.2728 72.8181 67.4546 73.1818 66.7274 73.3636C66.3637 73.4545 66.1819 73.7272 66.091 74.0908L65.5455 77.2727H63.2728L62.6365 74.1818C62.5455 73.8181 62.2728 73.5454 62.0001 73.4545C61.2728 73.2727 60.5455 72.9999 59.9092 72.6363C59.6365 72.4545 59.2728 72.4545 58.9092 72.7272L56.2728 74.5454C55.9092 74.1818 55.3637 73.6363 54.6365 72.909C55.2728 71.9999 56.3637 70.3636 56.3637 70.2727C56.5455 69.9999 56.5455 69.6363 56.3637 69.2727C55.9092 68.4545 55.7274 67.909 55.5455 67.3636L55.4546 67.0908C55.4546 66.6363 55.1819 66.3636 54.8183 66.3636L51.7274 65.8181C51.7274 65.1818 51.7274 64.1818 51.7274 63.5454L54.8183 62.909C55.1819 62.8181 55.4546 62.5454 55.5455 62.1818C55.6365 61.7272 56.0001 60.8181 56.3637 60.0908C56.3637 59.9999 56.4546 59.9999 56.4546 59.909C56.5455 59.6363 56.6365 59.5454 56.3637 58.9999C56.3637 58.909 56.2728 58.909 56.1819 58.8181C55.9092 58.3636 55.4546 57.6363 54.5455 56.3636C54.5455 56.3636 54.5455 56.3636 54.6365 56.2727L54.7274 56.1818L56.2728 54.6363C56.8183 55.0908 57.7274 55.6363 58.9092 56.4545C59.1819 56.6363 59.5455 56.6363 59.9092 56.4545C60.5455 56.0908 61.2728 55.7272 62.091 55.5454C62.4546 55.4545 62.6365 55.1818 62.7274 54.8181L63.3637 51.7272H65.6365L66.2728 54.8181C66.3637 55.1818 66.5455 55.4545 66.9092 55.5454C67.6365 55.7272 68.1819 55.9999 68.8183 56.2727C69.1819 56.6363 69.5455 56.5454 69.9092 56.2727C70.2728 55.9999 70.0001 56.1818 70.0001 56.1818C70.1819 56.0908 70.2728 55.9999 70.4546 55.909C71.0001 55.5454 71.9092 54.909 72.4546 54.4545L74.091 56.0908L72.3637 58.7272C72.1819 58.9999 72.1819 59.3636 72.3637 59.7272C72.7274 60.4545 73.091 61.1818 73.2728 61.909C73.3637 62.2727 73.6365 62.4545 74.0001 62.5454L77.091 63.0908V65.3636L74.0001 66.1818Z" fill="#29102D"/>
<path d="M45.4546 73.4545C37.2728 73.2727 30.4546 67.1818 29.1819 59.2727L30.6365 60.7273C31.0001 61.0909 31.5455 61.0909 31.9092 60.7273C32.2728 60.3636 32.2728 59.8182 31.9092 59.4545L28.6365 56.2727C28.2728 55.9091 27.7274 55.9091 27.3637 56.2727L24.1819 59.5455C23.8183 59.9091 23.8183 60.4545 24.1819 60.8182C24.5455 61.1818 25.091 61.1818 25.4546 60.8182L27.2728 59C28.4546 68 36.0001 75.0909 45.4546 75.3636C46.0001 75.3636 46.3637 74.9091 46.3637 74.4545C46.3637 73.8182 46.0001 73.4545 45.4546 73.4545Z" fill="#29102D"/>
<path d="M78.182 44.5454C77.8183 44.1818 77.2729 44.1818 76.9092 44.5454L75.182 46.2727C75.4547 37.1818 69.091 29.0909 60.091 27.2727C59.6365 27.1818 59.0911 27.5454 59.0911 28.0909C59.0001 28.5454 59.3638 29 59.8183 29.0909C67.9092 30.7273 73.6365 38 73.4547 46.1818L71.7274 44.5454C71.3638 44.1818 70.8183 44.1818 70.4547 44.5454C70.0911 44.9091 70.0911 45.4545 70.4547 45.8182L73.6365 49C73.8183 49.1818 74.0001 49.2727 74.2729 49.2727C74.5456 49.2727 74.7274 49.1818 74.9092 49L78.0911 45.8182C78.5456 45.4545 78.5456 44.9091 78.182 44.5454Z" fill="#29102D"/>
</svg>
