<svg width="100" height="100" viewBox="0 0 100 100" fill="none" xmlns="http://www.w3.org/2000/svg">
<rect width="100" height="100" rx="12" fill="white"/>
<path d="M58.4375 49.0625C57.6958 49.0625 56.9708 49.2824 56.3541 49.6945C55.7374 50.1065 55.2568 50.6922 54.973 51.3774C54.6891 52.0627 54.6149 52.8167 54.7596 53.5441C54.9043 54.2715 55.2614 54.9397 55.7859 55.4641C56.3103 55.9886 56.9785 56.3458 57.7059 56.4904C58.4333 56.6351 59.1873 56.5609 59.8726 56.277C60.5578 55.9932 61.1435 55.5126 61.5555 54.8959C61.9676 54.2792 62.1875 53.5542 62.1875 52.8125C62.1875 51.8179 61.7924 50.8641 61.0892 50.1609C60.3859 49.4576 59.4321 49.0625 58.4375 49.0625ZM58.4375 54.6875C58.0667 54.6875 57.7041 54.5775 57.3958 54.3715C57.0875 54.1655 56.8471 53.8726 56.7052 53.53C56.5633 53.1874 56.5262 52.8104 56.5985 52.4467C56.6709 52.083 56.8495 51.7489 57.1117 51.4867C57.3739 51.2244 57.708 51.0459 58.0717 50.9735C58.4354 50.9012 58.8124 50.9383 59.155 51.0802C59.4976 51.2221 59.7905 51.4625 59.9965 51.7708C60.2025 52.0791 60.3125 52.4417 60.3125 52.8125C60.3125 53.3098 60.115 53.7867 59.7633 54.1383C59.4117 54.49 58.9348 54.6875 58.4375 54.6875Z" fill="#29102D"/>
<path d="M72.5 38.75H71.4875C71.5404 38.4404 71.5655 38.1266 71.5625 37.8125C71.5605 36.0726 70.8685 34.4046 69.6382 33.1743C68.4079 31.944 66.7399 31.252 65 31.25C63.6142 31.2452 62.2635 31.6856 61.1469 32.5063C59.8781 31.2025 58.2866 30.2579 56.5344 29.7688C56.3959 28.1298 55.648 26.6024 54.4382 25.488C53.2284 24.3737 51.6448 23.7536 50 23.75C48.6142 23.7452 47.2635 24.1856 46.1469 25.0063C44.773 23.59 43.0217 22.5976 41.1008 22.1469C39.1798 21.6961 37.1699 21.8059 35.3094 22.4632C33.449 23.1205 31.8162 24.2978 30.6048 25.8552C29.3934 27.4127 28.6542 29.285 28.475 31.25H27.5C26.0082 31.25 24.5774 31.8426 23.5225 32.8975C22.4676 33.9524 21.875 35.3832 21.875 36.875C21.875 38.3668 22.4676 39.7976 23.5225 40.8525C24.5774 41.9074 26.0082 42.5 27.5 42.5H37.2031C36.8997 43.3479 36.8049 44.2564 36.9267 45.1486C37.0485 46.0409 37.3833 46.8908 37.9028 47.6263C38.4223 48.3619 39.1112 48.9616 39.9114 49.3748C40.7116 49.7879 41.5995 50.0024 42.5 50H50.825L50.7125 50.0281C50.5092 50.0784 50.3287 50.1952 50.1995 50.36C50.0704 50.5248 50.0002 50.7281 50 50.9375V51.875H26.5625C26.0437 51.874 25.5349 52.0172 25.0929 52.2888C24.6509 52.5603 24.293 52.9493 24.0594 53.4125C23.8593 53.808 23.7534 54.2443 23.75 54.6875V72.5H22.925C22.7888 72.5007 22.6544 72.5311 22.5312 72.5891C22.408 72.647 22.2988 72.7311 22.2114 72.8355C22.124 72.9399 22.0603 73.0621 22.0249 73.1936C21.9895 73.3251 21.9831 73.4627 22.0063 73.5969L22.4375 75.9969C22.4383 76.032 22.4447 76.0668 22.4562 76.1C22.6295 76.6826 22.9855 77.1939 23.4717 77.5586C23.9579 77.9233 24.5485 78.1218 25.1562 78.125H57.9688C58.5765 78.1218 59.1671 77.9233 59.6533 77.5586C60.1395 77.1939 60.4955 76.6826 60.6688 76.1C60.6803 76.0668 60.6867 76.032 60.6875 75.9969L61.1188 73.5969C61.1419 73.4627 61.1355 73.3251 61.1001 73.1936C61.0647 73.0621 61.001 72.9399 60.9136 72.8355C60.8262 72.7311 60.717 72.647 60.5938 72.5891C60.4706 72.5311 60.3362 72.5007 60.2 72.5H59.375V61.25H60.3125C60.5219 61.2498 60.7252 61.1796 60.89 61.0505C61.0548 60.9213 61.1716 60.7408 61.2219 60.5375L61.3812 59.9094L61.9344 60.2469C62.1135 60.3541 62.3232 60.3985 62.5304 60.373C62.7376 60.3476 62.9303 60.2537 63.0781 60.1063L65.7312 57.4531C65.8787 57.3054 65.9726 57.1126 65.998 56.9054C66.0235 56.6982 65.9791 56.4885 65.8719 56.3094L65.5344 55.7563L66.1625 55.5969C66.3658 55.5466 66.5463 55.4298 66.6755 55.265C66.8046 55.1002 66.8748 54.8969 66.875 54.6875V50.9375C66.8748 50.7281 66.8046 50.5248 66.6755 50.36C66.5463 50.1952 66.3658 50.0784 66.1625 50.0281L66.05 50H72.5C73.9918 50 75.4226 49.4074 76.4775 48.3525C77.5324 47.2976 78.125 45.8668 78.125 44.375C78.125 42.8832 77.5324 41.4524 76.4775 40.3975C75.4226 39.3426 73.9918 38.75 72.5 38.75ZM38.3188 40.625H27.5C26.5054 40.625 25.5516 40.2299 24.8483 39.5267C24.1451 38.8234 23.75 37.8696 23.75 36.875C23.75 35.8804 24.1451 34.9266 24.8483 34.2234C25.5516 33.5201 26.5054 33.125 27.5 33.125H29.375C29.6236 33.125 29.8621 33.0262 30.0379 32.8504C30.2137 32.6746 30.3125 32.4361 30.3125 32.1875C30.3134 30.4418 30.8557 28.7393 31.8648 27.3147C32.8738 25.8901 34.2999 24.8136 35.9465 24.2335C37.5931 23.6535 39.379 23.5985 41.0582 24.076C42.7373 24.5536 44.227 25.5403 45.3219 26.9C45.4059 27.0019 45.51 27.0853 45.6278 27.145C45.7456 27.2047 45.8744 27.2394 46.0063 27.2469C46.1359 27.2527 46.2653 27.2315 46.3863 27.1847C46.5074 27.1379 46.6174 27.0665 46.7094 26.975C47.3125 26.3794 48.066 25.9588 48.8894 25.7581C49.7129 25.5574 50.5755 25.584 51.385 25.8352C52.1945 26.0865 52.9206 26.5528 53.4857 27.1845C54.0508 27.8162 54.4338 28.5895 54.5938 29.4219C54.3125 29.3938 54.0312 29.375 53.75 29.375C51.1776 29.378 48.6988 30.3405 46.7985 32.0744C44.8982 33.8082 43.7131 36.1886 43.475 38.75H42.5C41.7105 38.7516 40.9302 38.9194 40.2098 39.2424C39.4894 39.5655 38.8451 40.0365 38.3188 40.625ZM25.625 54.6875C25.628 54.541 25.6632 54.397 25.7281 54.2656C25.805 54.1102 25.924 53.9795 26.0715 53.8883C26.219 53.7972 26.3891 53.7492 26.5625 53.75H50V54.6875C50.0002 54.8969 50.0704 55.1002 50.1995 55.265C50.3287 55.4298 50.5092 55.5466 50.7125 55.5969L51.3406 55.7563L51.0031 56.3094C50.8959 56.4885 50.8515 56.6982 50.877 56.9054C50.9024 57.1126 50.9963 57.3054 51.1438 57.4531L53.7969 60.1063C53.9447 60.2537 54.1374 60.3476 54.3446 60.373C54.5518 60.3985 54.7615 60.3541 54.9406 60.2469L55.4938 59.9094L55.6531 60.5375C55.7034 60.7408 55.8202 60.9213 55.985 61.0505C56.1498 61.1796 56.3531 61.2498 56.5625 61.25H57.5V72.5H44.375C44.1264 72.5 43.8879 72.5988 43.7121 72.7746C43.5363 72.9504 43.4375 73.1889 43.4375 73.4375H39.6875C39.6875 73.1889 39.5887 72.9504 39.4129 72.7746C39.2371 72.5988 38.9986 72.5 38.75 72.5H25.625V54.6875ZM58.8594 75.6125C58.7948 75.7976 58.6745 75.9583 58.5151 76.0724C58.3557 76.1865 58.1648 76.2486 57.9688 76.25H25.1562C24.9602 76.2486 24.7693 76.1865 24.6099 76.0724C24.4505 75.9583 24.3302 75.7976 24.2656 75.6125L24.05 74.375H37.8125C37.8125 74.6236 37.9113 74.8621 38.0871 75.0379C38.2629 75.2137 38.5014 75.3125 38.75 75.3125H44.375C44.6236 75.3125 44.8621 75.2137 45.0379 75.0379C45.2137 74.8621 45.3125 74.6236 45.3125 74.375H59.075L58.8594 75.6125ZM65 53.9563L63.8562 54.2375C63.7144 54.2739 63.5829 54.3429 63.4722 54.4389C63.3616 54.5349 63.2748 54.6553 63.2188 54.7906C63.1627 54.9262 63.1387 55.0728 63.1484 55.2191C63.1582 55.3654 63.2015 55.5075 63.275 55.6344L63.8844 56.6469L62.2719 58.2594L61.2594 57.65C61.1325 57.5765 60.9904 57.5332 60.8441 57.5234C60.6977 57.5137 60.5511 57.5377 60.4156 57.5938C60.2803 57.6498 60.1599 57.7366 60.0639 57.8472C59.9679 57.9579 59.8989 58.0894 59.8625 58.2313L59.5813 59.375H57.2937L57.0125 58.2313C56.9761 58.0894 56.9071 57.9579 56.8111 57.8472C56.7151 57.7366 56.5947 57.6498 56.4594 57.5938C56.3239 57.5377 56.1773 57.5137 56.0309 57.5234C55.8846 57.5332 55.7425 57.5765 55.6156 57.65L54.6031 58.2594L52.9906 56.6469L53.6 55.6344C53.6735 55.5075 53.7168 55.3654 53.7266 55.2191C53.7363 55.0728 53.7123 54.9262 53.6563 54.7906C53.6002 54.6553 53.5134 54.5349 53.4028 54.4389C53.2921 54.3429 53.1606 54.2739 53.0188 54.2375L51.875 53.9563V51.6688L53.0188 51.3875C53.1606 51.3511 53.2921 51.2821 53.4028 51.1861C53.5134 51.0901 53.6002 50.9697 53.6563 50.8344C53.7123 50.6989 53.7363 50.5523 53.7266 50.4059C53.7168 50.2596 53.6735 50.1175 53.6 49.9906L52.9906 48.9781L54.6031 47.3656L55.6156 47.9656C55.741 48.0427 55.8829 48.0889 56.0296 48.1003C56.1763 48.1117 56.3236 48.0881 56.4594 48.0313C56.5947 47.9752 56.7151 47.8884 56.8111 47.7778C56.9071 47.6671 56.9761 47.5356 57.0125 47.3938L57.2937 46.25H59.5813L59.8625 47.3938C59.8989 47.5356 59.9679 47.6671 60.0639 47.7778C60.1599 47.8884 60.2803 47.9752 60.4156 48.0313C60.5514 48.0881 60.6987 48.1117 60.8454 48.1003C60.9921 48.0889 61.134 48.0427 61.2594 47.9656L62.2719 47.3656L63.8844 48.9781L63.275 49.9906C63.2015 50.1175 63.1582 50.2596 63.1484 50.4059C63.1387 50.5523 63.1627 50.6989 63.2188 50.8344C63.2748 50.9697 63.3616 51.0901 63.4722 51.1861C63.5829 51.2821 63.7144 51.3511 63.8562 51.3875L65 51.6688V53.9563ZM72.5 48.125H65.6844L63.0781 45.5188C62.9303 45.3713 62.7376 45.2774 62.5304 45.252C62.3232 45.2265 62.1135 45.2709 61.9344 45.3781L61.3812 45.7156L61.2219 45.0875C61.1716 44.8842 61.0548 44.7037 60.89 44.5745C60.7252 44.4454 60.5219 44.3752 60.3125 44.375H56.5625C56.3531 44.3752 56.1498 44.4454 55.985 44.5745C55.8202 44.7037 55.7034 44.8842 55.6531 45.0875L55.4938 45.7156L54.9406 45.3781C54.7615 45.2709 54.5518 45.2265 54.3446 45.252C54.1374 45.2774 53.9447 45.3713 53.7969 45.5188L51.1906 48.125H42.5C41.5054 48.125 40.5516 47.7299 39.8484 47.0267C39.1451 46.3234 38.75 45.3696 38.75 44.375C38.75 43.3804 39.1451 42.4266 39.8484 41.7234C40.5516 41.0201 41.5054 40.625 42.5 40.625H44.375C44.6236 40.625 44.8621 40.5262 45.0379 40.3504C45.2137 40.1746 45.3125 39.9361 45.3125 39.6875C45.3134 37.9418 45.8557 36.2393 46.8648 34.8147C47.8738 33.3901 49.2999 32.3136 50.9465 31.7335C52.5931 31.1535 54.379 31.0985 56.0582 31.576C57.7373 32.0536 59.227 33.0403 60.3219 34.4C60.4059 34.5019 60.51 34.5853 60.6278 34.645C60.7456 34.7047 60.8744 34.7394 61.0063 34.7469C61.1359 34.7527 61.2653 34.7315 61.3863 34.6847C61.5074 34.6379 61.6174 34.5665 61.7094 34.475C62.3675 33.8262 63.2028 33.3865 64.1101 33.2111C65.0175 33.0356 65.9565 33.1323 66.809 33.489C67.6616 33.8456 68.3897 34.4463 68.9018 35.2156C69.414 35.9849 69.6873 36.8883 69.6875 37.8125C69.6831 38.3457 69.5913 38.8746 69.4156 39.3781C69.366 39.5192 69.3503 39.6699 69.3698 39.8181C69.3894 39.9664 69.4436 40.1079 69.5281 40.2313C69.6168 40.3522 69.7325 40.4507 69.8659 40.5191C69.9994 40.5874 70.1469 40.6237 70.2969 40.625H72.5C73.4946 40.625 74.4484 41.0201 75.1516 41.7234C75.8549 42.4266 76.25 43.3804 76.25 44.375C76.25 45.3696 75.8549 46.3234 75.1516 47.0267C74.4484 47.7299 73.4946 48.125 72.5 48.125Z" fill="#29102D"/>
<path d="M71.5625 63.125C71.5625 63.8709 71.2662 64.5863 70.7387 65.1137C70.2113 65.6412 69.4959 65.9375 68.75 65.9375H61.25V67.8125H68.75C69.9927 67.811 71.1842 67.3167 72.0629 66.4379C72.9417 65.5592 73.436 64.3677 73.4375 63.125V51.875H71.5625V63.125Z" fill="#29102D"/>
<path d="M42.5 62.1875H40.625V64.0625H42.5V62.1875Z" fill="#29102D"/>
<path d="M46.25 62.1875H44.375V64.0625H46.25V62.1875Z" fill="#29102D"/>
<path d="M38.75 62.1875H36.875V64.0625H38.75V62.1875Z" fill="#29102D"/>
</svg>
