<svg width="100" height="100" viewBox="0 0 100 100" fill="none" xmlns="http://www.w3.org/2000/svg">
<rect width="100" height="100" rx="12" fill="#29102D"/>
<path d="M79.6133 59.4805C79.6016 59.4453 79.5899 59.4102 79.5664 59.3633C78.6524 56.9258 76.2852 56.7735 74.0703 57.1953C67.7422 58.3789 61.4141 59.5742 55.0977 60.7578C55.3672 59.2696 54.6758 57.6406 53.3984 56.8086C52.3203 56.1055 50.9727 55.9414 49.7422 55.6953C46.8945 55.1328 43.8828 54.2305 40.9649 54.3008C36.4766 54.4063 32.5508 57.2891 28.168 58.2266C28.2266 57.3242 27.3477 56.5742 26.4453 56.4453C25.6367 56.3281 24.8633 56.5625 24.1016 56.8203C23.3633 57.0664 22.6367 57.3594 21.9219 57.6875C21.3828 57.9336 20.7031 58.1914 20.3633 58.7071C19.8711 59.4336 20.2695 60.5469 20.5274 61.2735C22.3438 66.3477 24.1484 71.4453 25.9531 76.5313C26.4922 78.0547 27.3125 78.8164 28.9883 78.2656C29.7734 78.0078 30.5469 77.75 31.332 77.5039C32.4922 77.1289 35.1524 75.8164 33.8047 74.1406C36.1016 72.7813 38.9609 72.8399 41.5977 73.2617C44.2344 73.6836 46.8477 74.4453 49.5195 74.375C52.5078 74.293 55.3555 73.168 58.1328 72.0664C63.9219 69.7578 69.7109 67.4492 75.5 65.1406C77.8906 64.1797 80.668 62.4922 79.6133 59.4805ZM32 75.2539L28.2031 76.6016C28.0742 76.6485 27.9805 76.6133 27.9688 76.6016L21.9922 59.7383C21.9922 59.7149 22.0391 59.6211 22.1797 59.5742L25.9766 58.2266C26.0234 58.2149 26.0703 58.2031 26.1055 58.2031C26.1758 58.2031 26.2109 58.2266 26.2227 58.2266L26.7617 59.75L31.7539 73.8242C31.7539 73.8242 31.7539 73.836 31.7656 73.836L32.2109 75.0899C32.1758 75.125 32.1289 75.2071 32 75.2539ZM76.7539 62.5977L53.6211 71.7735C51.8047 72.4883 49.8242 72.711 47.8906 72.4063C45.1602 71.9727 42.4883 71.2344 39.7227 71.0821C37.3672 70.9531 35.3633 71.5391 33.1836 72.3125C31.7305 68.211 30.2774 64.0977 28.8242 59.9961L39.6641 56.1524C40.1914 55.9649 40.7539 55.9297 41.3047 56.0235L41.3984 56.0469H41.4102L51.4414 57.8985C52.3086 58.0625 53.0352 58.7539 53.2344 59.6211C53.5742 61.168 52.1914 62.5977 50.6328 62.3047L42.5938 60.8164C42.0899 60.7227 41.5977 61.0625 41.5039 61.5664C41.4102 62.0703 41.75 62.5625 42.2539 62.6563L50.293 64.1446C51.6758 64.4024 53.1758 63.9102 54.1367 62.8203L75.6524 58.7774C76.5547 58.6133 77.4688 59.0821 77.832 59.9258C78.3008 60.9688 77.7969 62.1875 76.7539 62.5977ZM36.0195 40.7539H39.5117C39.7227 41.4453 40.0039 42.125 40.3438 42.7695L37.8828 45.2305C37.2617 45.8516 37.2617 46.8594 37.8828 47.4805C37.8828 47.4805 40.3203 49.918 40.332 49.9297C40.9297 50.5274 41.9844 50.5391 42.582 49.9297L45.0547 47.457C45.6992 47.7969 46.3672 48.0781 47.0586 48.2891V51.793C47.0586 52.6602 47.7969 53.375 48.6524 53.375H52.1211C52.9766 53.375 53.7149 52.6367 53.7031 51.7813C53.7031 51.7813 53.7031 42.3125 53.7031 42.2656C53.7031 41.0117 52.3555 41.457 51.6758 41.6914C51.2774 41.832 50.832 41.8906 50.4102 41.8906C47.9961 41.8906 45.9219 39.8633 45.9219 37.4492C45.9336 35.9492 46.7422 34.461 48.0078 33.6641C49.1328 32.961 50.5391 32.7969 51.793 33.2188C52.4609 33.4414 53.6914 33.8047 53.6914 32.6094C53.6914 32.6094 53.6914 23.1172 53.6914 23.1055C53.6914 22.25 52.9649 21.5 52.1094 21.5117C52.1094 21.5117 48.6524 21.5117 48.6406 21.5117C47.7734 21.5117 47.0469 22.2383 47.0586 23.1055V26.5977C46.3672 26.8086 45.6992 27.0899 45.0547 27.4297L42.582 24.957C41.9844 24.3594 40.9414 24.336 40.332 24.957L37.8945 27.3945C37.2852 28.0039 37.2734 29.0117 37.8945 29.6563L40.3555 32.1172C40.0156 32.75 39.7344 33.4297 39.5234 34.1211L36.0195 34.1094C35.1406 34.1211 34.4375 34.836 34.4375 35.7031V39.1602C34.4492 40.0625 35.1875 40.7774 36.0195 40.7539ZM36.3008 35.9844C36.3008 35.9844 40.2266 35.9961 40.2383 35.9961C40.6719 35.9961 41.0469 35.6914 41.1524 35.2695C41.3867 34.2617 41.7734 33.3242 42.3125 32.4688C42.5469 32.1055 42.4883 31.625 42.1836 31.3086L39.5352 28.6485L39.4063 28.5195L41.4453 26.4688L44.2227 29.2578C44.5274 29.5625 45.0078 29.6211 45.3828 29.3867C46.2617 28.8477 47.1992 28.4492 48.1953 28.2149C48.6172 28.1211 48.9102 27.7344 48.9102 27.3008V23.3633H51.8047V31.2735C51.8047 30.957 49.3438 31.1797 49.1211 31.2266C46.2383 31.8008 44.0469 34.4961 44.0234 37.4258C44 40.8125 46.9531 43.7422 50.3399 43.7422C50.832 43.7422 51.3125 43.6953 51.793 43.5781V51.5H48.8867V47.5742C48.8867 47.1406 48.582 46.7656 48.1602 46.6602C47.1758 46.4258 46.2266 46.0391 45.3477 45.5C44.9844 45.2656 44.5039 45.3242 44.1992 45.6289L41.4453 48.418L39.3945 46.3672L42.1719 43.5899C42.4766 43.2852 42.5352 42.8047 42.3008 42.4414C41.75 41.5625 41.3633 40.6133 41.1406 39.6172C41.0469 39.1953 40.6602 38.8906 40.2266 38.8906H36.3008V35.9844ZM59.6797 52.918C61.7539 52.918 63.5 51.3594 64.0039 49.25C64.4727 49.3672 64.9531 49.4258 65.4453 49.4258C69.1367 49.4258 72.1484 46.0977 72.1484 42.0078C72.1484 39.6992 71.1875 37.5547 69.582 36.1719C70.543 35.0117 71.082 33.5 71.082 31.8828C71.082 28.3555 68.4922 25.4961 65.3047 25.4961C64.8945 25.4961 64.4961 25.543 64.1094 25.6367C63.7578 23.3047 61.918 21.5235 59.6914 21.5235C57.2305 21.5235 55.2266 23.7266 55.2266 26.4336V48.0078C55.2149 50.7149 57.2188 52.918 59.6797 52.918ZM57.1133 26.4219C57.1602 25.6602 57.3242 24.9102 57.8633 24.336C58.5664 23.586 59.6445 23.2344 60.6172 23.6328C61.707 24.0899 62.3399 25.3203 62.293 26.4922C62.2344 27.6641 61.5899 28.7539 60.7109 29.5508C60.2422 29.9844 59.3164 30.7344 59.8672 31.461C60.2539 31.9766 61.0859 31.7188 61.6133 31.332C62.6211 30.582 63.3945 29.5039 63.7813 28.3086C63.9688 27.711 64.2852 27.4063 64.9414 27.3711C66.7227 27.2539 68.4102 28.6016 68.9727 30.2891C69.5117 31.918 69.1016 33.793 67.9883 35.0938C66.875 36.3945 65.1172 37.0977 63.418 36.9805C62.75 36.9336 61.5313 36.7578 61.3672 37.6953C61.2266 38.5391 62.1641 38.8086 62.8086 38.8672C64.6953 39.0313 66.6524 38.5039 68.1992 37.4024C69.8867 38.9024 70.6367 41.3633 70.0977 43.5547C69.4649 46.0977 66.8516 48.2539 64.1563 47.3047C63.9805 45.9805 63.3359 44.7266 62.3633 43.8125C61.8711 43.3555 60.6055 42.7461 60.2656 43.7422C60.0781 44.3164 60.6406 44.832 61.0742 45.2539C61.7774 45.957 62.2695 46.8945 62.3164 47.8906C62.4219 50.0938 59.8086 52.1328 57.9805 50.2695C57.1016 49.3672 57.0899 47.9492 57.0899 46.7656C57.0899 41.2578 57.0899 35.75 57.0899 30.2422C57.0664 28.9883 57.0313 27.6875 57.1133 26.4219Z" fill="white"/>
</svg>
