<svg width="101" height="100" viewBox="0 0 101 100" fill="none" xmlns="http://www.w3.org/2000/svg">
<rect x="0.666016" width="100" height="100" rx="12" fill="#29102D"/>
<path d="M46.3936 33.0909C44.5754 31.4545 42.1208 30.7273 39.6663 31C35.5754 31.5455 32.3936 34.8182 32.3936 38.7273V38.9091C32.4845 40.4545 33.3026 45.4545 39.2117 46.4545C39.7572 46.5455 40.2117 46.6364 40.7572 46.6364C42.7572 46.6364 44.6663 45.9091 46.2117 44.6364C48.0299 43.1818 49.0299 41 49.0299 38.8182C49.0299 36.5455 48.1208 34.5455 46.3936 33.0909ZM45.0299 43.1818C43.4845 44.4545 41.4845 45 39.4845 44.6364C35.0299 43.9091 34.3026 40.2727 34.2117 38.7273C34.2117 38.7273 34.2117 38.7273 34.2117 38.6364C34.2117 35.6364 36.6663 33.0909 39.8481 32.7273C41.7572 32.4545 43.7572 33.0909 45.2117 34.3636C46.4845 35.5455 47.2117 37.0909 47.2117 38.7273C47.2117 40.4545 46.3936 42.0909 45.0299 43.1818Z" fill="white"/>
<path d="M52.3932 53L55.9387 49.6364C56.3023 49.3636 56.3023 48.8182 56.0296 48.4545L53.4841 44.9091C53.8477 44.1818 54.2114 43.4545 54.3932 42.7273L58.9387 41.9091C59.3932 41.8182 59.6659 41.4545 59.6659 41V36.2727C59.6659 35.8182 59.3023 35.4545 58.9387 35.3636L54.3023 34.5455C54.0296 33.8182 53.7568 33.0909 53.3023 32.3636L55.8477 28.8182C56.1205 28.4545 56.0296 27.9091 55.7568 27.6364C55.6659 27.5455 52.3932 24.5455 52.1205 24.3636C51.8477 24.1818 51.575 24.0909 51.2114 24.1818C51.1205 24.1818 50.9387 24.2727 50.8477 24.3636L47.3932 26.5455C47.3023 26.6364 47.2114 26.6364 47.1205 26.7273C46.3932 26.3636 45.6659 26.0909 44.9387 25.9091L44.0296 21.6364C43.9387 21.1818 43.575 20.9091 43.1205 20.9091H38.1205C37.6659 20.9091 37.3023 21.2727 37.2114 21.7273L36.3023 25.9091C35.4841 26.1818 34.6659 26.4545 33.9387 26.8182C31.9387 25.5455 30.8477 24.9091 30.2114 24.5455C30.1205 24.4545 30.1205 24.4545 30.0296 24.3636V24.4545C29.4841 24.1818 29.3932 24.2727 29.1205 24.3636C29.1205 24.4545 28.9387 24.5455 28.9387 24.6364L25.4841 27.8182C25.1205 28.1818 25.1205 28.7273 25.4841 29.0909C25.7568 29.4545 26.575 30.5455 27.2114 31.4545L27.9387 32.6364C27.575 33.3636 27.2114 34.0909 27.0296 34.8182L22.4841 35.6364C22.0296 35.7273 21.7568 36.0909 21.7568 36.5455V41.2727C21.7568 41.6364 21.9387 41.9091 22.2114 42.0909C22.3932 42.1818 22.4841 42.2727 22.6659 42.1818L27.1205 42.9091C27.3023 43.4545 27.575 44.1818 28.1205 45.0909C26.8477 46.9091 26.1205 47.9091 25.7568 48.5455C25.6659 48.6364 25.6659 48.6364 25.575 48.7273C25.3023 49.2727 25.3023 49.3636 25.4841 49.6364C25.575 49.8182 25.6659 49.9091 25.8477 50C26.4841 50.5455 29.1205 53 29.3023 53.1818C29.575 53.3636 29.8477 53.4545 30.2114 53.3636C30.3023 53.3636 30.4841 53.2727 30.575 53.1818L34.3023 50.7273C35.0296 51.0909 35.7568 51.3636 36.4841 51.5455L37.3932 55.8182C37.4841 56.2727 37.8477 56.5455 38.3023 56.5455H43.3023C43.7568 56.5455 44.1205 56.2727 44.2114 55.8182L45.1205 51.5455C45.9387 51.2727 46.7568 51 47.4841 50.6364L51.3932 53.0909C51.575 53.3636 52.0296 53.2727 52.3932 53ZM47.0296 48.8182C46.1205 49.3636 45.1205 49.7273 44.0296 50C43.6659 50.0909 43.3932 50.3636 43.3932 50.7273L42.4841 54.7273H38.9387L38.1205 50.6364C38.0296 50.2727 37.7568 50 37.4841 49.9091C36.4841 49.6364 35.4841 49.2727 34.6659 48.8182C34.3932 48.6364 34.0296 48.6364 33.7568 48.8182L30.0296 51.1818C29.4841 50.9091 28.6659 50.1818 27.4841 49.0909C28.3023 47.9091 29.8477 45.7273 29.8477 45.6364C30.0296 45.3636 30.0296 44.9091 29.8477 44.6364C29.2114 43.5455 28.9387 42.9091 28.6659 42.1818L28.575 41.8182C28.4841 41.5455 28.2114 41.2727 27.8477 41.2727L23.4841 40.5455C23.4841 39.9091 23.4841 38.8182 23.4841 37.3636L27.8477 36.5455C28.2114 36.4545 28.4841 36.1818 28.575 35.9091C28.7568 35.2727 29.1205 34.2727 29.6659 33.3636C30.0296 33.0909 30.1205 32.8182 29.6659 32.1818C29.6659 32.0909 29.575 32.0909 29.575 32C29.3932 31.6364 29.0296 31.2727 28.6659 30.6364L27.3023 28.6364C27.7568 28.1818 28.4841 27.5455 29.4841 26.5455L29.7568 26.3636C30.9387 27.0909 33.3932 28.6364 33.4841 28.7273C33.7568 28.9091 34.1205 28.9091 34.3932 28.7273C35.3023 28.2727 36.3023 27.8182 37.3932 27.5455C37.7568 27.4545 38.0296 27.1818 38.0296 26.8182L38.9387 22.7273H42.4841L43.3023 26.8182C43.3932 27.1818 43.6659 27.4545 43.9387 27.5455C44.9387 27.8182 45.7568 28.0909 46.6659 28.5455C46.9387 28.7273 47.3932 28.8182 47.6659 28.5455L51.3932 26.1818C51.8477 26.6364 52.6659 27.3636 53.8477 28.4545L51.3932 31.9091C51.2114 32.1818 51.2114 32.6364 51.3932 32.9091C51.9387 33.8182 52.3932 34.7273 52.6659 35.6364C52.7568 36 53.0296 36.1818 53.3932 36.2727L57.7568 37V40.1818L53.3932 41C53.0296 41.0909 52.7568 41.2727 52.6659 41.6364C52.575 42.7273 52.1205 43.6364 51.575 44.4545C51.3932 44.7273 51.3932 45.1818 51.575 45.4545L54.0296 48.8182L51.575 51.0909L47.9387 48.8182C47.6659 48.7273 47.3023 48.6364 47.0296 48.8182Z" fill="white"/>
<path d="M71.8473 63.0909C71.2109 59.9091 68.3018 57.5455 65.12 57.5455C61.3018 57.5455 58.2109 60.6364 58.2109 64.4545V64.5455C58.2109 66.6364 59.12 68.4545 60.7564 69.8182C62.0291 70.8182 63.5746 71.3636 65.12 71.3636C66.3928 71.3636 67.5746 71 68.7564 70.3636C71.2109 68.9091 72.3928 66 71.8473 63.0909ZM67.7564 68.8182C66.3018 69.7273 63.9382 70.0909 61.9382 68.4545C60.7564 67.4545 60.12 66.0909 60.12 64.5455C60.12 64.5455 60.12 64.5455 60.12 64.4545C60.12 61.6364 62.3928 59.3636 65.2109 59.3636C67.5746 59.3636 69.6655 61.0909 70.2109 63.3636C70.5746 66.0909 69.2109 67.9091 67.7564 68.8182Z" fill="white"/>
<path d="M79.5752 62.4545C79.5752 62 79.3025 61.6364 78.8479 61.5455L75.4843 60.9091C75.3025 60.3636 75.1206 59.8182 74.8479 59.3636L76.6661 56.5455C76.9388 56.1818 76.8479 55.7273 76.5752 55.3636C75.2116 54.0909 74.4843 53.2727 74.0297 52.9091C74.0297 52.8182 73.9388 52.7273 73.8479 52.7273C73.3934 52.3636 73.3025 52.3636 73.0297 52.4545C72.8479 52.4545 72.757 52.5455 72.6661 52.6364C72.2116 52.9091 70.9388 53.8182 70.1207 54.3636L70.0297 54.4545C69.5752 54.1818 69.1207 54 68.5752 53.9091L67.9388 50.5454C67.8479 50.0909 67.4843 49.8182 67.0297 49.8182H63.2116C62.757 49.8182 62.3934 50.1818 62.3025 50.6364L61.6661 53.9091C61.1206 54.0909 60.5752 54.2727 60.1207 54.5454C59.3025 54 57.4843 52.8182 57.3025 52.6364C56.8479 52.3636 56.3025 52.4545 56.0297 52.8182L54.4843 54.5454C54.3934 54.6364 54.3934 54.6364 54.3025 54.7273L54.1206 54.9091L54.0297 55L53.9388 55.0909L53.3934 55.6364C53.1206 55.9091 53.0297 56.4545 53.3025 56.8182C53.3025 56.9091 54.5752 58.7273 55.2116 59.6364C54.9388 60.1818 54.757 60.7273 54.5752 61.2727L51.3025 61.8182C50.8479 61.9091 50.5752 62.2727 50.5752 62.7273V66.3636V66.5455C50.6661 67.0909 50.757 67.1818 51.0297 67.3636C51.1206 67.4545 51.3025 67.4545 51.4843 67.4545L54.6661 68C54.8479 68.4545 55.0297 68.9091 55.3025 69.5455C54.8479 70.1818 54.1207 71.2727 53.757 71.9091L53.4843 72.3636C53.2116 72.8182 53.3025 73.3636 53.757 73.6364L56.3934 76.1818C56.6661 76.3636 56.9388 76.4545 57.3025 76.4545C57.3934 76.4545 57.5752 76.3636 57.6661 76.2727L60.3934 74.3636C60.8479 74.5455 61.3025 74.8182 61.8479 74.9091L62.4843 78.2727C62.5752 78.7273 62.9388 79 63.3934 79H67.0297C67.4843 79 67.8479 78.7273 67.9388 78.2727L68.5752 74.9091C69.1207 74.7273 69.6661 74.5455 70.1207 74.2727L72.9388 76.1818C73.3025 76.4545 73.757 76.3636 74.1206 76.0909L76.757 73.3636C77.0297 73.0909 77.1207 72.5455 76.8479 72.1818L74.9388 69.3636C75.2116 68.8182 75.3934 68.3636 75.5752 67.7273L78.8479 67.0909C79.3025 67 79.5752 66.6364 79.5752 66.1818V62.4545ZM74.6661 66.1818C74.3025 66.2727 74.0297 66.5455 73.9388 66.8182C73.757 67.6364 73.3934 68.3636 73.0297 69C72.8479 69.2727 72.8479 69.6364 73.0297 70L74.8479 72.6364L73.2116 74.2727L70.5752 72.4545C70.3025 72.2727 69.9388 72.2727 69.5752 72.4545C68.9388 72.8182 68.1207 73.1818 67.3934 73.3636C67.0297 73.4545 66.8479 73.7273 66.757 74.0909L66.2116 77.2727H63.9388L63.3025 74.1818C63.2116 73.8182 62.9388 73.5455 62.6661 73.4545C61.9388 73.2727 61.2116 73 60.5752 72.6364C60.3025 72.4545 59.9388 72.4545 59.5752 72.7273L56.9388 74.5455C56.5752 74.1818 56.0297 73.6364 55.3025 72.9091C55.9388 72 57.0297 70.3636 57.0297 70.2727C57.2116 70 57.2116 69.6364 57.0297 69.2727C56.5752 68.4545 56.3934 67.9091 56.2116 67.3636L56.1206 67.0909C56.1206 66.6364 55.8479 66.3636 55.4843 66.3636L52.3934 65.8182C52.3934 65.1818 52.3934 64.1818 52.3934 63.5455L55.4843 62.9091C55.8479 62.8182 56.1206 62.5455 56.2116 62.1818C56.3025 61.7273 56.6661 60.8182 57.0297 60.0909C57.0297 60 57.1206 60 57.1206 59.9091C57.2116 59.6364 57.3025 59.5455 57.0297 59C57.0297 58.9091 56.9388 58.9091 56.8479 58.8182C56.5752 58.3636 56.1206 57.6364 55.2116 56.3636C55.2116 56.3636 55.2116 56.3636 55.3025 56.2727L55.3934 56.1818L56.9388 54.6364C57.4843 55.0909 58.3934 55.6364 59.5752 56.4545C59.8479 56.6364 60.2116 56.6364 60.5752 56.4545C61.2116 56.0909 61.9388 55.7273 62.757 55.5454C63.1206 55.4545 63.3025 55.1818 63.3934 54.8182L64.0297 51.7273H66.3025L66.9388 54.8182C67.0297 55.1818 67.2116 55.4545 67.5752 55.5454C68.3025 55.7273 68.8479 56 69.4843 56.2727C69.8479 56.6364 70.2116 56.5455 70.5752 56.2727C70.9388 56 70.6661 56.1818 70.6661 56.1818C70.8479 56.0909 70.9388 56 71.1207 55.9091C71.6661 55.5454 72.5752 54.9091 73.1207 54.4545L74.757 56.0909L73.0297 58.7273C72.8479 59 72.8479 59.3636 73.0297 59.7273C73.3934 60.4545 73.757 61.1818 73.9388 61.9091C74.0297 62.2727 74.3025 62.4545 74.6661 62.5454L77.757 63.0909V65.3636L74.6661 66.1818Z" fill="white"/>
<path d="M46.1207 73.4545C37.9388 73.2727 31.1207 67.1818 29.8479 59.2727L31.3025 60.7273C31.6661 61.0909 32.2116 61.0909 32.5752 60.7273C32.9388 60.3636 32.9388 59.8182 32.5752 59.4545L29.3025 56.2727C28.9388 55.9091 28.3934 55.9091 28.0297 56.2727L24.8479 59.5455C24.4843 59.9091 24.4843 60.4545 24.8479 60.8182C25.2116 61.1818 25.757 61.1818 26.1207 60.8182L27.9388 59C29.1207 68 36.6661 75.0909 46.1207 75.3636C46.6661 75.3636 47.0297 74.9091 47.0297 74.4545C47.0297 73.8182 46.6661 73.4545 46.1207 73.4545Z" fill="white"/>
<path d="M78.8481 44.5455C78.4845 44.1818 77.939 44.1818 77.5754 44.5455L75.8481 46.2727C76.1208 37.1818 69.7572 29.0909 60.7572 27.2727C60.3026 27.1818 59.7572 27.5455 59.7572 28.0909C59.6663 28.5455 60.0299 29 60.4845 29.0909C68.5754 30.7273 74.3026 38 74.1208 46.1818L72.3936 44.5455C72.0299 44.1818 71.4845 44.1818 71.1208 44.5455C70.7572 44.9091 70.7572 45.4545 71.1208 45.8182L74.3026 49C74.4845 49.1818 74.6663 49.2727 74.939 49.2727C75.2117 49.2727 75.3936 49.1818 75.5754 49L78.7572 45.8182C79.2117 45.4545 79.2117 44.9091 78.8481 44.5455Z" fill="white"/>
</svg>
