<svg width="20" height="20" viewBox="0 0 20 20" fill="none" xmlns="http://www.w3.org/2000/svg">
<path d="M16.6667 14.2202C16.6667 14.4602 16.6133 14.7068 16.4998 14.9468C16.3863 15.1868 16.2394 15.4135 16.0457 15.6268C15.7186 15.9868 15.358 16.2468 14.9508 16.4135C14.5502 16.5802 14.1162 16.6668 13.6488 16.6668C12.9678 16.6668 12.24 16.5068 11.4722 16.1802C10.7044 15.8535 9.93658 15.4135 9.17544 14.8602C8.40762 14.3002 7.67986 13.6802 6.98549 12.9935C6.29779 12.3002 5.67686 11.5735 5.12269 10.8135C4.57521 10.0535 4.13455 9.2935 3.81406 8.54016C3.49358 7.78016 3.33334 7.0535 3.33334 6.36016C3.33334 5.90683 3.41346 5.4735 3.5737 5.0735C3.73394 4.66683 3.98766 4.2935 4.34152 3.96016C4.76883 3.54016 5.2362 3.3335 5.73027 3.3335C5.91722 3.3335 6.10417 3.3735 6.27108 3.4535C6.44468 3.5335 6.59824 3.6535 6.71842 3.82683L8.26741 6.00683C8.38759 6.1735 8.47439 6.32683 8.53448 6.4735C8.59457 6.6135 8.62795 6.7535 8.62795 6.88016C8.62795 7.04016 8.58122 7.20016 8.48774 7.3535C8.40095 7.50683 8.27409 7.66683 8.11385 7.82683L7.60642 8.3535C7.53298 8.42683 7.49959 8.5135 7.49959 8.62016C7.49959 8.6735 7.50627 8.72016 7.51962 8.7735C7.53965 8.82683 7.55968 8.86683 7.57304 8.90683C7.69322 9.12683 7.90019 9.4135 8.19397 9.76016C8.49442 10.1068 8.8149 10.4602 9.16209 10.8135C9.52263 11.1668 9.86981 11.4935 10.2237 11.7935C10.5709 12.0868 10.858 12.2868 11.085 12.4068C11.1184 12.4202 11.1584 12.4402 11.2052 12.4602C11.2586 12.4802 11.312 12.4868 11.3721 12.4868C11.4856 12.4868 11.5724 12.4468 11.6458 12.3735L12.1532 11.8735C12.3202 11.7068 12.4804 11.5802 12.634 11.5002C12.7875 11.4068 12.9411 11.3602 13.108 11.3602C13.2349 11.3602 13.3684 11.3868 13.5153 11.4468C13.6622 11.5068 13.8157 11.5935 13.9827 11.7068L16.1926 13.2735C16.3662 13.3935 16.4864 13.5335 16.5598 13.7002C16.6266 13.8668 16.6667 14.0335 16.6667 14.2202Z" stroke="white" stroke-miterlimit="10"/>
</svg>
