<svg width="46" height="46" viewBox="0 0 46 46" fill="none" xmlns="http://www.w3.org/2000/svg">
<mask id="path-1-inside-1_226_20585" fill="white">
<path d="M0 23C0 10.2975 10.2975 0 23 0C35.7025 0 46 10.2975 46 23C46 35.7025 35.7025 46 23 46C10.2975 46 0 35.7025 0 23Z"/>
</mask>
<path d="M23 45C10.8497 45 1 35.1503 1 23H-1C-1 36.2548 9.74517 47 23 47V45ZM45 23C45 35.1503 35.1503 45 23 45V47C36.2548 47 47 36.2548 47 23H45ZM23 1C35.1503 1 45 10.8497 45 23H47C47 9.74517 36.2548 -1 23 -1V1ZM23 -1C9.74517 -1 -1 9.74517 -1 23H1C1 10.8497 10.8497 1 23 1V-1Z" fill="#fff" mask="url(#path-1-inside-1_226_20585)"/>
<path d="M27.6484 19.5625L27.2969 23H24.5234V33H20.4219V23H18.3516V19.5625H20.4219V17.4922C20.4219 14.6797 21.5547 13 24.875 13H27.6484V16.4375H25.9297C24.6406 16.4375 24.5234 16.9453 24.5234 17.8438V19.5625H27.6484Z" fill="#fff"/>
</svg>
