<svg width="46" height="46" viewBox="0 0 46 46" fill="none" xmlns="http://www.w3.org/2000/svg">
<mask id="path-1-inside-1_226_20588" fill="white">
<path d="M0 23C0 10.2975 10.2975 0 23 0C35.7025 0 46 10.2975 46 23C46 35.7025 35.7025 46 23 46C10.2975 46 0 35.7025 0 23Z"/>
</mask>
<path d="M23 45C10.8497 45 1 35.1503 1 23H-1C-1 36.2548 9.74517 47 23 47V45ZM45 23C45 35.1503 35.1503 45 23 45V47C36.2548 47 47 36.2548 47 23H45ZM23 1C35.1503 1 45 10.8497 45 23H47C47 9.74517 36.2548 -1 23 -1V1ZM23 -1C9.74517 -1 -1 9.74517 -1 23H1C1 10.8497 10.8497 1 23 1V-1Z" fill="#fff" mask="url(#path-1-inside-1_226_20588)"/>
<path d="M30.9297 18.9375C30.9688 19.0938 30.9688 19.2891 30.9688 19.4453C30.9688 24.875 26.8281 31.125 19.2891 31.125C16.9844 31.125 14.7969 30.4609 13 29.2891C13.3125 29.3281 13.6641 29.3281 13.9766 29.3281C15.8906 29.3281 17.6875 28.7031 19.0938 27.5703C17.2578 27.5312 15.7734 26.3594 15.2656 24.7188C15.5 24.7578 15.7734 24.7969 16.0078 24.7969C16.3984 24.7969 16.75 24.7578 17.1016 24.6797C15.2266 24.2891 13.8203 22.6484 13.8203 20.6562C13.8203 20.6172 13.8203 20.6172 13.8203 20.5781C14.3672 20.8906 14.9922 21.0859 15.6562 21.125C14.5625 20.3828 13.8203 19.1328 13.8203 17.6875C13.8203 16.9453 14.0547 16.2422 14.4062 15.6172C16.3984 18.1172 19.4453 19.7578 22.8438 19.9141C22.7656 19.6016 22.7266 19.2891 22.7266 18.9766C22.7266 16.7109 24.5625 14.875 26.8281 14.875C28.0391 14.875 29.0938 15.3828 29.8359 16.1641C30.7734 16.0078 31.6719 15.6562 32.4531 15.1875C32.1406 16.125 31.4766 16.9453 30.6562 17.4531C31.4766 17.3359 32.2578 17.1406 33 16.7891C32.4531 17.6094 31.75 18.3516 30.9297 18.9375Z" fill="#fff"/>
</svg>
