<svg width="46" height="46" viewBox="0 0 46 46" fill="none" xmlns="http://www.w3.org/2000/svg">
<mask id="path-1-inside-1_226_20591" fill="white">
<path d="M0 23C0 10.2975 10.2975 0 23 0C35.7025 0 46 10.2975 46 23C46 35.7025 35.7025 46 23 46C10.2975 46 0 35.7025 0 23Z"/>
</mask>
<path d="M23 45C10.8497 45 1 35.1503 1 23H-1C-1 36.2548 9.74517 47 23 47V45ZM45 23C45 35.1503 35.1503 45 23 45V47C36.2548 47 47 36.2548 47 23H45ZM23 1C35.1503 1 45 10.8497 45 23H47C47 9.74517 36.2548 -1 23 -1V1ZM23 -1C9.74517 -1 -1 9.74517 -1 23H1C1 10.8497 10.8497 1 23 1V-1Z" fill="#fff" mask="url(#path-1-inside-1_226_20591)"/>
<path d="M13.8203 19.8359H17.8828V31.9844H13.8203V19.8359ZM15.8516 14.0156C14.4844 14.0156 13.5859 14.9141 13.5859 16.0859C13.5859 17.2578 14.4453 18.1953 15.8125 18.1953H15.8516C17.2578 18.1953 18.1172 17.2578 18.1172 16.0859C18.1172 14.9141 17.2578 14.0156 15.8516 14.0156ZM27.7656 19.5625C25.6172 19.5625 24.6406 20.7344 24.1328 21.5938V19.8359H20.1094C20.1094 19.8359 20.1484 21.0078 20.1094 31.9844H24.1328V25.2266C24.1328 24.8359 24.1719 24.4844 24.25 24.2109C24.5625 23.5078 25.2266 22.7656 26.3203 22.7656C27.8047 22.7656 28.3906 23.8594 28.3906 25.5V31.9844H32.4141V25.0312C32.4141 21.3203 30.4219 19.5625 27.7656 19.5625Z" fill="#fff"/>
</svg>
