<svg width="46" height="46" viewBox="0 0 46 46" fill="none" xmlns="http://www.w3.org/2000/svg">
<mask id="path-1-inside-1_226_20594" fill="white">
<path d="M0 23C0 10.2975 10.2975 0 23 0C35.7025 0 46 10.2975 46 23C46 35.7025 35.7025 46 23 46C10.2975 46 0 35.7025 0 23Z"/>
</mask>
<path d="M23 45C10.8497 45 1 35.1503 1 23H-1C-1 36.2548 9.74517 47 23 47V45ZM45 23C45 35.1503 35.1503 45 23 45V47C36.2548 47 47 36.2548 47 23H45ZM23 1C35.1503 1 45 10.8497 45 23H47C47 9.74517 36.2548 -1 23 -1V1ZM23 -1C9.74517 -1 -1 9.74517 -1 23H1C1 10.8497 10.8497 1 23 1V-1Z" fill="#fff" mask="url(#path-1-inside-1_226_20594)"/>
<path d="M22.7656 20.5391C23.2734 20.5391 23.6641 20.3828 23.9375 19.9922C24.1719 19.7188 24.25 19.25 24.25 18.6641V16.7109C24.25 16.125 24.1719 15.6953 23.9375 15.4219C23.6641 15.0312 23.2734 14.8359 22.7656 14.8359C22.2578 14.8359 21.8672 15.0312 21.5938 15.4219C21.3984 15.6953 21.2812 16.125 21.2812 16.7109V18.6641C21.2812 19.25 21.3984 19.6797 21.5938 19.9922C21.8672 20.3828 22.2578 20.5391 22.7656 20.5391ZM22.2969 16.5156C22.2969 16.0078 22.4531 15.7344 22.7656 15.7344C23.1172 15.7344 23.2344 16.0078 23.2344 16.5156V18.8594C23.2344 19.3672 23.1172 19.6406 22.7656 19.6406C22.4531 19.6406 22.2969 19.3672 22.2969 18.8594V16.5156ZM25.1875 20.1484C25.1094 19.9922 25.0703 19.7188 25.0703 19.2891V14.9141H26.0859V19.0156C26.0859 19.25 26.0859 19.3672 26.125 19.4062C26.125 19.5625 26.2031 19.6406 26.3594 19.6406C26.5547 19.6406 26.75 19.4844 26.9844 19.1719V14.9141H28V20.4609H26.9844V19.875C26.5938 20.3438 26.2031 20.5391 25.8516 20.5391C25.5 20.5391 25.2656 20.4219 25.1875 20.1484ZM29.0547 26.9062V27.4141H28.0391V26.9062C28.0391 26.3984 28.1953 26.125 28.5469 26.125C28.8594 26.125 29.0547 26.3984 29.0547 26.9062ZM18.1172 15.0703C17.8828 14.4062 17.6484 13.7031 17.4141 13H18.5859L19.3672 15.9297L20.1484 13H21.2812L19.9141 17.4531V20.4609H18.8203V17.4531C18.7031 16.9062 18.4688 16.125 18.1172 15.0703ZM30.9688 23.3516C30.7734 22.4531 30.0703 21.7891 29.2109 21.7109C27.1406 21.4766 25.0703 21.4766 23 21.4766C20.9297 21.4766 18.8594 21.4766 16.8281 21.7109C15.9297 21.7891 15.2266 22.4531 15.0312 23.3516C14.7578 24.6016 14.7188 25.9297 14.7188 27.2578C14.7188 28.5078 14.7188 29.9141 15.0312 31.1641C15.2266 32.0234 15.9297 32.6875 16.7891 32.7656C18.8594 33 20.9297 33 23 33C25.0703 33 27.1406 33 29.2109 32.7656C30.0703 32.6875 30.7734 32.0234 30.9688 31.1641C31.2422 29.9141 31.2812 28.5078 31.2812 27.2578C31.2812 25.9297 31.2812 24.6016 30.9688 23.3516ZM19.4453 24.4453H18.2734V30.8125H17.1406V24.4453H15.9688V23.4297H19.4453V24.4453ZM22.4531 30.8125H21.4766V30.2266C21.0859 30.6562 20.6953 30.8906 20.3438 30.8906C19.9922 30.8906 19.7578 30.7734 19.6797 30.4609C19.6406 30.3047 19.6016 30.0703 19.6016 29.6797V25.3047H20.5781V29.3672C20.5781 29.6016 20.5781 29.7188 20.6172 29.7578C20.6172 29.9141 20.6953 29.9922 20.8516 29.9922C21.0469 29.9922 21.2422 29.8359 21.4766 29.5234V25.3047H22.4531V30.8125ZM26.2422 29.1719C26.2422 29.6797 26.2422 30.0312 26.1641 30.2656C26.0469 30.6953 25.7734 30.8906 25.3828 30.8906C24.9922 30.8906 24.6797 30.6953 24.3281 30.2656V30.8125H23.3516V23.4297H24.3281V25.8516C24.6406 25.4219 24.9922 25.2266 25.3828 25.2266C25.7734 25.2266 26.0469 25.4609 26.1641 25.8516C26.2422 26.0859 26.2422 26.4375 26.2422 26.9453V29.1719ZM30.0312 28.2344H28.0391V29.2109C28.0391 29.7188 28.1953 29.9922 28.5469 29.9922C28.7812 29.9922 28.9375 29.8359 28.9766 29.6016C29.0156 29.5234 29.0156 29.2891 29.0156 28.8984H30.0312V29.0547C30.0312 29.3672 30.0312 29.6016 29.9922 29.6797C29.9922 29.9141 29.9141 30.1094 29.7578 30.3047C29.5234 30.6953 29.0938 30.8906 28.5859 30.8906C28.0391 30.8906 27.6484 30.6953 27.375 30.3047C27.1406 30.0703 27.0234 29.6016 27.0234 29.0156V27.1016C27.0234 26.5156 27.1406 26.0859 27.3359 25.8125C27.6484 25.4219 28.0391 25.2266 28.5469 25.2266C29.0547 25.2266 29.4453 25.4219 29.7188 25.8125C29.9531 26.0859 30.0312 26.5156 30.0312 27.1016V28.2344ZM25.2656 26.8672V29.25C25.2656 29.7578 25.1094 29.9922 24.8359 29.9922C24.6797 29.9922 24.4844 29.9141 24.3281 29.7578V26.3984C24.4844 26.2031 24.6797 26.125 24.8359 26.125C25.1094 26.125 25.2656 26.3984 25.2656 26.8672Z" fill="#fff"/>
</svg>
