<svg width="238" height="252" viewBox="0 0 238 252" fill="none" xmlns="http://www.w3.org/2000/svg">
<g clip-path="url(#clip0_4213_207987)">
<mask id="mask0_4213_207987" style="mask-type:luminance" maskUnits="userSpaceOnUse" x="0" y="0" width="238" height="252">
<path d="M237.392 0.0385132H0.605469V251.962H237.392V0.0385132Z" fill="white"/>
</mask>
<g mask="url(#mask0_4213_207987)">
<path d="M49.946 226.616C48.431 224.035 48.431 221.399 48.433 218.736C48.4497 186.211 48.4533 153.686 48.444 121.161C48.444 101.923 48.4413 82.6855 48.436 63.4475C48.3707 60.6613 49.3307 57.9482 51.1337 55.8231C52.9368 53.6979 55.4574 52.3089 58.217 51.9195C58.6751 51.8592 59.1372 51.8358 59.599 51.8495C98.259 51.8495 136.92 51.8462 175.581 51.8395C175.91 51.8087 176.241 51.8561 176.548 51.9777C176.854 52.0994 177.128 52.2919 177.346 52.5395C184.235 60.1015 191.146 67.6422 198.079 75.1615C201.639 79.0455 205.185 82.9418 208.718 86.8505C209.047 87.2278 209.239 87.7054 209.262 88.2055C209.293 100.353 209.303 112.5 209.29 124.646C209.29 147.491 209.29 170.336 209.29 193.181C209.29 202.429 209.29 211.678 209.29 220.927C209.239 222.904 208.753 224.846 207.865 226.614C208.952 226.614 209.92 226.614 210.886 226.614C211.657 226.614 212.429 226.594 213.198 226.591C213.596 226.561 213.996 226.613 214.372 226.744C214.749 226.875 215.095 227.082 215.389 227.352C215.682 227.622 215.917 227.95 216.079 228.314C216.241 228.679 216.326 229.073 216.329 229.472C216.333 229.871 216.254 230.266 216.098 230.633C215.943 231.001 215.713 231.332 215.424 231.607C215.135 231.882 214.793 232.095 214.419 232.232C214.044 232.37 213.645 232.429 213.247 232.406C211.213 232.419 209.178 232.406 207.147 232.406C185.69 232.406 164.233 232.406 142.776 232.406C123.322 232.406 103.869 232.402 84.416 232.396C64.5613 232.396 44.707 232.398 24.853 232.404C24.2028 232.46 23.5527 232.295 23.0081 231.935C22.4635 231.576 22.0565 231.043 21.853 230.423C21.6144 229.831 21.5921 229.173 21.79 228.567C21.9879 227.96 22.3933 227.442 22.935 227.105C23.5235 226.788 24.181 226.622 24.849 226.622C26.598 226.558 28.349 226.599 30.21 226.599C29.8429 225.805 29.5357 224.985 29.291 224.146C28.9713 222.867 28.7846 221.558 28.734 220.241C28.693 206.641 28.706 193.048 28.705 179.452C28.705 155.158 28.705 130.864 28.705 106.571C28.705 92.0195 28.68 77.4705 28.748 62.9155C28.8521 59.9744 30.0825 57.1858 32.1848 55.1263C34.287 53.0669 37.1004 51.8941 40.043 51.8505C42.381 51.8505 44.72 51.8505 47.192 51.8505C47.033 52.1305 46.94 52.3005 46.842 52.4675C45.942 53.9675 45.006 55.4495 44.181 56.9885C44.1076 57.2001 43.9648 57.3806 43.7758 57.5008C43.5868 57.621 43.3628 57.6737 43.14 57.6505C42.31 57.6225 41.475 57.6785 40.64 57.6395C39.8305 57.5957 39.0208 57.7214 38.2627 58.0087C37.5046 58.2959 36.8149 58.7384 36.2377 59.3076C35.6605 59.8769 35.2086 60.5605 34.9109 61.3145C34.6132 62.0686 34.4764 62.8765 34.509 63.6865C34.552 67.6645 34.509 71.6395 34.509 75.6175V139.627C34.509 166.51 34.5023 193.394 34.489 220.278C34.4509 221.123 34.5896 221.967 34.8964 222.756C35.2031 223.545 35.671 224.261 36.2703 224.859C36.8695 225.456 37.5869 225.922 38.3765 226.227C39.1661 226.531 40.0106 226.668 40.856 226.628C43.537 226.567 46.221 226.617 48.903 226.615H49.938M203.48 91.4525H202.24C196.229 91.4525 190.217 91.4525 184.206 91.4525C182.101 91.4883 180.028 90.9341 178.221 89.8525C176.394 88.7995 174.891 87.2657 173.874 85.418C172.858 83.5703 172.368 81.4794 172.457 79.3725C172.44 72.5605 172.437 65.7472 172.447 58.9325C172.447 57.6475 172.454 57.6455 171.147 57.6455H107.701C91.855 57.6455 76.01 57.6765 60.164 57.6205C59.3822 57.5996 58.6042 57.7377 57.8774 58.0264C57.1505 58.3152 56.4898 58.7485 55.9354 59.3002C55.381 59.8519 54.9444 60.5104 54.6521 61.2359C54.3599 61.9613 54.2179 62.7386 54.235 63.5205C54.2877 86.1792 54.298 108.839 54.266 131.5C54.266 161.402 54.266 191.305 54.266 221.208C54.2577 221.574 54.3011 221.94 54.395 222.295C54.7085 223.596 55.4733 224.745 56.5535 225.535C57.6338 226.326 58.9595 226.709 60.295 226.615C82.0903 226.615 103.886 226.615 125.683 226.615C149.606 226.615 173.529 226.612 197.452 226.608C198.189 226.617 198.922 226.503 199.622 226.272C202.216 225.353 203.467 223.439 203.467 220.508C203.467 205.125 203.467 189.742 203.467 174.358V91.4575L203.48 91.4525ZM178.422 62.3365L178.222 62.4155V63.2995C178.222 68.6625 178.212 74.0265 178.222 79.3915C178.17 80.2269 178.297 81.0639 178.594 81.8465C178.891 82.6291 179.351 83.3394 179.944 83.93C180.537 84.5206 181.25 84.9779 182.033 85.2715C182.817 85.5651 183.655 85.6882 184.49 85.6325C189.206 85.6392 193.923 85.6392 198.64 85.6325C198.935 85.6325 199.23 85.6015 199.726 85.5735L178.426 62.3355" fill="#71347B"/>
<path d="M118.903 238.01C127.934 238.01 136.964 238.01 145.994 238.01C146.487 238.005 146.979 238.03 147.469 238.084C148.139 238.129 148.766 238.432 149.218 238.928C149.67 239.425 149.912 240.077 149.894 240.748C149.906 241.42 149.664 242.071 149.216 242.572C148.768 243.073 148.148 243.386 147.479 243.448C146.742 243.511 146.002 243.531 145.263 243.508C138.763 243.508 132.255 243.519 125.75 243.48C124.82 243.48 124.594 243.803 124.643 244.661C124.759 246.728 124.386 246.469 126.493 246.478C129.945 246.493 133.393 246.478 136.849 246.478C138.737 246.478 140.049 247.587 140.042 249.178C140.035 250.878 138.788 251.954 136.808 251.954C126.575 251.95 116.342 251.943 106.108 251.933C104.66 251.933 103.208 251.941 101.765 251.868C101.232 251.855 100.719 251.666 100.307 251.328C99.8943 250.991 99.6065 250.525 99.4891 250.006C99.2876 249.495 99.2658 248.931 99.4273 248.406C99.5889 247.881 99.9242 247.427 100.378 247.118C101.029 246.727 101.772 246.515 102.531 246.504C105.765 246.44 109.002 246.453 112.24 246.493C113.07 246.503 113.386 246.278 113.354 245.401C113.274 243.248 113.58 243.501 111.49 243.501C104.678 243.486 97.8661 243.501 91.0541 243.486C90.5672 243.528 90.078 243.438 89.6375 243.226C89.1971 243.014 88.8216 242.688 88.5501 242.282C88.2786 241.876 88.1211 241.404 88.094 240.916C88.067 240.428 88.1713 239.941 88.3961 239.508C88.6819 238.991 89.1157 238.572 89.6417 238.305C90.1677 238.038 90.7617 237.934 91.3471 238.008C94.1831 238.029 97.0181 238.008 99.8541 238.008C106.203 238.008 112.552 238.008 118.902 238.008" fill="#71347B"/>
<path d="M161.209 243.498C159.421 243.498 157.633 243.509 155.844 243.498C155.469 243.523 155.092 243.472 154.738 243.346C154.384 243.22 154.06 243.023 153.785 242.767C153.51 242.51 153.291 242.2 153.141 241.855C152.991 241.511 152.914 241.139 152.914 240.763C152.914 240.387 152.991 240.015 153.141 239.671C153.291 239.326 153.51 239.016 153.785 238.759C154.06 238.503 154.384 238.306 154.738 238.18C155.092 238.054 155.469 238.003 155.844 238.029C159.45 238.019 163.057 238.009 166.663 238.049C168.982 238.075 170.287 240.049 169.329 242.017C169.099 242.493 168.731 242.889 168.273 243.154C167.814 243.419 167.287 243.539 166.76 243.501C164.91 243.516 163.06 243.501 161.21 243.501" fill="#71347B"/>
<path d="M76.6524 243.513C74.8344 243.513 73.0174 243.526 71.1994 243.513C70.6703 243.533 70.1465 243.4 69.6914 243.129C69.2363 242.858 68.8696 242.462 68.6354 241.987C68.4109 241.56 68.3093 241.08 68.3419 240.599C68.3746 240.118 68.5403 239.656 68.8204 239.264C69.0468 238.891 69.3665 238.584 69.7479 238.372C70.1294 238.161 70.5594 238.053 70.9954 238.059C74.7534 238.03 78.5114 237.992 82.2694 238.049C82.6428 238.024 83.017 238.08 83.367 238.213C83.7169 238.345 84.0345 238.551 84.2985 238.816C84.5624 239.081 84.7666 239.4 84.8973 239.75C85.0281 240.101 85.0823 240.475 85.0564 240.849C85.0462 241.22 84.9606 241.585 84.8048 241.922C84.649 242.258 84.4264 242.56 84.1503 242.808C83.8743 243.057 83.5507 243.246 83.1991 243.365C82.8476 243.484 82.4755 243.531 82.1054 243.502C80.2874 243.525 78.4704 243.502 76.6524 243.502V243.515" fill="#71347B"/>
<path d="M224.048 226.639C224.785 226.639 225.523 226.611 226.259 226.646C226.972 226.655 227.655 226.937 228.168 227.433C228.681 227.929 228.985 228.602 229.018 229.315C229.085 230.014 228.879 230.712 228.444 231.264C228.009 231.816 227.379 232.18 226.683 232.279C224.88 232.44 223.067 232.44 221.264 232.279C220.914 232.219 220.58 232.091 220.28 231.901C219.98 231.712 219.72 231.465 219.516 231.175C219.311 230.885 219.166 230.558 219.088 230.211C219.011 229.865 219.003 229.507 219.064 229.158C219.103 228.493 219.39 227.866 219.869 227.403C220.347 226.939 220.982 226.672 221.648 226.655C222.442 226.609 223.243 226.647 224.042 226.647V226.639" fill="#71347B"/>
<path d="M14.0067 226.644C14.7767 226.644 15.5497 226.613 16.3177 226.652C16.9865 226.66 17.6278 226.92 18.1132 227.38C18.5986 227.84 18.8924 228.466 18.9357 229.133C19.0507 230.764 18.2357 232.12 16.7357 232.261C14.9272 232.423 13.1081 232.428 11.2987 232.276C10.6161 232.178 9.9966 231.823 9.56551 231.285C9.13441 230.746 8.92396 230.064 8.97673 229.376C8.99431 228.661 9.28554 227.979 9.79054 227.471C10.2955 226.963 10.9759 226.668 11.6917 226.646C12.4597 226.607 13.2327 226.639 14.0027 226.646" fill="#71347B"/>
<path d="M120.48 40.5925C120.486 41.7284 120.048 42.8217 119.258 43.6384C118.469 44.4551 117.391 44.9304 116.256 44.9625C115.107 44.9549 114.005 44.503 113.182 43.7014C112.359 42.8999 111.878 41.8109 111.84 40.6625C111.844 39.5108 112.305 38.4078 113.121 37.5948C113.936 36.7818 115.041 36.325 116.193 36.3245C117.325 36.3279 118.411 36.7781 119.214 37.5772C120.016 38.3763 120.471 39.4599 120.48 40.5925ZM116.175 42.6145C116.7 42.613 117.206 42.4113 117.588 42.0506C117.97 41.6899 118.201 41.1971 118.233 40.6725C118.214 40.1312 117.994 39.6163 117.616 39.2281C117.238 38.8399 116.729 38.6062 116.189 38.5725C115.648 38.5892 115.135 38.8168 114.76 39.2065C114.384 39.5963 114.176 40.1174 114.18 40.6585C114.175 40.9202 114.223 41.1802 114.322 41.4226C114.421 41.6649 114.569 41.8845 114.755 42.068C114.942 42.2514 115.164 42.3949 115.408 42.4895C115.652 42.5842 115.913 42.6281 116.175 42.6185" fill="#71347B"/>
<path d="M237.389 229.495C237.403 229.871 237.34 230.246 237.205 230.597C237.07 230.949 236.865 231.269 236.603 231.539C236.341 231.809 236.027 232.023 235.68 232.168C235.333 232.313 234.96 232.387 234.584 232.384C234.199 232.383 233.818 232.306 233.463 232.156C233.108 232.007 232.786 231.79 232.515 231.516C232.245 231.242 232.031 230.917 231.886 230.56C231.742 230.203 231.669 229.822 231.672 229.436C231.677 229.06 231.757 228.687 231.908 228.342C232.058 227.996 232.276 227.684 232.548 227.423C232.821 227.163 233.142 226.959 233.494 226.824C233.846 226.689 234.221 226.625 234.598 226.636C234.975 226.617 235.352 226.678 235.704 226.816C236.056 226.953 236.375 227.164 236.639 227.434C236.903 227.705 237.106 228.028 237.235 228.383C237.364 228.738 237.416 229.117 237.388 229.493" fill="#71347B"/>
<path d="M0.603678 229.465C0.578222 229.087 0.633667 228.709 0.766298 228.355C0.898929 228.001 1.10568 227.68 1.37271 227.412C1.63974 227.144 1.96087 226.937 2.31459 226.803C2.66831 226.67 3.04645 226.614 3.42368 226.639C3.80037 226.63 4.17497 226.697 4.52562 226.835C4.87626 226.972 5.19591 227.179 5.4659 227.442C5.73589 227.704 5.9508 228.018 6.09807 228.365C6.24535 228.712 6.32205 229.085 6.32368 229.462C6.31967 230.223 6.02069 230.953 5.48959 231.498C4.95848 232.044 4.23661 232.362 3.47568 232.387C3.09147 232.397 2.70926 232.328 2.35286 232.184C1.99645 232.04 1.67348 231.824 1.40407 231.55C1.13465 231.276 0.924544 230.95 0.786844 230.591C0.649144 230.232 0.586795 229.848 0.603678 229.465Z" fill="#71347B"/>
<path d="M199.93 53.3355C199.552 53.3392 199.178 53.2672 198.829 53.1239C198.48 52.9806 198.164 52.7689 197.898 52.5012C197.632 52.2335 197.423 51.9152 197.282 51.5653C197.141 51.2153 197.072 50.8407 197.079 50.4635C197.081 50.0815 197.16 49.7038 197.31 49.3523C197.459 49.0008 197.677 48.6825 197.951 48.4156C198.224 48.1487 198.548 47.9387 198.903 47.7975C199.258 47.6563 199.637 47.5869 200.019 47.5932C200.401 47.5994 200.778 47.6813 201.128 47.834C201.478 47.9868 201.795 48.2074 202.059 48.4831C202.324 48.7588 202.531 49.0841 202.669 49.4403C202.807 49.7965 202.873 50.1766 202.864 50.5585C202.861 50.9358 202.782 51.3087 202.632 51.6548C202.481 52.0008 202.262 52.3129 201.988 52.5723C201.714 52.8316 201.391 53.033 201.037 53.1641C200.683 53.2953 200.306 53.3536 199.93 53.3355ZM201.301 50.5055C201.289 50.1675 201.153 49.8457 200.919 49.6017C200.685 49.3576 200.369 49.2084 200.032 49.1825C199.676 49.18 199.332 49.3138 199.072 49.5565C198.812 49.7992 198.654 50.1323 198.632 50.4875C198.671 50.8233 198.82 51.137 199.055 51.3804C199.289 51.6238 199.597 51.7837 199.932 51.8355C200.284 51.8214 200.618 51.6779 200.872 51.4326C201.125 51.1872 201.278 50.8571 201.304 50.5055" fill="#71347B"/>
<path d="M11.4458 22.2515C11.8313 22.2369 12.2157 22.3035 12.5739 22.447C12.932 22.5905 13.2561 22.8076 13.525 23.0843C13.7939 23.361 14.0016 23.6911 14.1347 24.0533C14.2679 24.4154 14.3234 24.8015 14.2978 25.1865C14.2956 25.5637 14.2186 25.9367 14.0713 26.2839C13.924 26.6311 13.7092 26.9456 13.4395 27.2093C13.1698 27.473 12.8505 27.6805 12.5 27.8199C12.1495 27.9594 11.7749 28.0279 11.3978 28.0215C10.6354 27.9966 9.91244 27.6767 9.38133 27.1292C8.85022 26.5817 8.55245 25.8493 8.55078 25.0865C8.55123 24.7088 8.62702 24.335 8.77372 23.9869C8.92042 23.6388 9.13507 23.3235 9.40513 23.0594C9.67518 22.7953 9.9952 22.5878 10.3465 22.4489C10.6977 22.31 11.0731 22.2425 11.4508 22.2505M11.4438 26.4165C11.7807 26.4085 12.1031 26.2783 12.3511 26.0502C12.5991 25.822 12.7557 25.5115 12.7918 25.1765C12.7766 24.8238 12.6352 24.4884 12.3932 24.2314C12.1512 23.9743 11.8249 23.8129 11.4738 23.7765C11.1219 23.7936 10.7893 23.9423 10.5418 24.193C10.2944 24.4438 10.1502 24.7784 10.1378 25.1305C10.1525 25.4694 10.2945 25.7902 10.5355 26.0288C10.7766 26.2674 11.0988 26.4062 11.4378 26.4175" fill="#71347B"/>
<path d="M12.5805 76.8415L11.4225 77.5475L10.0125 74.4455C9.44753 75.5935 8.99753 76.5125 8.49953 77.5255C8.15053 77.3065 7.85253 77.1255 7.45953 76.8755C8.08353 76.0235 8.66853 75.2235 9.25453 74.4235C9.22653 74.3395 9.19753 74.2565 9.16953 74.1725L6.26953 74.4325V73.2235L9.15453 73.5495L9.31953 73.3105L7.45153 70.8235L8.56653 70.1235C9.02853 71.1025 9.46653 72.0235 10.0275 73.2185C10.5615 72.0675 10.9905 71.1435 11.4605 70.1285L12.5855 70.7805C11.9335 71.6695 11.3315 72.4935 10.7285 73.3175L10.8645 73.5415L13.8205 73.2615C13.8435 73.6615 13.8645 74.0135 13.8895 74.4505L10.8335 74.1595C10.7865 74.2315 10.7335 74.3055 10.6895 74.3785L12.5805 76.8415Z" fill="#71347B"/>
<path d="M226.159 101.297C225.587 101.294 225.029 101.122 224.554 100.802C224.08 100.482 223.712 100.029 223.495 99.4991C223.279 98.9695 223.225 98.3876 223.34 97.8272C223.455 97.2668 223.734 96.7531 224.141 96.3513C224.548 95.9494 225.065 95.6775 225.627 95.57C226.189 95.4625 226.77 95.5242 227.297 95.7473C227.824 95.9705 228.272 96.3449 228.586 96.8233C228.9 97.3017 229.064 97.8625 229.059 98.4345C229.053 99.1983 228.744 99.9285 228.201 100.465C227.657 101.001 226.923 101.3 226.159 101.297ZM227.433 98.3965C227.421 98.0609 227.29 97.7405 227.063 97.4929C226.836 97.2453 226.528 97.0867 226.195 97.0455C225.841 97.0623 225.506 97.214 225.261 97.4695C225.015 97.725 224.876 98.0649 224.872 98.4195C224.878 98.758 225.01 99.0821 225.243 99.3275C225.476 99.5729 225.793 99.7217 226.131 99.7445C226.306 99.7446 226.479 99.7095 226.64 99.6412C226.801 99.5729 226.946 99.4728 227.068 99.3469C227.189 99.2211 227.284 99.0721 227.346 98.9087C227.409 98.7454 227.438 98.5712 227.431 98.3965" fill="#71347B"/>
<path d="M59.8245 40.6405C59.8341 41.0182 59.7676 41.3939 59.629 41.7454C59.4904 42.0969 59.2825 42.4169 59.0177 42.6864C58.753 42.9559 58.4367 43.1694 58.0878 43.3143C57.7388 43.4591 57.3643 43.5323 56.9865 43.5295C56.2243 43.5201 55.4956 43.2146 54.9544 42.6778C54.4133 42.1409 54.1021 41.4147 54.0865 40.6525C54.0786 40.2672 54.1496 39.8844 54.2952 39.5276C54.4408 39.1708 54.6579 38.8476 54.9331 38.5778C55.2084 38.3081 55.5359 38.0976 55.8956 37.9593C56.2553 37.821 56.6395 37.7577 57.0245 37.7735C57.4019 37.7588 57.7782 37.8234 58.1291 37.9632C58.4799 38.1029 58.7976 38.3148 59.0615 38.585C59.3254 38.8552 59.5296 39.1777 59.6611 39.5318C59.7925 39.8859 59.8482 40.2636 59.8245 40.6405ZM57.0145 39.3095C56.8451 39.3008 56.6757 39.3268 56.5166 39.3858C56.3575 39.4448 56.2121 39.5356 56.0893 39.6527C55.9665 39.7697 55.8689 39.9106 55.8024 40.0667C55.7359 40.2228 55.7019 40.3908 55.7025 40.5605C55.6867 40.7295 55.7063 40.8999 55.76 41.061C55.8137 41.222 55.9004 41.37 56.0145 41.4956C56.1287 41.6212 56.2677 41.7217 56.4229 41.7905C56.578 41.8594 56.7458 41.8951 56.9155 41.8955C57.0918 41.9151 57.2702 41.8968 57.4388 41.8417C57.6074 41.7866 57.7622 41.696 57.8929 41.5761C58.0235 41.4561 58.127 41.3096 58.1963 41.1463C58.2655 40.983 58.2991 40.8068 58.2945 40.6295C58.2887 40.2877 58.1526 39.961 57.9139 39.7162C57.6753 39.4714 57.3521 39.327 57.0105 39.3125" fill="#71347B"/>
<path d="M226.463 31.7715C226.849 31.5225 227.128 31.3425 227.534 31.0825C227.994 32.0565 228.428 32.9755 228.977 34.1395C229.493 32.9995 229.904 32.0945 230.361 31.0885L231.443 31.6885C230.809 32.5725 230.231 33.3805 229.56 34.3155C230.189 34.3155 230.66 34.3415 231.129 34.3075C231.598 34.2735 232.089 34.1785 232.672 34.0945C232.695 34.5135 232.711 34.8345 232.738 35.2945C231.685 35.2095 230.704 35.1295 229.438 35.0275C230.204 36.0275 230.807 36.8125 231.48 37.6905C231.097 37.9095 230.769 38.0995 230.34 38.3475C229.898 37.3765 229.485 36.4725 228.966 35.3345C228.417 36.4265 227.966 37.3155 227.474 38.3045L226.421 37.7295L228.43 34.9915C227.244 35.1115 226.314 35.2045 225.258 35.3125C225.24 34.9325 225.222 34.5885 225.199 34.1055L228.427 34.4215L226.467 31.7705" fill="#71347B"/>
<path d="M166.769 27.6745C166.46 27.8565 166.209 28.0055 165.857 28.2115C165.466 27.3915 165.105 26.6325 164.642 25.6605C164.161 26.5985 163.776 27.3405 163.36 28.1475L162.466 27.7075C163.003 26.9725 163.499 26.2945 164.166 25.3775C163.321 25.4475 162.733 25.4705 162.157 25.5525C161.517 25.6445 161.283 25.4265 161.512 24.6525L164.206 24.8785L162.506 22.5675C162.82 22.3725 163.082 22.2055 163.406 22.0055C163.814 22.8555 164.177 23.6155 164.646 24.5875C165.113 23.6245 165.479 22.8695 165.892 22.0215C166.198 22.2045 166.442 22.3495 166.753 22.5325L165.084 24.8895C165.72 24.7877 166.362 24.725 167.006 24.7015C167.31 24.7759 167.598 24.9083 167.853 25.0915C167.584 25.2385 167.324 25.4915 167.047 25.5095C166.389 25.5075 165.731 25.4654 165.079 25.3835C165.727 26.2595 166.224 26.9325 166.769 27.6725" fill="#71347B"/>
<path d="M86.0594 23.8955C85.9594 24.6245 87.1434 24.9125 86.4594 25.9425C86.1234 25.2425 85.8914 24.7585 85.5764 24.1015C85.2174 24.7015 84.9214 25.1935 84.6184 25.7015C84.4034 25.4425 84.4544 25.2595 85.0854 23.9325C84.7214 23.9325 84.4094 23.9455 84.0964 23.9325C83.8759 23.9141 83.6575 23.877 83.4434 23.8215C83.4315 23.7405 83.4377 23.6579 83.4614 23.5795C83.6852 23.5286 83.9131 23.4978 84.1424 23.4875C84.4094 23.4805 84.6774 23.5085 85.1884 23.5315C84.9054 23.1075 84.7234 22.8605 84.5674 22.5945C84.4517 22.3924 84.3588 22.1781 84.2904 21.9555C84.3643 21.8733 84.4594 21.8131 84.5654 21.7815C84.7357 21.9298 84.8845 22.1011 85.0074 22.2905C85.1794 22.5675 85.3154 22.8655 85.5624 23.3435C85.8324 22.7905 85.9884 22.4035 86.2074 22.0565C86.2914 21.9255 86.5204 21.8865 86.6824 21.8055C86.6744 21.9875 86.7234 22.2055 86.6434 22.3425C86.4484 22.6815 86.1934 22.9845 85.8434 23.4695C86.3934 23.4695 86.7654 23.4515 87.1334 23.4765C87.3249 23.499 87.5115 23.5531 87.6854 23.6365C87.7091 23.7181 87.7038 23.8054 87.6704 23.8835C87.4828 23.9458 87.287 23.9795 87.0894 23.9835C86.7424 23.9755 86.3954 23.9275 86.0564 23.8965" fill="#71347B"/>
<path d="M166.913 211.278C159.579 211.278 152.243 211.278 144.903 211.278C143.725 211.371 142.548 211.099 141.531 210.499C140.513 209.9 139.705 209.001 139.216 207.926C138.852 207.146 138.659 206.297 138.649 205.435C138.614 192.396 138.608 179.356 138.631 166.315C138.597 165.518 138.73 164.722 139.02 163.978C139.31 163.235 139.751 162.559 140.316 161.995C140.881 161.431 141.557 160.991 142.301 160.701C143.045 160.412 143.841 160.281 144.639 160.315C151.139 160.277 157.647 160.297 164.153 160.297C172.383 160.297 180.613 160.301 188.845 160.307C192.854 160.307 195.205 162.7 195.203 166.702C195.195 179.436 195.195 192.169 195.203 204.903C195.275 205.726 195.172 206.555 194.901 207.336C194.63 208.117 194.197 208.832 193.631 209.434C193.064 210.035 192.377 210.511 191.614 210.828C190.851 211.145 190.029 211.298 189.203 211.275C181.773 211.275 174.343 211.275 166.913 211.275V211.278ZM189.343 166.23H144.554V205.379H189.344L189.343 166.23Z" fill="#5C5D60"/>
<path d="M90.7898 152.08C83.4518 152.08 76.1158 152.023 68.7798 152.106C67.9515 152.136 67.1261 151.994 66.3547 151.691C65.5833 151.388 64.8825 150.93 64.2958 150.344C63.709 149.759 63.2489 149.059 62.9439 148.289C62.6389 147.518 62.4956 146.693 62.5228 145.864C62.6098 132.978 62.5568 120.094 62.5588 107.208C62.5065 106.396 62.6274 105.584 62.9134 104.823C63.1994 104.062 63.6439 103.371 64.2176 102.795C64.7912 102.219 65.4807 101.772 66.2404 101.483C67.0001 101.194 67.8125 101.07 68.6238 101.119C83.2351 101.109 97.8471 101.102 112.46 101.096C114.83 101.096 116.885 101.705 118.149 103.829C118.649 104.635 118.935 105.554 118.981 106.5C119.033 119.91 119.044 133.32 119.012 146.729C118.936 148.193 118.293 149.569 117.22 150.566C116.147 151.564 114.728 152.104 113.263 152.072C107.992 152.101 102.719 152.083 97.4478 152.085C95.2291 152.085 93.0098 152.085 90.7898 152.085V152.08ZM113.204 107.043H68.4038V146.159H113.204V107.043Z" fill="#5C5D60"/>
<path d="M106.234 73.1235C118.901 73.1235 131.571 73.1235 144.243 73.1235C144.986 73.1006 145.726 73.2289 146.418 73.5005C147.109 73.7721 147.739 74.1814 148.268 74.7035C148.797 75.2257 149.214 75.8498 149.494 76.5381C149.775 77.2264 149.913 77.9644 149.899 78.7075C149.928 81.2655 149.919 83.8245 149.924 86.3825C149.932 90.4765 147.674 92.7095 143.557 92.7035C136.837 92.6922 130.117 92.6855 123.397 92.6835C107.029 92.6835 90.6599 92.6895 74.2913 92.7015C72.3493 92.7015 70.4073 92.7165 68.4663 92.6735C65.2253 92.6035 62.9823 90.7515 62.7763 87.5395C62.5767 84.3115 62.5974 81.0737 62.8383 77.8485C62.9338 76.5482 63.5283 75.3353 64.4974 74.4631C65.4665 73.5909 66.7352 73.1271 68.0383 73.1685C72.0433 73.0885 76.0523 73.1125 80.0593 73.1115C88.7839 73.1048 97.5083 73.1048 106.232 73.1115L106.234 73.1235ZM106.303 78.6125H86.6033C80.7773 78.6125 74.9509 78.6125 69.1243 78.6125C68.5793 78.6125 68.1513 78.6355 68.1583 79.3655C68.1749 81.7068 68.1726 84.0495 68.1513 86.3935C68.1443 87.0415 68.4363 87.2695 69.0513 87.2455C69.7603 87.2175 70.4693 87.2305 71.1783 87.2305C81.5976 87.2305 92.0173 87.2282 102.437 87.2235C109.004 87.2235 115.571 87.2262 122.137 87.2315C129.227 87.2315 136.318 87.2315 143.408 87.2475C144.199 87.2475 144.508 86.9965 144.497 86.1845C144.459 83.9655 144.463 81.7455 144.489 79.5265C144.497 78.8465 144.26 78.6075 143.574 78.6175C141.54 78.6455 139.505 78.6175 137.474 78.6105C127.086 78.6105 116.697 78.6105 106.307 78.6105" fill="#5C5D60"/>
<path d="M161.291 140.763C151.057 140.763 140.823 140.763 130.591 140.763C128.343 140.763 127.008 139.181 127.506 137.111C127.609 136.609 127.859 136.149 128.225 135.79C128.591 135.432 129.055 135.19 129.559 135.098C130.042 134.998 130.534 134.951 131.026 134.959C151.186 134.952 171.345 134.957 191.505 134.974C192.329 134.959 193.144 135.14 193.884 135.503C194.414 135.829 194.819 136.325 195.032 136.91C195.246 137.495 195.256 138.135 195.061 138.727C194.876 139.321 194.504 139.839 194.001 140.206C193.498 140.573 192.891 140.768 192.268 140.763C189.247 140.784 186.227 140.774 183.206 140.774H161.291V140.763Z" fill="#5C5D60"/>
<path d="M96.4214 199.96C86.2494 199.96 76.0764 199.96 65.9024 199.96C63.7734 199.96 62.4764 198.76 62.5584 196.901C62.6324 195.242 63.9764 194.145 65.9584 194.143C70.3057 194.139 74.6524 194.136 78.9984 194.136L126.719 194.146C127.96 194.146 129.141 194.302 129.873 195.481C130.165 195.912 130.334 196.413 130.362 196.932C130.39 197.452 130.275 197.968 130.031 198.427C129.786 198.886 129.421 199.269 128.974 199.535C128.528 199.802 128.017 199.941 127.497 199.938C124.816 200.005 122.132 199.967 119.452 199.967C111.776 199.967 104.1 199.967 96.4244 199.967L96.4214 199.96Z" fill="#5C5D60"/>
<path d="M161.363 112.419C171.472 112.419 181.581 112.417 191.692 112.412C192.229 112.349 192.773 112.42 193.275 112.62C193.777 112.82 194.221 113.143 194.567 113.558C194.912 113.979 195.124 114.492 195.178 115.033C195.231 115.573 195.123 116.118 194.867 116.597C194.597 117.141 194.169 117.589 193.639 117.884C193.109 118.178 192.502 118.306 191.898 118.248C189.062 118.261 186.227 118.248 183.391 118.248C165.882 118.248 148.375 118.248 130.869 118.248C129.097 118.248 127.936 117.548 127.545 116.286C127.385 115.849 127.334 115.379 127.397 114.917C127.46 114.455 127.635 114.016 127.906 113.637C128.178 113.258 128.537 112.951 128.954 112.743C129.371 112.535 129.832 112.431 130.298 112.441C132.636 112.387 134.983 112.42 137.323 112.42C145.337 112.42 153.352 112.42 161.367 112.42L161.363 112.419Z" fill="#5C5D60"/>
<path d="M96.4329 171.618C106.607 171.618 116.781 171.618 126.955 171.618C127.539 171.546 128.131 171.644 128.661 171.902C129.19 172.16 129.632 172.566 129.935 173.07C131.107 175.17 129.707 177.401 127.161 177.439C124.572 177.477 121.982 177.452 119.391 177.452C101.602 177.452 83.8133 177.452 66.0239 177.452C65.4396 177.523 64.8472 177.43 64.3119 177.186C63.7766 176.941 63.3192 176.553 62.9899 176.065C62.7079 175.629 62.5499 175.123 62.5328 174.604C62.5157 174.084 62.6401 173.569 62.8927 173.115C63.1453 172.66 63.5167 172.283 63.9671 172.023C64.4175 171.763 64.93 171.631 65.4499 171.639C68.4399 171.592 71.4299 171.619 74.4199 171.619C81.7579 171.619 89.0956 171.618 96.4329 171.618Z" fill="#5C5D60"/>
<path d="M161.255 129.339C151.055 129.339 140.855 129.3 130.655 129.372C128.606 129.387 126.699 127.402 127.933 125.232C128.184 124.784 128.556 124.417 129.007 124.172C129.457 123.927 129.968 123.814 130.479 123.847C135.471 123.847 140.462 123.847 145.454 123.847H190.754C191.247 123.847 191.741 123.847 192.233 123.86C192.596 123.855 192.956 123.922 193.293 124.058C193.63 124.193 193.936 124.395 194.195 124.649C194.453 124.904 194.659 125.208 194.799 125.543C194.939 125.877 195.012 126.237 195.012 126.6C195.014 126.963 194.942 127.323 194.801 127.658C194.661 127.994 194.454 128.297 194.194 128.551C193.933 128.805 193.625 129.003 193.286 129.135C192.947 129.268 192.586 129.33 192.222 129.32C186.861 129.345 181.5 129.343 176.138 129.346C171.178 129.35 166.218 129.35 161.256 129.346L161.255 129.339Z" fill="#5C5D60"/>
<path d="M96.4777 205.624C106.712 205.624 116.946 205.621 127.178 205.616C127.751 205.573 128.323 205.706 128.818 205.999C129.312 206.291 129.705 206.729 129.944 207.252C130.161 207.7 130.241 208.202 130.176 208.695C130.111 209.189 129.902 209.652 129.576 210.029C129.272 210.402 128.882 210.694 128.439 210.881C127.996 211.067 127.513 211.142 127.035 211.098C122.225 211.098 117.416 211.098 112.608 211.098C103.729 211.098 94.851 211.098 85.9737 211.098C79.255 211.098 72.535 211.091 65.8137 211.078C64.1337 211.078 63.1217 210.339 62.8137 209.021C62.7046 208.624 62.6893 208.208 62.7689 207.804C62.8484 207.401 63.0207 207.021 63.2721 206.696C63.5235 206.371 63.8471 206.108 64.2174 205.929C64.5877 205.75 64.9945 205.66 65.4057 205.666C67.5917 205.601 69.7827 205.628 71.9707 205.627C80.14 205.627 88.309 205.627 96.4777 205.627V205.624Z" fill="#5C5D60"/>
<path d="M96.4269 183.04C106.663 183.04 116.899 183.04 127.134 183.04C127.511 183.009 127.891 183.055 128.25 183.175C128.61 183.294 128.941 183.484 129.226 183.733C129.511 183.983 129.743 184.287 129.908 184.627C130.073 184.968 130.168 185.338 130.188 185.717C130.195 186.096 130.123 186.473 129.977 186.824C129.831 187.175 129.614 187.491 129.34 187.754C129.065 188.017 128.74 188.221 128.383 188.352C128.027 188.483 127.647 188.539 127.268 188.517C120.668 188.545 114.068 188.538 107.477 188.54C97.0249 188.54 86.5736 188.537 76.1229 188.533C72.5779 188.533 69.0329 188.546 65.4869 188.515C64.8802 188.531 64.2858 188.341 63.802 187.974C63.3182 187.608 62.9739 187.087 62.8259 186.499C62.7096 186.08 62.6952 185.639 62.784 185.214C62.8727 184.788 63.0621 184.39 63.3363 184.053C63.6104 183.716 63.9613 183.449 64.3597 183.275C64.758 183.101 65.1922 183.025 65.6259 183.054C70.8049 183.036 75.9849 183.039 81.1639 183.038C86.2499 183.038 91.3366 183.038 96.4239 183.038" fill="#5C5D60"/>
<path d="M161.181 106.791C152.394 106.791 143.608 106.791 134.823 106.791C133.374 106.791 131.923 106.799 130.477 106.773C130.101 106.8 129.723 106.75 129.368 106.624C129.012 106.498 128.686 106.301 128.41 106.043C128.135 105.786 127.915 105.475 127.765 105.128C127.615 104.782 127.538 104.409 127.539 104.032C127.54 103.655 127.619 103.282 127.77 102.937C127.922 102.591 128.143 102.281 128.42 102.025C128.697 101.769 129.024 101.573 129.38 101.449C129.736 101.325 130.114 101.276 130.49 101.304C133.665 101.281 136.84 101.296 140.015 101.296C149.048 101.296 158.081 101.296 167.115 101.296C175.315 101.296 183.515 101.306 191.715 101.325C192.269 101.315 192.82 101.394 193.349 101.558C193.887 101.778 194.339 102.167 194.637 102.666C194.935 103.165 195.063 103.747 195.001 104.325C194.939 104.903 194.692 105.445 194.295 105.87C193.898 106.295 193.374 106.579 192.802 106.68C191.945 106.778 191.082 106.815 190.22 106.791C180.541 106.798 170.862 106.798 161.183 106.791" fill="#5C5D60"/>
<path d="M96.4625 165.995C86.3211 165.995 76.1798 165.995 66.0385 165.995C63.8445 165.995 62.4805 164.695 62.7585 162.843C62.8149 162.252 63.0806 161.701 63.5077 161.289C63.9348 160.877 64.4951 160.631 65.0875 160.596C67.2705 160.49 69.4615 160.496 71.6475 160.496C80.6181 160.486 89.5885 160.486 98.5585 160.496C107.466 160.496 116.374 160.502 125.282 160.514C126.083 160.487 126.884 160.505 127.682 160.568C128.374 160.617 129.02 160.931 129.485 161.444C129.95 161.958 130.199 162.632 130.179 163.324C130.16 164.017 129.874 164.676 129.38 165.162C128.887 165.649 128.224 165.927 127.531 165.937C125.438 166.022 123.341 165.999 121.245 165.999C112.984 166.005 104.723 166.005 96.4635 165.999L96.4625 165.995Z" fill="#5C5D60"/>
<path d="M161.175 146.414C171.316 146.414 181.457 146.414 191.597 146.414C193.797 146.414 195.091 147.493 195.006 149.267C194.989 149.872 194.763 150.453 194.365 150.91C193.967 151.367 193.423 151.672 192.825 151.772C192.062 151.87 191.294 151.91 190.525 151.893C179.925 151.901 169.322 151.903 158.716 151.901C149.375 151.901 140.036 151.901 130.698 151.901C130.062 151.964 129.422 151.816 128.878 151.48C128.334 151.144 127.916 150.638 127.688 150.041C127.501 149.529 127.481 148.971 127.631 148.447C127.781 147.923 128.093 147.46 128.523 147.125C129.132 146.724 129.839 146.496 130.567 146.467C134.017 146.395 137.467 146.416 140.923 146.415C147.673 146.415 154.423 146.415 161.174 146.415" fill="#5C5D60"/>
<path d="M121.332 7.45951L120.14 8.15951L118.551 4.82451L116.871 8.07851L115.702 7.50251C116.402 6.54151 117.053 5.65351 117.931 4.45551C116.824 4.54751 116.054 4.57551 115.298 4.68351C114.46 4.80351 114.157 4.51951 114.456 3.50151L117.978 3.80151C117.138 2.65551 116.484 1.76951 115.751 0.772513C116.16 0.517513 116.508 0.300513 116.925 0.0385132L118.546 3.41551C119.158 2.15651 119.637 1.17051 120.177 0.0605132L121.304 0.727513L119.129 3.81951C119.962 3.68484 120.802 3.60268 121.644 3.57351C122.043 3.67122 122.419 3.84397 122.753 4.08251C122.401 4.27451 122.053 4.60851 121.697 4.62951C120.837 4.62582 119.977 4.57072 119.123 4.46451L121.332 7.46451" fill="#71347B"/>
</g>
</g>
<defs>
<clipPath id="clip0_4213_207987">
<rect width="236.787" height="251.923" fill="white" transform="translate(0.605469 0.0385132)"/>
</clipPath>
</defs>
</svg>
