<svg width="500" height="354" viewBox="0 0 500 354" fill="none" xmlns="http://www.w3.org/2000/svg">
<path d="M76.3351 84.3973C-19.575 139.771 -19.572 229.549 76.34 284.923C172.252 340.297 327.755 340.297 423.665 284.923C519.575 229.549 519.572 139.771 423.66 84.3973C327.748 29.0233 172.245 29.0243 76.3351 84.3973Z" fill="#F5F5F5"/>
<path d="M448.136 84.3665C447.638 84.8545 446.835 85.5355 445.818 86.4095C439.425 91.8475 424.534 104.503 422.653 122.138L420.6 121.609C420.417 102.276 434.047 82.4655 443.429 78.4605C443.653 78.3685 443.754 78.1145 443.663 77.8915C443.561 77.6675 443.307 77.5665 443.084 77.6575C433.631 81.6825 419.624 101.097 419.726 121.385L418.333 121.029C417.815 119.271 414.755 107.073 423.273 90.8805C424.757 88.0645 426.414 85.4725 428.172 83.1655L428.253 83.0635C434.179 75.3585 441.192 70.9575 446 72.5235C448.46 73.3265 450.096 74.9735 450.604 77.1685C451.175 79.6095 450.26 82.3035 448.136 84.3665Z" fill="white"/>
<path d="M437.189 66.2953C433.337 71.8143 429.352 77.5163 427.502 82.6293C425.703 84.9673 424.006 87.6093 422.501 90.4763C419.756 95.6803 418.202 100.498 417.358 104.696C416.575 75.3313 432.686 52.2983 437.605 48.1923C437.788 48.0403 437.818 47.7653 437.656 47.5823C437.503 47.3993 437.229 47.3693 437.046 47.5213C431.811 51.8823 414.136 77.2623 416.707 108.955C416.707 108.965 416.707 108.986 416.717 108.996C416.128 114.881 416.931 119.069 417.357 120.736L414.928 120.004C414.278 117.798 409.216 99.1673 413.373 74.4883C415.589 61.3053 423.232 48.4573 431.547 43.9543C435.399 41.8703 439.17 41.5963 442.758 43.1613C444.71 44.0153 445.868 45.1843 446.315 46.7493C447.618 51.3433 442.546 58.6003 437.189 66.2953Z" fill="white"/>
<path d="M451.461 76.9787C450.882 74.5087 448.991 72.5877 446.267 71.7037C441.652 70.1897 435.198 73.7167 429.445 80.2617C428.795 81.0137 428.144 81.7967 427.504 82.6297C425.705 84.9677 424.008 87.6097 422.503 90.4767C419.758 95.6807 418.204 100.499 417.36 104.697C417.065 106.212 416.862 107.655 416.72 108.997C416.131 114.882 416.934 119.07 417.36 120.737C417.482 121.245 417.574 121.52 417.584 121.54C417.625 121.642 417.696 121.723 417.787 121.774L417.868 121.804C417.878 121.814 417.878 121.814 417.888 121.814L419.992 122.353L422.93 123.105C422.991 123.125 423.042 123.125 423.103 123.115C423.164 123.105 423.235 123.084 423.286 123.044C423.388 122.973 423.459 122.851 423.469 122.729C425.085 105.185 440.007 92.4897 446.39 87.0717C447.416 86.1977 448.229 85.5067 448.748 84.9877C451.085 82.7107 452.101 79.7127 451.461 76.9787ZM448.137 84.3677C447.639 84.8557 446.836 85.5367 445.819 86.4107C439.426 91.8487 424.535 104.504 422.654 122.139L420.601 121.61L419.727 121.386L418.334 121.03C417.816 119.272 414.756 107.074 423.274 90.8817C424.758 88.0657 426.415 85.4737 428.173 83.1667L428.254 83.0647C434.18 75.3597 441.193 70.9587 446.001 72.5247C448.461 73.3277 450.097 74.9747 450.605 77.1697C451.176 79.6107 450.261 82.3047 448.137 84.3677Z" fill="#BA68C8"/>
<path d="M443.431 78.4627C434.049 82.4677 420.419 102.278 420.602 121.611V121.947C420.612 122.16 420.45 122.354 420.236 122.384H420.175C420.114 122.384 420.053 122.374 419.992 122.354C419.85 122.283 419.738 122.13 419.738 121.957C419.738 121.774 419.728 121.581 419.728 121.388C419.626 101.1 433.633 81.6857 443.086 77.6607C443.31 77.5687 443.564 77.6707 443.665 77.8947C443.756 78.1167 443.655 78.3707 443.431 78.4627Z" fill="#BA68C8"/>
<path d="M437.902 66.7931C434.751 71.3061 431.508 75.9611 429.445 80.2611C428.998 81.1961 428.612 82.1111 428.286 83.0051C428.276 83.0251 427.889 83.3301 427.727 83.2691C427.503 83.1881 427.392 82.9341 427.473 82.7101C427.483 82.6791 427.493 82.6591 427.503 82.6291C429.353 77.5161 433.337 71.8141 437.19 66.2951C442.547 58.6001 447.619 51.3431 446.318 46.7491C445.871 45.1841 444.712 44.0151 442.761 43.1611C439.173 41.5961 435.402 41.8701 431.55 43.9541C423.236 48.4571 415.592 61.3051 413.376 74.4881C409.219 99.1671 414.281 117.799 414.931 120.004L417.36 120.736L418.122 120.97C418.346 121.041 418.478 121.285 418.407 121.519C418.356 121.682 418.224 121.793 418.061 121.824C418 121.834 417.929 121.824 417.868 121.804L417.787 121.774L414.453 120.778C414.311 120.737 414.199 120.626 414.158 120.493C414.097 120.3 408.069 100.713 412.511 74.3471C414.778 60.9201 422.604 47.8081 431.132 43.1931C435.229 40.9671 439.264 40.6931 443.106 42.3701C445.281 43.3151 446.643 44.7081 447.151 46.5171C448.564 51.4951 443.39 58.9261 437.902 66.7931Z" fill="#BA68C8"/>
<path d="M437.606 48.1913C432.687 52.2973 416.576 75.3303 417.359 104.695C417.39 106.077 417.471 107.48 417.583 108.883C417.603 109.117 417.441 109.32 417.217 109.35C417.207 109.35 417.187 109.35 417.176 109.36C416.952 109.37 416.759 109.218 416.719 108.994C416.709 108.984 416.709 108.963 416.709 108.953C414.138 77.2603 431.813 51.8803 437.048 47.5193C437.231 47.3673 437.505 47.3973 437.658 47.5803C437.819 47.7643 437.789 48.0393 437.606 48.1913Z" fill="#BA68C8"/>
<path d="M277.977 253.247L270.5 248.929L275.939 245.789C278.771 244.149 279.194 241.828 279.194 240.584C279.191 239.347 278.766 237.026 275.934 235.392L262.388 227.571C260.886 226.704 259.103 226.263 257.08 226.261C255.063 226.262 253.28 226.704 251.781 227.569L242.643 232.846L195.418 205.58C193.917 204.715 192.136 204.275 190.119 204.273C188.106 204.273 186.322 204.713 184.813 205.581L165.512 216.725C163.846 217.689 162.753 218.639 162.052 219.741C161.219 221.074 160.962 222.715 161.308 224.716L171.298 274.704C171.878 277.215 173.76 279.404 176.891 281.21L190.437 289.031C191.94 289.899 193.72 290.339 195.727 290.339H195.737C197.756 290.339 199.541 289.899 201.04 289.032L239.447 266.856L250.631 273.313C252.135 274.181 253.914 274.621 255.943 274.621C257.951 274.621 259.733 274.182 261.238 273.314L277.97 263.651C280.808 262.022 281.235 259.696 281.237 258.44C281.236 257.203 280.809 254.88 277.977 253.247ZM203.601 255.385L201.357 244.127L212.229 250.404L203.601 255.385Z" fill="#E0E0E0"/>
<path d="M63.2941 249.346C71.0011 252.156 78.3721 255.919 85.1951 260.528C92.8641 265.708 99.8681 271.966 108.042 276.268C118.665 281.859 130.878 283.883 142.838 283.308C149.612 282.983 156.983 281.501 161.336 276.158C162.451 274.79 163.341 273.13 163.37 271.354C163.413 268.746 161.637 266.508 159.797 264.712C149.983 255.13 136.253 251.186 123.008 248.102C109.763 245.018 101.828 241.165 88.8391 234.225C83.2801 231.254 77.8031 228.062 72.2011 225.261C72.1561 225.238 72.1101 225.216 72.0651 225.193C69.2211 223.779 66.5511 222.215 63.5511 221.111C59.7181 219.701 56.5421 218.674 52.3141 218.986C48.1031 219.297 43.3591 219.236 40.3901 222.666C37.8131 225.644 37.5321 229.667 39.0691 233.21C43.1761 242.678 54.4311 246.115 63.2941 249.346Z" fill="#E0E0E0"/>
<path d="M353.188 175.453C349.803 173.303 346.06 171.042 342.062 168.733C338.097 166.444 334.099 164.236 330.15 162.155C325.091 159.543 319.519 157.39 313.587 155.752C307.604 154.102 301.289 153.227 294.82 153.147L293.946 153.143C287.772 153.143 281.371 153.936 274.922 155.502C268.129 157.155 261.308 159.943 254.645 163.789C247.746 167.773 242.899 171.752 239.829 175.959C236.618 180.367 235.068 184.831 235.224 189.23C235.382 193.623 237.11 197.837 240.352 201.75C243.3 205.317 247.152 208.648 251.828 211.671C255.327 213.886 259.156 216.197 263.209 218.537C267.261 220.877 271.175 223.037 274.862 224.966C279.934 227.585 285.508 229.738 291.425 231.369C297.408 233.021 303.723 233.897 310.193 233.973L311.07 233.978C317.259 233.978 323.659 233.185 330.091 231.619C336.882 229.966 343.705 227.179 350.367 223.332C357.271 219.345 362.117 215.366 365.183 211.165C368.398 206.759 369.948 202.292 369.789 197.891C369.631 193.504 367.905 189.291 364.659 185.37C361.707 181.8 357.855 178.469 353.188 175.453ZM330.211 201.93C329.865 202.457 328.885 203.569 326.213 205.111C324.003 206.387 321.824 207.267 319.733 207.726C318.066 208.092 316.402 208.277 314.787 208.277C314.347 208.277 313.907 208.264 313.466 208.237C311.424 208.112 309.406 207.717 307.465 207.061C305.397 206.361 303.326 205.462 301.259 204.359C293.747 200.507 286.635 196.4 280.06 192.116C278.287 191.011 276.849 189.888 275.785 188.784C275.004 187.971 274.513 187.188 274.367 186.537C274.34 186.411 274.256 186.026 274.802 185.193C275.146 184.669 276.123 183.559 278.799 182.014C281.014 180.735 283.195 179.855 285.277 179.399C286.882 179.047 288.472 178.869 290.005 178.869C290.487 178.869 290.964 178.886 291.435 178.921C293.464 179.071 295.48 179.481 297.423 180.138C299.53 180.851 301.68 181.744 303.726 182.75C311.015 186.573 318.15 190.693 324.953 195.006C326.755 196.135 328.241 197.269 329.364 198.375C330.118 199.12 330.577 199.834 330.689 200.44C330.716 200.586 330.798 201.034 330.211 201.93Z" fill="#E0E0E0"/>
<path d="M464.659 145.465L457.181 141.147L462.621 138.007C465.453 136.368 465.875 134.047 465.875 132.808C465.875 131.572 465.452 129.253 462.616 127.609L449.072 119.791C447.574 118.924 445.791 118.483 443.76 118.478C441.744 118.482 439.963 118.922 438.462 119.788L429.324 125.065L382.1 97.8002C380.601 96.9352 378.818 96.4932 376.799 96.4922C374.788 96.4922 373.003 96.9302 371.494 97.7992L352.195 108.941C350.532 109.903 349.437 110.851 348.729 111.961C347.898 113.295 347.642 114.936 347.988 116.935L357.98 166.923C358.56 169.434 360.441 171.622 363.571 173.429L377.117 181.249C378.619 182.119 380.4 182.559 382.409 182.559H382.419C384.435 182.559 386.219 182.119 387.722 181.251L426.129 159.077L437.313 165.534C438.816 166.402 440.601 166.842 442.625 166.842C444.635 166.842 446.416 166.402 447.918 165.534L464.65 155.872C467.483 154.246 467.915 151.922 467.919 150.655C467.916 149.415 467.487 147.099 464.659 145.465ZM390.281 147.604L388.037 136.346L398.909 142.623L390.281 147.604Z" fill="#E0E0E0"/>
<path d="M274.642 243.584L257.898 253.245C256.964 253.793 255.809 254.06 254.446 254.06C253.083 254.06 251.942 253.793 251.008 253.245L237.968 245.718L197.708 268.967C196.774 269.501 195.619 269.782 194.255 269.782C192.892 269.782 191.751 269.501 190.803 268.967L177.26 261.143C175.037 259.869 173.763 258.491 173.422 257.009L163.45 207.133C163.391 206.807 163.376 206.511 163.376 206.244C163.376 207.207 163.361 219.654 163.376 220.262C163.376 220.499 163.406 220.751 163.45 221.033L173.422 270.909C173.763 272.391 175.037 273.769 177.26 275.043L190.803 282.867C191.751 283.401 192.892 283.682 194.255 283.682C195.618 283.682 196.774 283.401 197.708 282.867L237.968 259.618L251.008 267.145C251.942 267.693 253.082 267.96 254.446 267.96C255.809 267.96 256.965 267.693 257.898 267.145L274.642 257.484C275.576 256.936 276.05 256.284 276.05 255.484V241.585C276.05 242.369 275.576 243.036 274.642 243.584Z" fill="#BA68C8"/>
<path d="M274.005 237.628V223.729C274.005 224.514 273.531 225.181 272.597 225.729L261.602 232.071L273.471 238.917C273.813 238.532 274.005 238.102 274.005 237.628Z" fill="#BA68C8"/>
<path d="M197.784 235.672L206.111 240.502L218.158 233.553L194.642 219.965L197.769 235.672H197.784Z" fill="#BA68C8"/>
<path opacity="0.35" d="M197.784 235.672L206.111 240.502L218.158 233.553L194.642 219.965L197.769 235.672H197.784Z" fill="black"/>
<path opacity="0.2" d="M274.005 237.628V223.729C274.005 224.514 273.531 225.181 272.597 225.729L261.602 232.071L273.471 238.917C273.813 238.532 274.005 238.102 274.005 237.628Z" fill="black"/>
<path opacity="0.2" d="M274.641 243.584L257.897 253.245C256.963 253.793 255.808 254.06 254.445 254.06V267.959C255.808 267.959 256.964 267.692 257.897 267.144L274.641 257.483C275.575 256.935 276.049 256.283 276.049 255.483V241.584C276.049 242.369 275.575 243.036 274.641 243.584Z" fill="black"/>
<path opacity="0.25" d="M173.423 257.009L163.451 207.133C163.392 206.807 163.377 206.511 163.377 206.244C163.377 207.207 163.362 219.654 163.377 220.262C163.377 220.499 163.407 220.751 163.451 221.033L173.423 270.909C173.482 271.19 173.586 271.472 173.734 271.754V257.855C173.586 257.572 173.482 257.29 173.423 257.009Z" fill="black"/>
<path opacity="0.35" d="M194.256 269.783C192.893 269.783 191.752 269.502 190.804 268.968L177.261 261.144C175.468 260.122 174.283 259.025 173.734 257.854V271.753C174.282 272.924 175.468 274.02 177.261 275.042L190.804 282.866C191.752 283.4 192.893 283.681 194.256 283.681C194.389 283.681 194.508 283.681 194.641 283.651V269.752C194.508 269.783 194.389 269.783 194.256 269.783Z" fill="black"/>
<path opacity="0.2" d="M197.709 268.968C196.864 269.457 195.842 269.724 194.642 269.753V283.652C195.842 283.622 196.865 283.356 197.709 282.867L237.969 259.618V245.719L197.709 268.968Z" fill="black"/>
<path opacity="0.35" d="M251.008 253.246L237.968 245.719V259.618L251.008 267.145C251.942 267.693 253.082 267.96 254.446 267.96V254.061C253.083 254.061 251.942 253.795 251.008 253.246Z" fill="black"/>
<path d="M257.905 253.245C256.965 253.787 255.814 254.058 254.452 254.056C253.089 254.056 251.941 253.785 251.003 253.244L237.967 245.718L197.708 268.963C196.771 269.504 195.624 269.774 194.257 269.774C192.892 269.775 191.746 269.503 190.808 268.962L177.262 261.141C175.046 259.862 173.769 258.485 173.427 257.009L163.459 207.129C163.289 206.145 163.375 205.383 163.713 204.842C164.057 204.302 164.781 203.71 165.887 203.07L185.184 191.929C186.121 191.39 187.272 191.119 188.637 191.117C190 191.119 191.15 191.389 192.085 191.929L241.161 220.263L252.152 213.917C253.087 213.377 254.241 213.107 255.604 213.104C256.969 213.107 258.117 213.376 259.054 213.917L272.6 221.738C273.538 222.279 274.007 222.944 274.007 223.729C274.007 224.518 273.535 225.182 272.6 225.722L261.609 232.068L274.643 239.593C275.583 240.136 276.05 240.799 276.052 241.585C276.05 242.373 275.581 243.038 274.643 243.577L257.905 253.245ZM218.155 233.544L194.641 219.968L199.496 244.317L218.155 233.544Z" fill="#BA68C8"/>
<path d="M364.614 181.867C364.555 185.216 363.236 188.639 360.702 192.121C357.975 195.855 353.426 199.574 347.025 203.264C340.638 206.954 334.208 209.576 327.732 211.162C321.256 212.733 314.93 213.489 308.75 213.414C302.586 213.34 296.629 212.51 290.924 210.939C285.219 209.368 279.929 207.323 275.069 204.805C271.409 202.894 267.586 200.775 263.571 198.463C259.57 196.152 255.821 193.899 252.324 191.677C247.982 188.876 244.441 185.824 241.729 182.534C238.988 179.23 237.565 175.807 237.447 172.236C237.521 174.444 237.358 183.705 237.447 186.135C237.565 189.706 238.988 193.129 241.729 196.433C244.441 199.723 247.982 202.775 252.324 205.576C255.821 207.799 259.57 210.051 263.571 212.362C267.586 214.674 271.41 216.792 275.069 218.719C279.929 221.223 285.219 223.268 290.924 224.839C296.629 226.41 302.586 227.239 308.75 227.313C314.929 227.387 321.256 226.631 327.732 225.061C334.207 223.475 340.638 220.853 347.025 217.163C353.426 213.474 357.975 209.754 360.702 206.02C363.428 202.286 364.732 198.626 364.599 195.07C364.525 193.025 364.659 185.024 364.614 181.867Z" fill="#BA68C8"/>
<path opacity="0.35" d="M312.163 213.341C311.023 213.383 309.882 213.427 308.752 213.414C302.588 213.34 296.631 212.51 290.926 210.939C285.221 209.368 279.931 207.323 275.071 204.805C271.411 202.894 267.588 200.775 263.573 198.463C259.572 196.152 255.823 193.899 252.326 191.677C247.984 188.876 244.443 185.824 241.731 182.534C238.99 179.23 237.567 175.807 237.449 172.236C237.523 174.444 237.36 183.705 237.449 186.135C237.567 189.706 238.99 193.129 241.731 196.433C244.443 199.723 247.984 202.775 252.326 205.576C255.823 207.799 259.572 210.051 263.573 212.362C267.588 214.674 271.412 216.792 275.071 218.719C279.931 221.223 285.221 223.268 290.926 224.839C296.631 226.41 302.588 227.239 308.752 227.313C309.882 227.327 311.023 227.282 312.163 227.24V213.341Z" fill="black"/>
<path opacity="0.2" d="M364.614 181.867C364.555 185.216 363.236 188.639 360.702 192.121C357.975 195.855 353.426 199.574 347.025 203.264C340.638 206.954 334.208 209.576 327.732 211.162C322.442 212.445 317.256 213.154 312.163 213.341V227.24C317.255 227.053 322.441 226.344 327.732 225.061C334.207 223.475 340.638 220.853 347.025 217.163C353.426 213.474 357.975 209.754 360.702 206.02C363.428 202.286 364.732 198.626 364.599 195.07C364.525 193.025 364.659 185.024 364.614 181.867Z" fill="black"/>
<path d="M271.633 174.487C272.345 175.228 273.174 175.969 274.123 176.68C274.553 176.398 274.982 176.117 275.457 175.835C278.02 174.368 280.524 173.36 282.999 172.812C285.473 172.278 287.889 172.086 290.23 172.264C292.571 172.442 294.868 172.901 297.135 173.657C299.387 174.428 301.669 175.376 303.966 176.502C311.375 180.399 318.532 184.518 325.437 188.904C326.341 189.467 327.17 190.044 327.925 190.607C329.748 189.43 331.068 188.263 331.823 187.096C332.756 185.673 333.097 184.266 332.845 182.888C332.593 181.525 331.808 180.176 330.489 178.872C329.155 177.568 327.481 176.279 325.436 175.005C318.531 170.619 311.374 166.485 303.965 162.603C301.668 161.477 299.386 160.528 297.134 159.758C294.867 159.002 292.57 158.543 290.229 158.365C287.888 158.187 285.473 158.38 282.998 158.913C280.523 159.461 278.019 160.469 275.456 161.936C272.907 163.418 271.159 164.87 270.225 166.292C269.292 167.715 268.966 169.107 269.262 170.456C269.574 171.82 270.359 173.154 271.633 174.487Z" fill="#BA68C8"/>
<path opacity="0.35" d="M271.633 174.487C272.345 175.228 273.174 175.969 274.123 176.68C274.553 176.398 274.982 176.117 275.457 175.835C278.02 174.368 280.524 173.36 282.999 172.812C285.473 172.278 287.889 172.086 290.23 172.264C292.571 172.442 294.868 172.901 297.135 173.657C299.387 174.428 301.669 175.376 303.966 176.502C311.375 180.399 318.532 184.518 325.437 188.904C326.341 189.467 327.17 190.044 327.925 190.607C329.748 189.43 331.068 188.263 331.823 187.096C332.756 185.673 333.097 184.266 332.845 182.888C332.593 181.525 331.808 180.176 330.489 178.872C329.155 177.568 327.481 176.279 325.436 175.005C318.531 170.619 311.374 166.485 303.965 162.603C301.668 161.477 299.386 160.528 297.134 159.758C294.867 159.002 292.57 158.543 290.229 158.365C287.888 158.187 285.473 158.38 282.998 158.913C280.523 159.461 278.019 160.469 275.456 161.936C272.907 163.418 271.159 164.87 270.225 166.292C269.292 167.715 268.966 169.107 269.262 170.456C269.574 171.82 270.359 173.154 271.633 174.487Z" fill="black"/>
<path d="M255.015 150.135C261.404 146.446 267.841 143.814 274.316 142.239C280.791 140.667 287.119 139.916 293.294 139.989C299.469 140.066 305.414 140.888 311.121 142.462C316.83 144.037 322.112 146.078 326.97 148.585C330.803 150.605 334.723 152.768 338.728 155.08C342.733 157.392 346.394 159.606 349.72 161.719C354.063 164.524 357.6 167.575 360.326 170.87C363.054 174.166 364.48 177.6 364.609 181.162C364.737 184.728 363.438 188.383 360.712 192.119C357.983 195.857 353.424 199.573 347.035 203.262C340.646 206.951 334.212 209.582 327.736 211.158C321.264 212.733 314.936 213.482 308.758 213.408C302.583 213.335 296.635 212.512 290.931 210.935C285.22 209.362 279.938 207.32 275.08 204.813C271.416 202.894 267.585 200.779 263.58 198.467C259.575 196.155 255.825 193.893 252.33 191.678C247.987 188.873 244.45 185.824 241.726 182.527C238.996 179.233 237.572 175.801 237.443 172.235C237.317 168.67 238.616 165.017 241.34 161.278C244.069 157.54 248.625 153.825 255.015 150.135ZM325.435 175.003C318.532 170.626 311.376 166.494 303.964 162.607C301.665 161.477 299.384 160.53 297.128 159.766C294.87 159.004 292.569 158.538 290.225 158.364C287.883 158.193 285.472 158.377 283.003 158.918C280.532 159.459 278.021 160.468 275.463 161.943C272.909 163.419 271.161 164.869 270.224 166.296C269.287 167.723 268.969 169.114 269.264 170.465C269.566 171.818 270.352 173.158 271.629 174.487C272.907 175.816 274.569 177.12 276.614 178.397C283.258 182.727 290.417 186.86 298.085 190.793C300.299 191.975 302.536 192.944 304.794 193.708C307.048 194.471 309.372 194.927 311.758 195.072C314.146 195.22 316.574 195.024 319.043 194.482C321.515 193.941 324.029 192.933 326.583 191.457C329.141 189.982 330.885 188.531 331.822 187.104C332.759 185.679 333.103 184.276 332.845 182.898C332.59 181.521 331.801 180.181 330.482 178.877C329.16 177.574 327.477 176.282 325.435 175.003Z" fill="#BA68C8"/>
<path d="M461.323 135.799L444.579 145.46C443.645 146.008 442.49 146.275 441.127 146.275C439.764 146.275 438.623 146.008 437.689 145.46L424.649 137.933L384.39 161.182C383.457 161.715 382.301 161.997 380.937 161.997C379.574 161.997 378.433 161.716 377.485 161.182L363.942 153.358C361.719 152.084 360.445 150.706 360.104 149.224L350.132 99.348C350.073 99.022 350.058 98.726 350.058 98.459C350.058 99.422 350.043 111.869 350.058 112.476C350.058 112.713 350.088 112.965 350.132 113.247L360.104 163.123C360.445 164.605 361.719 165.983 363.942 167.257L377.485 175.081C378.433 175.614 379.574 175.896 380.937 175.896C382.3 175.896 383.456 175.614 384.39 175.081L424.649 151.832L437.689 159.359C438.623 159.907 439.763 160.174 441.127 160.174C442.49 160.174 443.646 159.907 444.579 159.359L461.323 149.698C462.257 149.15 462.731 148.498 462.731 147.698V133.799C462.731 134.584 462.257 135.251 461.323 135.799Z" fill="#BA68C8"/>
<path d="M460.686 129.842V115.943C460.686 116.728 460.212 117.395 459.278 117.943L448.283 124.285L460.152 131.131C460.493 130.746 460.686 130.316 460.686 129.842Z" fill="#BA68C8"/>
<path d="M384.464 127.887L392.791 132.717L404.838 125.768L381.322 112.18L384.449 127.887H384.464Z" fill="#BA68C8"/>
<path opacity="0.35" d="M384.464 127.887L392.791 132.717L404.838 125.768L381.322 112.18L384.449 127.887H384.464Z" fill="black"/>
<path opacity="0.2" d="M460.686 129.842V115.943C460.686 116.728 460.212 117.395 459.278 117.943L448.283 124.285L460.152 131.131C460.493 130.746 460.686 130.316 460.686 129.842Z" fill="black"/>
<path opacity="0.2" d="M461.323 135.799L444.579 145.46C443.645 146.008 442.49 146.275 441.127 146.275V160.174C442.49 160.174 443.646 159.907 444.579 159.359L461.323 149.698C462.257 149.15 462.731 148.498 462.731 147.698V133.799C462.731 134.584 462.257 135.251 461.323 135.799Z" fill="black"/>
<path opacity="0.25" d="M360.103 149.224L350.131 99.348C350.072 99.022 350.057 98.726 350.057 98.459C350.057 99.422 350.042 111.869 350.057 112.476C350.057 112.713 350.087 112.965 350.131 113.247L360.103 163.123C360.162 163.405 360.266 163.686 360.414 163.968V150.069C360.266 149.787 360.163 149.506 360.103 149.224Z" fill="black"/>
<path opacity="0.35" d="M380.938 161.997C379.575 161.997 378.434 161.716 377.486 161.182L363.943 153.358C362.15 152.336 360.965 151.239 360.416 150.068V163.967C360.964 165.138 362.15 166.234 363.943 167.257L377.486 175.081C378.434 175.614 379.575 175.896 380.938 175.896C381.072 175.896 381.19 175.896 381.323 175.866V161.967C381.19 161.997 381.072 161.997 380.938 161.997Z" fill="black"/>
<path opacity="0.2" d="M384.39 161.183C383.545 161.672 382.523 161.939 381.323 161.968V175.867C382.523 175.837 383.546 175.571 384.39 175.082L424.649 151.833V137.934L384.39 161.183Z" fill="black"/>
<path opacity="0.35" d="M437.689 145.461L424.649 137.934V151.833L437.689 159.36C438.623 159.908 439.763 160.175 441.127 160.175V146.276C439.763 146.276 438.622 146.01 437.689 145.461Z" fill="black"/>
<path d="M444.585 145.462C443.646 146.004 442.494 146.275 441.132 146.274C439.769 146.274 438.621 146.003 437.684 145.462L424.648 137.936L384.389 161.181C383.452 161.722 382.305 161.992 380.938 161.992C379.573 161.993 378.427 161.721 377.489 161.18L363.943 153.359C361.727 152.08 360.449 150.703 360.108 149.227L350.14 99.3469C349.971 98.3629 350.056 97.6009 350.394 97.0599C350.738 96.5189 351.462 95.9279 352.568 95.2879L371.865 84.1469C372.802 83.6079 373.953 83.3369 375.318 83.3359C376.681 83.3369 377.831 83.6079 378.766 84.1479L427.842 112.482L438.833 106.136C439.768 105.595 440.921 105.326 442.284 105.323C443.649 105.326 444.797 105.595 445.734 106.136L459.28 113.957C460.218 114.498 460.687 115.163 460.687 115.948C460.687 116.737 460.215 117.401 459.28 117.941L448.289 124.287L461.323 131.812C462.263 132.355 462.73 133.018 462.732 133.804C462.73 134.592 462.261 135.257 461.323 135.796L444.585 145.462ZM404.835 125.762L381.322 112.186L386.177 136.535L404.835 125.762Z" fill="#BA68C8"/>
<path d="M356.496 252.034C356.724 251.901 357.006 251.835 357.34 251.835C357.672 251.835 357.953 251.902 358.182 252.034L361.493 253.946C361.722 254.078 361.838 254.241 361.836 254.432C361.836 254.625 361.722 254.787 361.493 254.919L346.687 263.467C346.458 263.599 346.177 263.666 345.843 263.665C345.511 263.666 345.229 263.6 344.999 263.467L324.82 251.817C324.592 251.685 324.476 251.523 324.475 251.33C324.476 251.138 324.59 250.976 324.82 250.844L339.377 242.439C339.605 242.307 339.887 242.24 340.22 242.24C340.555 242.24 340.836 242.306 341.065 242.439L344.376 244.351C344.604 244.483 344.717 244.645 344.719 244.837C344.718 245.03 344.605 245.192 344.376 245.324L334.754 250.879L338.128 252.827L347.063 247.669C347.291 247.537 347.572 247.47 347.907 247.47C348.239 247.47 348.52 247.537 348.749 247.669L352.06 249.581C352.289 249.713 352.405 249.876 352.403 250.067C352.404 250.261 352.289 250.422 352.06 250.554L343.127 255.712L346.626 257.732L356.496 252.034Z" fill="#455A64"/>
<path d="M361.43 236.2C361.658 236.068 361.941 236.002 362.274 236.002C362.607 236.002 362.888 236.067 363.119 236.201L366.274 238.022C366.502 238.154 366.615 238.316 366.616 238.508C366.615 238.701 366.502 238.863 366.274 238.995L363.431 240.636C361.515 241.743 361.514 242.848 363.431 243.954L371.115 248.391C371.344 248.523 371.459 248.686 371.458 248.877C371.458 249.07 371.344 249.232 371.115 249.364L367.179 251.636C366.95 251.769 366.669 251.834 366.335 251.834C366.002 251.834 365.721 251.769 365.491 251.636L350.935 243.232C350.705 243.099 350.591 242.937 350.591 242.745C350.592 242.552 350.705 242.391 350.935 242.258L354.559 240.166C354.787 240.034 355.069 239.968 355.402 239.968C355.735 239.968 356.017 240.033 356.247 240.167L356.965 240.581C356.986 240.041 357.188 239.491 357.574 238.931C357.959 238.372 358.62 237.821 359.557 237.28L361.43 236.2Z" fill="#455A64"/>
<path d="M376.548 227.47C376.776 227.337 377.059 227.271 377.392 227.271C377.725 227.271 378.006 227.337 378.237 227.47L381.392 229.292C381.621 229.424 381.734 229.587 381.734 229.778C381.734 229.971 381.621 230.133 381.392 230.265L378.549 231.906C376.633 233.013 376.632 234.118 378.549 235.224L386.233 239.661C386.462 239.793 386.577 239.956 386.576 240.147C386.576 240.34 386.462 240.502 386.233 240.634L382.297 242.906C382.068 243.039 381.787 243.104 381.453 243.104C381.121 243.105 380.839 243.039 380.61 242.906L366.054 234.502C365.824 234.369 365.709 234.207 365.709 234.015C365.71 233.823 365.823 233.661 366.052 233.528L369.676 231.437C369.904 231.305 370.187 231.239 370.519 231.238C370.853 231.238 371.133 231.304 371.364 231.437L372.082 231.852C372.104 231.311 372.306 230.761 372.691 230.201C373.076 229.642 373.737 229.092 374.674 228.551L376.548 227.47Z" fill="#455A64"/>
<path d="M403.413 219.967C403.746 220.136 404.157 220.362 404.647 220.644C405.137 220.928 405.526 221.165 405.819 221.357C406.776 221.958 407.484 222.631 407.943 223.377C408.4 224.122 408.594 224.896 408.522 225.695C408.448 226.495 408.083 227.3 407.427 228.111C406.771 228.923 405.807 229.694 404.537 230.428C403.267 231.162 401.928 231.719 400.524 232.098C399.118 232.476 397.723 232.688 396.339 232.729C394.953 232.772 393.614 232.66 392.323 232.395C391.033 232.13 389.866 231.721 388.825 231.168C388.492 231 388.082 230.775 387.591 230.492C387.102 230.209 386.712 229.972 386.419 229.779C385.441 229.19 384.722 228.522 384.265 227.777C383.806 227.032 383.619 226.256 383.702 225.451C383.785 224.645 384.151 223.834 384.796 223.016C385.441 222.198 386.399 221.423 387.67 220.689C388.941 219.955 390.284 219.403 391.7 219.029C393.117 218.657 394.521 218.446 395.917 218.398C397.312 218.35 398.651 218.462 399.931 218.733C401.21 219.003 402.372 219.414 403.413 219.967ZM394.293 227.831C395.147 228.252 396.052 228.444 397.01 228.408C397.968 228.372 398.864 228.114 399.697 227.633C400.53 227.153 400.977 226.636 401.04 226.083C401.103 225.53 400.769 225.007 400.04 224.514C399.769 224.31 399.437 224.093 399.039 223.865C398.644 223.637 398.269 223.443 397.915 223.286C397.06 222.865 396.156 222.675 395.198 222.71C394.238 222.747 393.343 223.004 392.51 223.484C391.677 223.965 391.23 224.483 391.168 225.036C391.105 225.589 391.438 226.113 392.168 226.606C392.438 226.809 392.771 227.027 393.167 227.255C393.564 227.483 393.937 227.675 394.293 227.831Z" fill="#455A64"/>
<path d="M411.533 207.271C411.762 207.139 412.044 207.073 412.377 207.072C412.71 207.073 412.991 207.138 413.222 207.271L416.377 209.093C416.606 209.225 416.719 209.387 416.719 209.579C416.719 209.772 416.606 209.934 416.377 210.066L413.534 211.707C411.618 212.814 411.617 213.919 413.534 215.025L421.218 219.462C421.447 219.594 421.562 219.757 421.561 219.948C421.561 220.141 421.447 220.303 421.218 220.435L417.282 222.707C417.053 222.839 416.772 222.905 416.438 222.905C416.106 222.905 415.824 222.84 415.595 222.707L401.039 214.303C400.809 214.17 400.694 214.008 400.694 213.816C400.695 213.623 400.808 213.461 401.037 213.329L404.661 211.237C404.89 211.105 405.172 211.04 405.504 211.04C405.837 211.04 406.119 211.105 406.35 211.238L407.067 211.652C407.089 211.112 407.291 210.562 407.676 210.002C408.061 209.443 408.722 208.893 409.659 208.351L411.533 207.271Z" fill="#455A64"/>
</svg>
