<svg width="34" height="34" viewBox="0 0 34 34" fill="none" xmlns="http://www.w3.org/2000/svg">
<path d="M17.0002 33.7999C26.2785 33.7999 33.8002 26.2783 33.8002 16.9999C33.8002 7.72157 26.2785 0.200073 17.0002 0.200073C7.72194 0.200073 0.200195 7.72169 0.200195 17.0001C0.200195 26.2785 7.72182 33.7999 17.0002 33.7999ZM17.0002 2.88803C24.7813 2.88803 31.1121 9.21887 31.1121 16.9999C31.1121 24.781 24.7813 31.1119 17.0002 31.1119C9.21912 31.1119 2.88828 24.781 2.88828 16.9999C2.88828 9.21887 9.21838 2.88803 17.0002 2.88803Z" fill="#010002"/>
<path d="M13.8783 24.9242C14.8063 24.9242 15.5583 24.1722 15.5583 23.2441V10.4762C15.5583 9.54819 14.8064 8.79614 13.8783 8.79614C12.9503 8.79614 12.1982 9.54807 12.1982 10.4762V23.2441C12.1982 24.1722 12.9502 24.9242 13.8783 24.9242Z" fill="#010002"/>
<path d="M20.5979 24.9242C21.5259 24.9242 22.2779 24.1722 22.2779 23.2441V10.4762C22.2779 9.54819 21.526 8.79614 20.5979 8.79614C19.6698 8.79614 18.918 9.54819 18.918 10.4762V23.2441C18.918 24.1722 19.6699 24.9242 20.5979 24.9242Z" fill="#010002"/>
</svg>
