<svg width="41" height="40" viewBox="0 0 41 40" fill="none" xmlns="http://www.w3.org/2000/svg">
<path d="M18.8064 39.7679C20.8533 39.9525 22.9292 39.8228 24.9735 39.3755C29.587 38.3658 33.7875 35.6829 36.6426 31.9214C38.6306 29.3022 39.9687 26.1914 40.4561 22.9368C41.1508 18.2975 40.1182 13.5108 37.6381 9.53492C35.1062 5.47632 31.0774 2.41286 26.505 1.01546C25.5419 0.721135 24.5564 0.500784 23.5598 0.356597C18.6772 -0.349933 13.6261 0.776085 9.51526 3.50671C8.91464 3.90569 8.33562 4.33707 7.78158 4.79844C3.94098 7.99716 1.5504 12.383 0.862415 17.3252C0.408566 20.5855 0.747192 23.9244 1.89247 27.0133C2.03861 27.4073 2.19916 27.796 2.3745 28.178C3.35633 30.3171 4.72243 32.2746 6.38324 33.9418C8.23637 35.8022 10.4628 37.3006 12.8889 38.307C14.7947 39.0977 16.7864 39.5858 18.8064 39.7679Z" fill="white"/>
<path d="M1.6212 19.9941C1.6212 20.0155 1.6212 20.037 1.62128 20.0584C1.62848 23.0414 2.36523 26.0055 3.75661 28.6441C5.49718 31.9426 8.24291 34.7161 11.5367 36.4716C15.1152 38.3789 19.3094 39.0998 23.3211 38.5193C27.3188 37.941 31.0727 36.0553 33.9384 33.2118C36.6853 30.4859 38.5631 26.9029 39.2013 23.0831C39.8748 19.0522 39.1875 14.8191 37.256 11.216C35.4072 7.76703 32.4618 4.94177 28.9531 3.21411C25.1151 1.32434 20.6311 0.794951 16.4548 1.70359C15.6884 1.87032 14.9323 2.08449 14.1925 2.34547C10.6539 3.59383 7.50781 5.9153 5.27253 8.92945C2.91724 12.1055 1.62559 16.0412 1.6212 19.9941Z" fill="#FFB9C2"/>
<path d="M33.8267 8.12594C34.2257 8.09721 34.6229 8.02183 35.0146 7.93565C34.9947 7.91052 34.9729 7.8836 34.9476 7.85847C34.5739 7.93925 34.1967 8.00931 33.8195 8.03804C31.8119 8.18888 29.8858 7.19421 28.6109 6.43296C27.0657 5.51015 25.6148 4.4257 24.2982 3.20849C23.9989 2.93201 23.7015 2.64473 23.4132 2.36466C23.0613 2.02533 22.7059 1.68059 22.3359 1.34846C22.2851 1.34306 22.2362 1.33766 22.1854 1.33594C22.5862 1.68959 22.9707 2.06125 23.3497 2.42931C23.6381 2.70939 23.9373 2.99667 24.2366 3.27314C25.5587 4.49576 27.0149 5.58373 28.5638 6.51014C29.8495 7.27671 31.7937 8.28038 33.8267 8.12594Z" fill="#FADED3"/>
<path d="M14.1842 2.34864C14.5034 3.42229 15.4972 4.30197 16.1682 4.79575C19.177 7.00583 22.844 8.18359 26.3914 9.32182C30.1692 10.5337 34.0774 11.7868 37.1605 14.2931C37.846 14.8497 38.479 15.4673 39.0557 16.1333C39.043 16.0723 39.0303 16.013 39.0157 15.9521C38.4662 15.3272 37.8659 14.7492 37.2185 14.2231C34.1208 11.7079 30.2053 10.4511 26.4186 9.23563C22.8785 8.10101 19.2186 6.92497 16.2226 4.72389C15.5606 4.23732 14.5795 3.36836 14.2693 2.31812C14.2404 2.32704 14.2114 2.33604 14.1842 2.34864Z" fill="#FADED3"/>
<path d="M7.92915 6.0317C7.98536 6.21839 8.04344 6.40508 8.09784 6.58825C8.44242 7.73188 8.79607 8.91504 9.59223 9.82165C10.4519 10.8037 11.7993 11.3549 13.107 11.2633C13.9866 11.2005 14.8226 10.8683 15.6297 10.5488C15.9036 10.4393 16.1865 10.3279 16.4676 10.2274C17.864 9.72826 18.9994 9.70846 19.8444 10.1681C20.6732 10.6187 21.2663 11.5882 21.4694 12.8252C21.5764 13.4662 21.5855 14.1286 21.5928 14.7696C21.5982 15.1969 21.6054 15.6404 21.6399 16.073C21.7233 17.1305 22.0879 19.0785 23.5805 20.2544C25.3723 21.6655 27.9621 21.3137 29.7866 20.5112C29.87 20.4753 29.9553 20.4376 30.0386 20.3981C30.6227 20.136 31.2247 19.8631 31.8486 19.9295C32.71 20.0211 33.3285 20.7284 33.6187 21.3604C33.956 22.0929 34.0249 22.9098 34.0902 23.6997L34.6089 29.9835C34.6469 30.4575 34.6922 30.9117 34.7703 31.3372C34.8193 31.6082 34.8809 31.8668 34.9625 32.1145C34.9861 32.0876 35.0096 32.0607 35.0332 32.0338C34.9661 31.8219 34.9117 31.6011 34.87 31.3731C34.7866 30.9351 34.7394 30.4665 34.6995 29.9763L34.1808 23.6926C34.1138 22.8954 34.0466 22.0714 33.702 21.3228C33.401 20.6692 32.7571 19.935 31.8576 19.8398C31.2101 19.7716 30.5953 20.0498 30.0022 20.3174C29.917 20.3551 29.8336 20.3928 29.7502 20.4305C27.9493 21.2205 25.3976 21.5705 23.6366 20.1845C22.1712 19.0301 21.8121 17.1091 21.7305 16.066C21.696 15.6351 21.6887 15.1952 21.6833 14.7698C21.6742 14.1253 21.667 13.4592 21.56 12.8111C21.3496 11.5471 20.7402 10.5543 19.8878 10.0893C19.0191 9.61711 17.8584 9.63504 16.4366 10.1431C16.1555 10.2436 15.8707 10.3568 15.5951 10.4645C14.7953 10.7841 13.9664 11.1127 13.0996 11.1737C11.821 11.2634 10.5026 10.723 9.66104 9.76427C8.87756 8.87019 8.5257 7.69783 8.18473 6.56312C8.12484 6.36563 8.06504 6.16633 8.00336 5.96704C7.97808 5.98685 7.95271 6.00837 7.92915 6.0317Z" fill="#FADED3"/>
<path d="M1.63429 20.6989C1.63429 20.7312 1.6361 20.7654 1.6379 20.7977C1.85371 20.8749 2.08588 20.9108 2.33253 20.8893C3.04712 20.8282 3.57847 20.3129 4.09353 19.8138C4.56147 19.3614 5.04382 18.8946 5.65869 18.7653C6.61085 18.566 7.54118 19.2716 7.96739 20.0723C8.37365 20.8354 8.47518 21.7222 8.5731 22.5805L8.60395 22.8515C8.99933 26.2089 9.93873 29.0509 11.3914 31.3005C11.7324 31.8283 12.164 32.4064 12.7806 32.6973C13.5731 33.0706 14.6413 32.9055 15.4357 32.2843C16.0795 31.7816 16.5782 31.0042 16.9228 29.9719C18.0526 26.5822 16.9699 22.9503 15.8999 20.1638C15.3522 18.7401 14.6486 17.101 13.5767 15.7203C12.4396 14.2607 10.9851 13.2589 9.47619 12.8998C8.53491 12.6754 7.55018 12.688 6.59621 12.6988C6.15911 12.7041 5.70753 12.7096 5.26503 12.6933C4.65564 12.6682 3.93933 12.582 3.26097 12.3523C3.24649 12.381 3.23373 12.408 3.22285 12.4367C3.81228 12.636 4.49416 12.7527 5.26135 12.7831C5.70565 12.7993 6.15903 12.7939 6.59613 12.7885C7.54462 12.7777 8.52583 12.7652 9.45615 12.9878C10.9433 13.3415 12.3815 14.3326 13.5041 15.776C14.5705 17.1458 15.2706 18.7796 15.8146 20.1961C16.8792 22.9682 17.9583 26.5804 16.8375 29.9432C16.4984 30.9594 16.0087 31.7223 15.3811 32.2125C14.6122 32.814 13.5821 32.9755 12.8204 32.6165C12.2237 32.3346 11.8011 31.769 11.4674 31.2538C10.0219 29.015 9.08801 26.1837 8.69443 22.8407L8.66359 22.5715C8.56387 21.7043 8.46226 20.8084 8.047 20.0293C7.6045 19.1998 6.63606 18.4691 5.64037 18.6773C4.99834 18.812 4.50691 19.2895 4.02989 19.7492C3.50395 20.2591 3.00704 20.7421 2.32509 20.7994C2.08047 20.8192 1.8483 20.7797 1.63429 20.6989Z" fill="#FADED3"/>
<path d="M15.1623 30.0823C15.1787 30.0733 15.195 30.0266 15.2094 29.9458C15.2566 29.6963 15.2983 29.1361 15.3309 28.4611C15.3563 27.9422 15.378 27.357 15.3944 26.7949C15.4089 26.33 15.4216 25.8811 15.4306 25.5005C15.4306 25.4987 15.4306 25.4969 15.4306 25.4969C15.4451 24.8523 15.4542 24.4035 15.4542 24.4035L15.4161 24.3442C16.6387 24.982 18.0262 25.2228 19.3913 25.2913C20.503 25.347 21.744 25.3393 22.7751 24.8665C22.8433 24.8352 23.2682 24.6536 23.2671 24.5723C23.2707 24.8164 23.2815 25.3084 23.2979 25.9008C23.3088 26.285 23.3215 26.7123 23.336 27.1432C23.3505 27.5938 23.3669 28.048 23.3868 28.4592C23.4303 29.3515 23.4847 30.0481 23.5537 30.0822L21.8023 33.5224H16.3408L15.1623 30.0823Z" fill="#D3542B"/>
<g opacity="0.43">
<path d="M15.3947 26.796C16.0364 27.4162 16.7656 27.9081 17.6358 28.1268C18.2604 28.2852 18.9154 28.287 19.559 28.2607C20.6006 28.2173 21.665 28.0948 22.5942 27.6292C22.857 27.4972 23.1083 27.3332 23.335 27.1429C23.2968 26.0496 23.2721 24.9751 23.2664 24.5718C22.1772 25.4295 19.9018 25.356 18.7117 25.2428C17.7235 25.1505 16.7467 24.9149 15.8308 24.536C15.6918 24.4795 15.5509 24.4154 15.4157 24.3438L15.4538 24.404C15.4537 24.4039 15.4328 25.5387 15.3947 26.796Z" fill="#331510"/>
</g>
<path d="M5.76265 31.6838C5.80798 31.7431 5.85878 31.8041 5.9077 31.8634C6.00562 31.9837 6.10723 32.1039 6.21235 32.2224C6.86526 32.9729 7.57798 33.6713 8.3415 34.3104C8.45398 34.4038 8.56819 34.4971 8.68247 34.5887C8.88012 34.7466 9.07965 34.8993 9.28458 35.0483C11.2958 36.5259 13.6136 37.6175 16.1273 38.2099C17.0812 38.4362 18.0642 38.5905 19.0689 38.666C19.5531 38.7037 20.0447 38.7234 20.5398 38.7234C21.9471 38.7234 23.3182 38.5708 24.6385 38.2818C26.7223 37.8257 28.6756 37.0305 30.4384 35.9568C30.9044 35.6731 31.356 35.3697 31.7949 35.0484C31.9527 34.9317 32.1087 34.8132 32.2629 34.6929C32.9357 34.1687 33.5705 33.5978 34.1635 32.9874C34.2234 32.9263 34.285 32.8634 34.3431 32.8006C34.4665 32.6731 34.5843 32.5438 34.7021 32.4128C31.0151 30.4702 23.7245 30.165 23.5541 30.0824C23.4852 30.0483 23.5483 29.3517 23.5048 28.4594C22.9154 28.7897 22.1285 28.9962 21.4612 29.1488C21.0984 29.2314 20.6868 29.3302 20.4981 29.6497C20.3965 29.8221 20.3802 30.0268 20.3657 30.2242C20.3494 30.4343 20.3349 30.6426 20.3186 30.8509C20.0429 30.9658 19.7129 31.034 19.3882 31.0447C19.2921 31.0483 19.196 31.0465 19.1017 31.0375C18.9947 31.0303 18.8895 31.016 18.7898 30.9926C18.8551 30.6838 18.8061 30.3535 18.7625 30.0411C18.7307 29.8123 18.6277 29.5823 18.4546 29.426C18.2426 29.2344 17.9626 29.2241 17.6918 29.2021C16.8564 29.1341 16.0243 28.8713 15.2952 28.4587C15.2907 28.4562 15.2538 28.4388 15.2539 28.4351C15.2213 29.1101 15.2569 29.6963 15.2098 29.9459C15.1953 30.0267 15.1789 30.0734 15.1627 30.0823C15.0811 30.1218 13.4379 30.2098 11.3342 30.4916C11.3016 30.4952 11.2671 30.5006 11.2345 30.506C11.1692 30.515 11.1039 30.524 11.0368 30.533C11.006 30.5384 10.9733 30.542 10.9407 30.5473C9.27926 30.7807 7.38401 31.138 5.76265 31.6838Z" fill="#7EA8C5"/>
<path d="M26.767 21.322C26.7441 21.454 29.2862 20.9544 29.509 20.8677C30.2744 20.568 30.9218 19.929 31.3312 19.2203C31.6891 18.6001 31.8396 17.8366 31.6015 17.1619C31.5501 17.0148 31.4873 16.8848 31.4111 16.7698C31.3844 16.7246 31.3559 16.6831 31.3254 16.6435C30.5313 15.6181 28.8424 15.9819 27.9056 16.7773C27.4734 18.1911 27.0088 19.8706 26.767 21.322Z" fill="#D3542B"/>
<path d="M8.19791 18.4983C8.54068 19.2429 9.12518 19.9366 9.8602 20.306C10.0734 20.4116 12.5602 21.141 12.5488 21.0053C12.4422 19.5388 12.1337 17.8235 11.8347 16.3777C10.9912 15.5163 9.38608 15.0017 8.49113 15.8838C8.45497 15.9216 8.4188 15.9592 8.38452 16.0026C8.28362 16.1213 8.19415 16.2627 8.11986 16.4248C7.82092 17.0751 7.90084 17.8499 8.19791 18.4983Z" fill="#D3542B"/>
<path d="M27.2639 21.1185C27.2715 21.1204 27.2791 21.1223 27.2868 21.1223C27.3154 21.1223 27.3439 21.1034 27.3534 21.0751C27.9741 19.341 29.2652 17.8443 30.8989 16.9678C31.0569 16.881 31.234 16.8 31.4111 16.7698C31.3844 16.7246 31.3559 16.6831 31.3254 16.6436C31.1521 16.6831 30.9827 16.7623 30.8303 16.8433C29.1661 17.7368 27.8504 19.2618 27.2201 21.0279C27.2068 21.0639 27.2258 21.1054 27.2639 21.1185Z" fill="#331510"/>
<path d="M8.3841 16.0027C9.19529 16.1893 9.99121 16.7265 10.612 17.522C11.2689 18.3608 11.6782 19.3636 12.0724 20.3325C12.0838 20.3589 12.1105 20.3759 12.139 20.3759C12.1485 20.3759 12.158 20.374 12.1657 20.3721C12.2018 20.357 12.2209 20.3156 12.2057 20.2798C11.8058 19.3015 11.3945 18.2893 10.7243 17.4353C10.1017 16.6399 9.3095 16.0933 8.49072 15.884C8.45455 15.9217 8.41839 15.9593 8.3841 16.0027Z" fill="#331510"/>
<path d="M10.6582 13.3918C10.6867 13.6425 10.721 13.8951 10.7629 14.1476C11.0904 16.125 11.2961 18.1437 11.7663 20.1022C11.8482 20.4472 11.9377 20.7884 12.0387 21.1277C12.8117 23.7384 14.0495 25.3218 16.6847 25.891C18.3032 26.2397 20.8395 26.2378 22.4827 26.0399C23.8251 25.8796 25.1676 25.4065 26.1463 24.4829C26.9326 23.7383 27.4525 22.7487 27.82 21.6705C28.3379 20.1494 28.5531 18.4529 28.7987 17.0278C29.2881 14.1834 29.5013 11.0656 28.4217 8.32111C27.1384 5.06196 23.9223 2.65298 20.373 2.46824C16.6866 2.27787 13.2421 4.37962 11.5893 7.61615C10.6505 9.45785 10.4334 11.3994 10.6582 13.3918Z" fill="#D3542B"/>
<path d="M29.3857 15.4743C29.0865 16.0793 28.5938 16.6058 28.1581 17.1233C27.6058 16.4458 27.3901 16.3229 27.071 15.8361C26.0527 14.2831 26.0193 12.3326 25.8115 10.4926C25.7269 9.74351 25.6422 8.98876 25.7034 8.23745C25.7487 7.68129 25.8805 7.11754 26.198 6.65657C26.5155 6.19551 27.0434 5.8518 27.607 5.859C28.2294 5.8669 28.7738 6.28537 29.1658 6.76396C30.1109 7.91738 30.431 9.47517 30.3503 10.9582C30.2696 12.4411 30.1474 13.9342 29.3857 15.4743Z" fill="#331510"/>
<path d="M10.5501 12.7079C9.9667 10.2775 10.6563 8.34725 11.7585 6.61787C12.1058 6.07298 12.485 5.54516 12.9322 5.07722C14.441 3.49829 16.6276 2.70698 18.801 2.39935C20.5701 2.14902 22.4093 2.19074 24.0992 2.766C25.7892 3.34126 27.3198 4.48842 28.1289 6.06578C27.1866 6.08551 26.2661 6.63995 25.7762 7.43704C24.2222 8.26201 22.632 9.07241 20.9368 9.55288C19.2415 10.0334 17.4555 10.2536 15.7054 10.0395C16.233 9.34294 16.8329 8.6851 17.3606 7.98866C14.7466 8.91735 12.4191 10.6744 10.5501 12.7079Z" fill="#331510"/>
<path d="M12.5151 9.94605C12.2303 12.0325 12.1469 14.4717 11.862 16.5581C11.6276 16.2868 11.1075 15.8767 10.808 15.678C10.6877 14.8514 10.649 14.0369 10.5645 13.206C10.44 11.9813 10.4213 10.6466 11.1348 9.63858C11.3083 9.39357 11.5301 9.16978 11.8119 9.06168C12.0937 8.95358 12.443 8.98301 12.6602 9.19099L12.5151 9.94605Z" fill="#331510"/>
<path d="M11.2795 15.2827C11.5772 18.3522 11.4263 21.9852 13.7524 24.3685C14.5425 25.1779 15.5846 25.6535 16.6849 25.8912C18.3034 26.2399 20.8397 26.238 22.4829 26.0401C23.8253 25.8798 25.1677 25.4067 26.1464 24.4831C26.9328 23.7385 27.4527 22.7489 27.8202 21.6707C27.9192 21.2522 27.9858 20.8263 28.0277 20.4039C28.0848 19.846 28.0715 19.3013 28.0467 18.7603C28.0467 18.7509 28.0467 18.7414 28.0448 18.7339C28.0448 18.7094 28.0429 18.6868 28.041 18.6642C28.0048 17.8498 27.9496 17.0431 28.0771 16.2099C27.942 16.4757 27.8258 16.7528 27.7173 17.0355C27.2603 18.2099 26.9385 19.4671 26.015 20.2909C25.4343 20.8055 24.6555 21.0882 23.8805 21.0619C22.917 21.0261 22.0335 20.5416 21.169 20.1099C20.3045 19.6802 19.3544 19.2806 18.4023 19.4351C17.4808 19.584 16.702 20.2306 15.7861 20.4153C14.7331 20.6264 13.6058 20.1646 12.8975 19.3522C12.1911 18.5398 11.8846 17.4201 11.9436 16.3419C11.9607 16.012 11.8541 15.6841 11.8274 15.3542C11.7684 15.3674 11.7227 15.2845 11.6637 15.2769C11.6047 15.2675 11.2738 15.2243 11.2795 15.2827Z" fill="#331510"/>
<path d="M28.0396 18.7119C28.0396 18.7119 28.0882 17.7012 28.2826 16.9793C28.47 16.2839 28.708 15.8482 28.708 15.8482L28.2462 15.6558C28.2462 15.6558 27.9666 16.3055 27.8208 16.7145C27.675 17.1236 27.4319 18.05 27.4319 18.05L27.3711 18.796L28.0517 18.7599L28.0396 18.7119Z" fill="#331510"/>
<path d="M19.3116 19.5457C19.6068 19.5457 19.9087 19.4512 20.1583 19.2744C20.1838 19.2564 20.2093 19.2372 20.2349 19.2181C20.3473 19.1338 20.4536 19.0542 20.5745 19.0512C20.6358 19.0533 20.7008 19.0696 20.7684 19.0906C20.8314 19.1101 20.8966 19.1304 20.9669 19.1355C21.1354 19.1468 21.2998 19.064 21.3811 18.9277C21.4679 18.782 21.4471 18.5833 21.3328 18.4655C21.3055 18.4371 21.2606 18.4366 21.2323 18.4639C21.2041 18.4912 21.2035 18.5363 21.2308 18.5644C21.3007 18.6365 21.3131 18.7641 21.259 18.855C21.2055 18.9449 21.0905 19.002 20.9773 18.9938C20.923 18.9899 20.8685 18.9729 20.8106 18.9549C20.735 18.9315 20.6569 18.9072 20.571 18.9093C20.4048 18.9133 20.2692 19.0149 20.1496 19.1045C20.1251 19.1229 20.1006 19.1412 20.0761 19.1586C19.7768 19.3706 19.3953 19.4519 19.056 19.376C18.7041 19.2976 18.3975 19.0415 18.2748 18.7237C18.1736 18.4619 18.1865 18.168 18.2103 17.8649C18.3105 16.5868 18.5232 15.3089 18.8424 14.0665C18.8522 14.0286 18.8293 13.9898 18.7913 13.9801C18.7536 13.9703 18.7145 13.993 18.7048 14.0312C18.3836 15.2815 18.1696 16.5675 18.0687 17.8538C18.0436 18.1738 18.0303 18.4852 18.1422 18.7749C18.2838 19.1413 18.622 19.4249 19.025 19.5147C19.1184 19.5355 19.2146 19.5457 19.3116 19.5457Z" fill="#331510"/>
<path d="M16.1886 20.7662C16.8442 20.8414 17.4742 20.5297 18.1209 20.3995C18.6971 20.2836 19.3027 20.3138 19.8641 20.4865C20.1797 20.5836 20.48 20.7242 20.7932 20.8287C21.3602 21.018 21.9611 21.0861 22.5586 21.1193C22.4234 21.6579 22.2275 22.2288 21.8853 22.6684C21.543 23.108 21.02 23.4379 20.4594 23.4365C20.0396 23.4355 19.6409 23.2543 19.2234 23.2114C18.5362 23.1408 17.81 23.4433 17.1686 23.1892C16.7224 23.0124 16.4126 22.5889 16.2653 22.1361C16.1179 21.6833 16.1828 21.2419 16.1886 20.7662Z" fill="#D3542B"/>
<path d="M19.2657 21.3785C19.6262 21.3785 19.9862 21.2136 20.2138 20.9358C20.2411 20.9025 20.2362 20.8534 20.2029 20.8261C20.1697 20.799 20.1206 20.8037 20.0932 20.8371C19.8673 21.1128 19.4916 21.2606 19.1355 21.2143C18.7799 21.1676 18.456 20.9277 18.3105 20.6033C18.293 20.564 18.247 20.5463 18.2076 20.564C18.1683 20.5817 18.1508 20.6278 18.1684 20.667C18.3355 21.0397 18.7072 21.3151 19.1152 21.3687C19.1651 21.3753 19.2154 21.3785 19.2657 21.3785Z" fill="#331510"/>
<path d="M22.5719 15.8249C22.5597 16.3098 22.9468 16.7125 23.4365 16.7246C23.9262 16.7368 24.3332 16.3535 24.3454 15.8687C24.3576 15.384 23.9706 14.9812 23.4808 14.969C22.991 14.9569 22.5841 15.3401 22.5719 15.8249Z" fill="#331510"/>
<path d="M14.5651 15.4453C14.5529 15.9301 14.94 16.3329 15.4297 16.345C15.9194 16.357 16.3264 15.9739 16.3386 15.4891C16.3508 15.0043 15.9637 14.6015 15.474 14.5894C14.9843 14.5773 14.5773 14.9604 14.5651 15.4453Z" fill="#331510"/>
<path d="M24.9745 12.8302C25.3129 13.0911 25.5526 13.4929 25.5594 13.9175C25.5623 14.0958 25.5178 14.2871 25.3833 14.4056C25.2759 14.5003 25.1277 14.5345 24.9849 14.5506C24.4138 14.6149 23.8454 14.4433 23.2975 14.2715C22.9973 14.1773 22.6662 14.0571 22.5276 13.7771C22.4676 13.6559 22.4521 13.5168 22.4626 13.3822C22.4867 13.0756 22.6475 12.7818 22.894 12.5944C23.4678 12.1583 24.4505 12.4262 24.9745 12.8302Z" fill="#331510"/>
<path d="M14.5209 12.2858C14.1411 12.4832 13.8333 12.8366 13.7504 13.2533C13.7156 13.4282 13.7251 13.6243 13.8363 13.7646C13.9251 13.8766 14.0647 13.9363 14.2025 13.9772C14.753 14.1406 15.3432 14.0716 15.9132 13.9987C16.2255 13.9587 16.5728 13.8985 16.7594 13.6472C16.8401 13.5385 16.8803 13.4043 16.894 13.27C16.9253 12.964 16.8196 12.6466 16.6106 12.419C16.124 11.889 15.1089 11.9801 14.5209 12.2858Z" fill="#331510"/>
<path d="M19.4488 31.1213C20.8806 31.1213 22.3325 30.7893 23.6333 30.1225C23.6682 30.1046 23.6819 30.0618 23.664 30.0268C23.6462 29.9919 23.6035 29.9778 23.5684 29.9961C20.9274 31.3499 17.654 31.3028 15.2289 29.8761C15.1954 29.8561 15.1516 29.8674 15.1317 29.9013C15.1118 29.9351 15.123 29.9786 15.1569 29.9985C16.4275 30.746 17.9269 31.1213 19.4488 31.1213Z" fill="#FADED3"/>
<path d="M19.4746 31.0588C19.4736 31.0196 19.4417 30.9847 19.4017 30.9897C19.3625 30.9908 19.3316 31.0234 19.3327 31.0626" fill="#FADED3"/>
</svg>
