<svg width="46" height="46" viewBox="0 0 46 46" fill="none" xmlns="http://www.w3.org/2000/svg">
<mask id="path-1-inside-1_2754_129041" fill="white">
<path d="M0 23C0 10.2975 10.2975 0 23 0C35.7025 0 46 10.2975 46 23C46 35.7025 35.7025 46 23 46C10.2975 46 0 35.7025 0 23Z"/>
</mask>
<path d="M23 45C10.8497 45 1 35.1503 1 23H-1C-1 36.2548 9.74517 47 23 47V45ZM45 23C45 35.1503 35.1503 45 23 45V47C36.2548 47 47 36.2548 47 23H45ZM23 1C35.1503 1 45 10.8497 45 23H47C47 9.74517 36.2548 -1 23 -1V1ZM23 -1C9.74517 -1 -1 9.74517 -1 23H1C1 10.8497 10.8497 1 23 1V-1Z" fill="white" mask="url(#path-1-inside-1_2754_129041)"/>
<path d="M24.6322 21.4686L31.9084 13H30.1842L23.8662 20.3532L18.8201 13H13L20.6307 24.1193L13 33H14.7243L21.3963 25.2348L26.7253 33H32.5455L24.6318 21.4686H24.6322ZM22.2705 24.2173L21.4973 23.1101L15.3456 14.2997H17.9941L22.9586 21.4099L23.7318 22.5172L30.185 31.7594H27.5365L22.2705 24.2177V24.2173Z" fill="white"/>
</svg>
