<svg width="46" height="46" viewBox="0 0 46 46" fill="none" xmlns="http://www.w3.org/2000/svg">
<mask id="path-1-inside-1_2754_129046" fill="white">
<path d="M0 23C0 10.2975 10.2975 0 23 0C35.7025 0 46 10.2975 46 23C46 35.7025 35.7025 46 23 46C10.2975 46 0 35.7025 0 23Z"/>
</mask>
<path d="M23 45C10.8497 45 1 35.1503 1 23H-1C-1 36.2548 9.74517 47 23 47V45ZM45 23C45 35.1503 35.1503 45 23 45V47C36.2548 47 47 36.2548 47 23H45ZM23 1C35.1503 1 45 10.8497 45 23H47C47 9.74517 36.2548 -1 23 -1V1ZM23 -1C9.74517 -1 -1 9.74517 -1 23H1C1 10.8497 10.8497 1 23 1V-1Z" fill="white" mask="url(#path-1-inside-1_2754_129046)"/>
<path d="M25.8145 22.0549L21.1476 19.5014C20.8793 19.3546 20.5621 19.36 20.2991 19.5159C20.0359 19.6719 19.8789 19.9475 19.8789 20.2534V25.3166C19.8789 25.6211 20.0349 25.8962 20.2963 26.0523C20.4328 26.1339 20.5842 26.1748 20.7358 26.1748C20.8748 26.1748 21.014 26.1405 21.1421 26.0715L25.8092 23.562C26.0862 23.4129 26.2592 23.1249 26.2605 22.8101C26.2616 22.4954 26.0908 22.2061 25.8145 22.0549ZM21.1168 24.6797V20.8955L24.6048 22.804L21.1168 24.6797Z" fill="white"/>
<path d="M32.9691 18.7763L32.9681 18.7666C32.9502 18.5966 32.7722 17.0842 32.0369 16.315C31.1871 15.4102 30.2236 15.3003 29.7603 15.2476C29.7219 15.2432 29.6868 15.2392 29.6553 15.235L29.6184 15.2311C26.8257 15.028 22.6082 15.0003 22.5659 15.0002L22.5622 15L22.5585 15.0002C22.5163 15.0003 18.2987 15.028 15.4809 15.2311L15.4437 15.235C15.4137 15.239 15.3806 15.2427 15.3447 15.2469C14.8867 15.2998 13.9335 15.4098 13.0813 16.3474C12.381 17.1084 12.1786 18.5884 12.1578 18.7547L12.1554 18.7763C12.1491 18.8471 12 20.5314 12 22.2224V23.8031C12 25.4941 12.1491 27.1784 12.1554 27.2493L12.1565 27.26C12.1744 27.4273 12.3523 28.9119 13.0842 29.6815C13.8832 30.556 14.8936 30.6717 15.437 30.7339C15.5229 30.7437 15.5969 30.7521 15.6474 30.761L15.6962 30.7678C17.3087 30.9212 22.3643 30.9968 22.5787 30.9998L22.5851 31L22.5916 30.9998C22.6338 30.9997 26.8512 30.972 29.6439 30.7689L29.6808 30.765C29.7161 30.7603 29.7558 30.7562 29.7993 30.7516C30.2547 30.7033 31.2027 30.6029 32.0432 29.6781C32.7435 28.9169 32.9461 27.4369 32.9667 27.2708L32.9691 27.2492C32.9754 27.1783 33.1246 25.4941 33.1246 23.8031V22.2224C33.1245 20.5314 32.9754 18.8472 32.9691 18.7763ZM31.8865 23.8031C31.8865 25.3682 31.7499 26.98 31.737 27.128C31.6844 27.5356 31.4709 28.4719 31.1297 28.8428C30.6037 29.4215 30.0633 29.4789 29.6687 29.5206C29.621 29.5256 29.5769 29.5305 29.5369 29.5355C26.8357 29.7308 22.7774 29.7608 22.5904 29.7619C22.3808 29.7589 17.3991 29.6826 15.8358 29.5374C15.7557 29.5244 15.6691 29.5144 15.5779 29.504C15.1152 29.451 14.4818 29.3785 13.9948 28.8428L13.9833 28.8305C13.6481 28.4813 13.4407 27.6057 13.388 27.1328C13.3781 27.021 13.2379 25.3901 13.2379 23.8031V22.2224C13.2379 20.6591 13.3743 19.049 13.3875 18.898C13.4502 18.4179 13.6678 17.5382 13.9948 17.1827C14.5369 16.5864 15.1086 16.5203 15.4867 16.4766C15.5228 16.4724 15.5565 16.4686 15.5876 16.4645C18.3281 16.2682 22.4156 16.2391 22.5622 16.2379C22.7089 16.2389 26.795 16.2682 29.5111 16.4645C29.5445 16.4687 29.5809 16.4729 29.6201 16.4774C30.0089 16.5217 30.5967 16.5888 31.1361 17.1641L31.1411 17.1695C31.4764 17.5187 31.6838 18.4096 31.7365 18.892C31.7458 18.9976 31.8865 20.632 31.8865 22.2224V23.8031Z" fill="white"/>
</svg>
